{"glyphs":{"0":{"ha":619,"x_min":18,"x_max":593,"o":"m 539 -35 l 18 108 l 64 275 l 64 558 l 22 569 l 78 772 l 554 642 l 554 179 l 593 168 l 539 -35 m 274 256 l 344 236 l 344 482 l 274 501 l 274 256 z "},"1":{"ha":386,"x_min":21,"x_max":365,"o":"m 311 0 l 67 67 l 110 228 l 110 510 l 21 533 l 75 736 l 319 669 l 319 215 l 365 203 l 311 0 z "},"2":{"ha":656,"x_min":21,"x_max":635,"o":"m 182 -19 l 21 117 l 346 496 l 274 503 l 274 449 l 64 397 l 64 524 l 64 524 l 83 731 l 635 679 l 615 469 l 600 471 l 392 226 l 628 204 l 608 -6 l 263 28 l 268 82 l 182 -19 z "},"3":{"ha":629,"x_min":21,"x_max":608,"o":"m 21 -4 l 106 196 l 443 135 l 254 222 l 164 411 l 464 550 l 126 489 l 43 689 l 417 754 l 608 385 l 504 338 l 586 300 l 396 -71 l 21 -4 z "},"4":{"ha":668,"x_min":21,"x_max":661,"o":"m 349 0 l 349 122 l 21 154 l 40 363 l 54 361 l 54 756 l 264 704 l 264 353 l 142 353 l 349 333 l 349 575 l 558 575 l 558 314 l 661 304 l 642 94 l 558 103 l 558 0 l 349 0 z "},"5":{"ha":607,"x_min":21,"x_max":586,"o":"m 47 353 l 49 508 l 29 713 l 506 757 l 525 549 l 186 517 l 586 333 l 492 146 l 492 146 l 396 -37 l 21 29 l 106 229 l 442 168 l 47 351 l 49 353 l 47 353 z "},"6":{"ha":617,"x_min":21,"x_max":596,"o":"m 463 -43 l 21 78 l 53 196 l 53 676 l 53 678 l 403 769 l 454 568 l 263 517 l 263 396 l 290 506 l 596 422 l 553 254 l 553 150 l 515 150 l 463 -43 m 263 229 l 343 207 l 343 278 l 263 300 l 263 229 z "},"7":{"ha":532,"x_min":21,"x_max":511,"o":"m 138 0 l 265 478 l 383 511 l 40 478 l 21 688 l 492 731 l 511 522 l 494 521 l 360 21 l 138 0 z "},"8":{"ha":614,"x_min":21,"x_max":593,"o":"m 50 335 l 50 694 l 161 694 l 190 799 l 579 692 l 550 585 l 550 460 l 456 440 l 593 403 l 550 235 l 550 28 l 431 28 l 410 -49 l 21 58 l 50 165 l 50 276 l 174 301 l 50 335 m 260 493 l 340 471 l 340 540 l 260 563 l 260 493 m 260 210 l 340 188 l 340 257 l 260 279 l 260 210 z "},"9":{"ha":617,"x_min":21,"x_max":596,"o":"m 213 -108 l 163 90 l 354 142 l 354 263 l 326 153 l 21 236 l 64 404 l 64 404 l 64 592 l 101 592 l 154 785 l 596 664 l 564 546 l 564 -14 l 556 -15 l 213 -108 m 274 404 l 199 404 l 354 364 l 354 513 l 274 535 l 274 404 z "},"A":{"ha":653,"x_min":21,"x_max":632,"o":"m 265 1 l 21 68 l 64 229 l 64 694 l 179 694 l 35 733 l 90 936 l 632 788 l 586 621 l 586 217 l 632 204 l 578 1 l 333 68 l 376 229 l 376 453 l 349 350 l 274 371 l 274 217 l 319 204 l 265 1 m 274 526 l 376 499 l 376 640 l 274 668 l 274 526 z "},"Á":{"ha":653,"x_min":21,"x_max":632,"o":"m 265 1 l 21 68 l 64 229 l 64 694 l 179 694 l 35 733 l 90 936 l 632 788 l 586 621 l 586 217 l 632 204 l 578 1 l 333 68 l 376 229 l 376 453 l 349 350 l 274 371 l 274 217 l 319 204 l 265 1 m 274 526 l 376 499 l 376 640 l 274 668 l 274 526 m 206 944 l 174 1064 l 435 1186 l 479 1019 l 206 944 z "},"Ă":{"ha":653,"x_min":21,"x_max":632,"o":"m 265 1 l 21 68 l 64 229 l 64 694 l 179 694 l 35 733 l 90 936 l 632 788 l 586 621 l 586 217 l 632 204 l 578 1 l 333 68 l 376 229 l 376 453 l 349 350 l 274 371 l 274 217 l 319 204 l 265 1 m 274 526 l 376 499 l 376 640 l 274 668 l 274 526 m 533 1054 l 578 989 q 508 960 550 975 q 432 944 465 944 q 274 997 343 944 q 178 1129 206 1049 l 282 1164 q 376 1082 318 1113 q 501 1051 433 1051 q 517 1053 508 1051 q 533 1054 525 1054 z "},"Â":{"ha":653,"x_min":21,"x_max":632,"o":"m 265 1 l 21 68 l 64 229 l 64 694 l 179 694 l 35 733 l 90 936 l 632 788 l 586 621 l 586 217 l 632 204 l 578 1 l 333 68 l 376 229 l 376 453 l 349 350 l 274 371 l 274 217 l 319 204 l 265 1 m 274 526 l 376 499 l 376 640 l 274 668 l 274 526 m 178 958 l 158 1035 l 419 1157 l 606 1071 l 569 938 l 336 1001 l 178 958 z "},"Ä":{"ha":653,"x_min":21,"x_max":632,"o":"m 265 1 l 21 68 l 64 229 l 64 694 l 179 694 l 35 733 l 90 936 l 632 788 l 586 621 l 586 217 l 632 204 l 578 1 l 333 68 l 376 229 l 376 453 l 349 350 l 274 371 l 274 217 l 319 204 l 265 1 m 274 526 l 376 499 l 376 640 l 274 668 l 274 526 m 326 944 l 86 1013 l 125 1157 l 311 1106 l 325 1157 l 568 1090 l 526 944 l 342 997 l 326 944 z "},"À":{"ha":653,"x_min":21,"x_max":632,"o":"m 265 1 l 21 68 l 64 229 l 64 694 l 179 694 l 35 733 l 90 936 l 632 788 l 586 621 l 586 217 l 632 204 l 578 1 l 333 68 l 376 229 l 376 453 l 349 350 l 274 371 l 274 217 l 319 204 l 265 1 m 274 526 l 376 499 l 376 640 l 274 668 l 274 526 m 447 944 l 174 1019 l 218 1186 l 479 1064 l 447 944 z "},"Ā":{"ha":653,"x_min":21,"x_max":632,"o":"m 265 1 l 21 68 l 64 229 l 64 694 l 179 694 l 35 733 l 90 936 l 632 788 l 586 621 l 586 217 l 632 204 l 578 1 l 333 68 l 376 229 l 376 453 l 349 350 l 274 371 l 274 217 l 319 204 l 265 1 m 274 526 l 376 499 l 376 640 l 274 668 l 274 526 m 107 983 l 101 1086 l 543 1143 l 550 1010 l 107 983 z "},"Ą":{"ha":653,"x_min":21,"x_max":669,"o":"m 265 1 l 21 68 l 64 229 l 64 694 l 179 694 l 35 733 l 90 936 l 632 788 l 586 621 l 586 217 l 632 204 l 578 1 l 333 68 l 376 229 l 376 453 l 349 350 l 274 371 l 274 217 l 319 204 l 265 1 m 274 526 l 376 499 l 376 640 l 274 668 l 274 526 m 649 -112 l 669 -175 q 567 -201 621 -201 q 437 -159 494 -201 q 357 -51 379 -117 l 357 -51 l 357 -51 l 435 72 l 483 40 l 443 -24 q 520 -89 474 -64 q 622 -114 567 -114 q 636 -114 629 -114 q 649 -112 643 -114 z "},"Å":{"ha":653,"x_min":21,"x_max":632,"o":"m 265 1 l 21 68 l 64 229 l 64 694 l 179 694 l 35 733 l 90 936 l 632 788 l 586 621 l 586 217 l 632 204 l 578 1 l 333 68 l 376 229 l 376 453 l 349 350 l 274 371 l 274 217 l 319 204 l 265 1 m 274 526 l 376 499 l 376 640 l 274 668 l 274 526 m 392 944 l 199 997 l 199 997 l 199 1217 l 247 1217 l 261 1267 l 454 1214 l 454 1214 l 454 994 l 406 994 l 392 944 m 289 1086 l 364 1051 l 364 1125 l 289 1160 l 289 1086 z "},"Ã":{"ha":653,"x_min":21,"x_max":632,"o":"m 265 1 l 21 68 l 64 229 l 64 694 l 179 694 l 35 733 l 90 936 l 632 788 l 586 621 l 586 217 l 632 204 l 578 1 l 333 68 l 376 229 l 376 453 l 349 350 l 274 371 l 274 217 l 319 204 l 265 1 m 274 526 l 376 499 l 376 640 l 274 668 l 274 526 m 168 942 l 114 1018 l 267 1171 l 429 1094 l 539 1174 l 593 1097 l 440 944 l 246 999 l 168 942 z "},"Æ":{"ha":950,"x_min":21,"x_max":929,"o":"m 265 1 l 21 68 l 64 229 l 64 694 l 179 694 l 35 733 l 90 936 l 367 861 l 369 892 l 929 839 l 910 629 l 586 661 l 586 526 l 772 526 l 746 317 l 586 317 l 586 225 l 850 153 l 794 -50 l 353 71 l 376 160 l 376 453 l 349 350 l 274 371 l 274 217 l 319 204 l 265 1 m 274 526 l 376 499 l 376 640 l 274 668 l 274 526 z "},"B":{"ha":653,"x_min":21,"x_max":632,"o":"m 410 -24 l 21 82 l 76 285 l 110 276 l 110 681 l 275 681 l 81 733 l 136 936 l 632 800 l 632 800 l 632 800 l 632 521 l 522 490 l 632 460 l 632 106 l 410 -24 m 347 539 l 422 518 l 422 640 l 319 668 l 319 436 l 347 539 m 319 238 l 249 238 l 422 190 l 422 300 l 319 328 l 319 238 z "},"C":{"ha":682,"x_min":21,"x_max":661,"o":"m 425 -26 l 21 83 l 72 283 l 107 274 l 107 681 l 272 681 l 78 733 l 133 936 l 661 792 l 607 589 l 317 668 l 317 238 l 232 238 l 408 186 l 589 236 l 644 33 l 425 -26 l 425 -26 l 425 -26 z "},"Ć":{"ha":682,"x_min":21,"x_max":661,"o":"m 425 -26 l 21 83 l 72 283 l 107 274 l 107 681 l 272 681 l 78 733 l 133 936 l 661 792 l 607 589 l 317 668 l 317 238 l 232 238 l 408 186 l 589 236 l 644 33 l 425 -26 l 425 -26 l 425 -26 m 221 972 l 189 1092 l 450 1214 l 494 1047 l 221 972 z "},"Č":{"ha":682,"x_min":21,"x_max":661,"o":"m 425 -26 l 21 83 l 72 283 l 107 274 l 107 681 l 272 681 l 78 733 l 133 936 l 661 792 l 607 589 l 317 668 l 317 238 l 232 238 l 408 186 l 589 236 l 644 33 l 425 -26 l 425 -26 l 425 -26 m 139 1171 l 347 1114 l 526 1186 l 563 1093 l 381 972 l 119 1094 l 139 1171 z "},"Ç":{"ha":682,"x_min":21,"x_max":661,"o":"m 425 -26 l 21 83 l 72 283 l 107 274 l 107 681 l 272 681 l 78 733 l 133 936 l 661 792 l 607 589 l 317 668 l 317 238 l 232 238 l 408 186 l 589 236 l 644 33 l 425 -26 l 425 -26 l 425 -26 m 479 -308 l 431 -308 l 417 -357 l 224 -304 l 256 -187 l 389 -250 l 389 -178 l 264 -119 l 264 -119 l 263 -119 l 263 17 l 311 17 l 311 -43 l 479 -89 l 479 -89 l 479 -308 z "},"Ċ":{"ha":682,"x_min":21,"x_max":661,"o":"m 425 -26 l 21 83 l 72 283 l 107 274 l 107 681 l 272 681 l 78 733 l 133 936 l 661 792 l 607 589 l 317 668 l 317 238 l 232 238 l 408 186 l 589 236 l 644 33 l 425 -26 l 425 -26 l 425 -26 m 431 975 l 225 1032 l 265 1176 l 471 1119 l 431 975 z "},"D":{"ha":682,"x_min":21,"x_max":661,"o":"m 476 -40 l 21 83 l 72 283 l 107 274 l 107 681 l 272 681 l 78 733 l 133 936 l 661 792 l 661 119 l 518 119 l 476 -40 m 317 238 l 239 238 l 451 179 l 451 632 l 317 668 l 317 238 z "},"Ð":{"ha":682,"x_min":21,"x_max":661,"o":"m 476 -40 l 21 83 l 72 283 l 107 274 l 107 419 l 38 439 l 76 583 l 107 575 l 107 681 l 272 681 l 78 733 l 133 936 l 661 792 l 661 119 l 518 119 l 476 -40 m 360 350 l 317 363 l 317 238 l 239 238 l 451 179 l 451 632 l 317 668 l 317 518 l 399 494 l 360 350 z "},"Ď":{"ha":682,"x_min":21,"x_max":661,"o":"m 476 -40 l 21 83 l 72 283 l 107 274 l 107 681 l 272 681 l 78 733 l 133 936 l 661 792 l 661 119 l 518 119 l 476 -40 m 317 238 l 239 238 l 451 179 l 451 632 l 317 668 l 317 238 m 139 1171 l 347 1114 l 526 1186 l 563 1093 l 381 972 l 119 1094 l 139 1171 z "},"Đ":{"ha":682,"x_min":21,"x_max":661,"o":"m 476 -40 l 21 83 l 72 283 l 107 274 l 107 419 l 38 439 l 76 583 l 107 575 l 107 681 l 272 681 l 78 733 l 133 936 l 661 792 l 661 119 l 518 119 l 476 -40 m 360 350 l 317 363 l 317 238 l 239 238 l 451 179 l 451 632 l 317 668 l 317 518 l 399 494 l 360 350 z "},"E":{"ha":621,"x_min":21,"x_max":600,"o":"m 465 -50 l 24 71 l 47 160 l 47 669 l 165 669 l 21 683 l 40 892 l 600 839 l 581 629 l 257 661 l 257 526 l 443 526 l 417 317 l 257 317 l 257 225 l 521 153 l 465 -50 z "},"É":{"ha":621,"x_min":21,"x_max":600,"o":"m 465 -50 l 24 71 l 47 160 l 47 669 l 165 669 l 21 683 l 40 892 l 600 839 l 581 629 l 257 661 l 257 526 l 443 526 l 417 317 l 257 317 l 257 225 l 521 153 l 465 -50 m 190 972 l 158 1092 l 419 1214 l 464 1047 l 190 972 z "},"Ě":{"ha":621,"x_min":21,"x_max":600,"o":"m 465 -50 l 24 71 l 47 160 l 47 669 l 165 669 l 21 683 l 40 892 l 600 839 l 581 629 l 257 661 l 257 526 l 443 526 l 417 317 l 257 317 l 257 225 l 521 153 l 465 -50 m 108 1171 l 317 1114 l 496 1186 l 532 1093 l 350 972 l 89 1094 l 108 1171 z "},"Ê":{"ha":621,"x_min":21,"x_max":600,"o":"m 465 -50 l 24 71 l 47 160 l 47 669 l 165 669 l 21 683 l 40 892 l 600 839 l 581 629 l 257 661 l 257 526 l 443 526 l 417 317 l 257 317 l 257 225 l 521 153 l 465 -50 m 163 986 l 143 1063 l 404 1185 l 590 1099 l 554 965 l 321 1029 l 163 986 z "},"Ë":{"ha":621,"x_min":21,"x_max":600,"o":"m 465 -50 l 24 71 l 47 160 l 47 669 l 165 669 l 21 683 l 40 892 l 600 839 l 581 629 l 257 661 l 257 526 l 443 526 l 417 317 l 257 317 l 257 225 l 521 153 l 465 -50 m 311 972 l 71 1040 l 110 1185 l 296 1133 l 310 1185 l 553 1118 l 511 972 l 326 1025 l 311 972 z "},"Ė":{"ha":621,"x_min":21,"x_max":600,"o":"m 465 -50 l 24 71 l 47 160 l 47 669 l 165 669 l 21 683 l 40 892 l 600 839 l 581 629 l 257 661 l 257 526 l 443 526 l 417 317 l 257 317 l 257 225 l 521 153 l 465 -50 m 400 975 l 194 1032 l 235 1176 l 440 1119 l 400 975 z "},"È":{"ha":621,"x_min":21,"x_max":600,"o":"m 465 -50 l 24 71 l 47 160 l 47 669 l 165 669 l 21 683 l 40 892 l 600 839 l 581 629 l 257 661 l 257 526 l 443 526 l 417 317 l 257 317 l 257 225 l 521 153 l 465 -50 m 432 972 l 158 1047 l 203 1214 l 464 1092 l 432 972 z "},"Ē":{"ha":621,"x_min":21,"x_max":600,"o":"m 465 -50 l 24 71 l 47 160 l 47 669 l 165 669 l 21 683 l 40 892 l 600 839 l 581 629 l 257 661 l 257 526 l 443 526 l 417 317 l 257 317 l 257 225 l 521 153 l 465 -50 m 92 1011 l 86 1114 l 528 1171 l 535 1038 l 92 1011 z "},"Ę":{"ha":621,"x_min":21,"x_max":600,"o":"m 465 -50 l 24 71 l 47 160 l 47 669 l 165 669 l 21 683 l 40 892 l 600 839 l 581 629 l 257 661 l 257 526 l 443 526 l 417 317 l 257 317 l 257 225 l 521 153 l 465 -50 m 453 -112 l 474 -175 q 371 -201 425 -201 q 241 -159 299 -201 q 161 -51 183 -117 l 161 -51 l 161 -51 l 239 72 l 288 40 l 247 -24 q 324 -89 278 -64 q 426 -114 371 -114 q 440 -114 433 -114 q 453 -112 447 -114 z "},"F":{"ha":638,"x_min":21,"x_max":617,"o":"m 265 0 l 21 67 l 64 228 l 64 669 l 182 669 l 38 683 l 57 892 l 617 839 l 597 629 l 274 661 l 274 486 l 460 486 l 433 335 l 274 335 l 274 215 l 319 203 l 265 0 z "},"G":{"ha":825,"x_min":21,"x_max":804,"o":"m 425 -26 l 21 83 l 72 283 l 107 274 l 107 681 l 272 681 l 78 733 l 133 936 l 661 792 l 607 589 l 317 668 l 317 233 l 247 233 l 408 186 l 519 217 l 519 276 l 624 276 l 417 297 l 436 506 l 804 471 l 785 261 l 729 267 l 729 -69 l 519 -69 l 519 0 l 425 -26 l 425 -26 l 425 -26 z "},"Ğ":{"ha":825,"x_min":21,"x_max":804,"o":"m 425 -26 l 21 83 l 72 283 l 107 274 l 107 681 l 272 681 l 78 733 l 133 936 l 661 792 l 607 589 l 317 668 l 317 233 l 247 233 l 408 186 l 519 217 l 519 276 l 624 276 l 417 297 l 436 506 l 804 471 l 785 261 l 729 267 l 729 -69 l 519 -69 l 519 0 l 425 -26 l 425 -26 l 425 -26 m 619 1082 l 664 1017 q 594 988 636 1003 q 518 972 551 972 q 360 1024 429 972 q 264 1157 292 1076 l 368 1192 q 462 1110 404 1140 q 588 1079 519 1079 q 603 1081 594 1079 q 619 1082 611 1082 z "},"Ģ":{"ha":825,"x_min":21,"x_max":804,"o":"m 425 -26 l 21 83 l 72 283 l 107 274 l 107 681 l 272 681 l 78 733 l 133 936 l 661 792 l 607 589 l 317 668 l 317 233 l 247 233 l 408 186 l 519 217 l 519 276 l 624 276 l 417 297 l 436 506 l 804 471 l 785 261 l 729 267 l 729 -69 l 519 -69 l 519 0 l 425 -26 l 425 -26 l 425 -26 m 367 -369 l 297 -321 l 419 -58 l 529 -135 l 367 -369 z "},"Ġ":{"ha":825,"x_min":21,"x_max":804,"o":"m 425 -26 l 21 83 l 72 283 l 107 274 l 107 681 l 272 681 l 78 733 l 133 936 l 661 792 l 607 589 l 317 668 l 317 233 l 247 233 l 408 186 l 519 217 l 519 276 l 624 276 l 417 297 l 436 506 l 804 471 l 785 261 l 729 267 l 729 -69 l 519 -69 l 519 0 l 425 -26 l 425 -26 l 425 -26 m 501 975 l 296 1032 l 336 1176 l 542 1119 l 501 975 z "},"H":{"ha":685,"x_min":21,"x_max":664,"o":"m 286 -4 l 21 68 l 75 271 l 96 265 l 96 647 l 35 664 l 90 867 l 335 800 l 306 693 l 306 526 l 408 499 l 408 731 l 618 731 l 618 217 l 664 204 l 610 1 l 365 68 l 408 229 l 408 453 l 381 350 l 306 371 l 306 229 l 228 229 l 340 199 l 286 -4 z "},"Ħ":{"ha":694,"x_min":21,"x_max":674,"o":"m 286 -4 l 21 68 l 75 271 l 96 265 l 96 647 l 35 664 l 90 867 l 335 800 l 306 693 l 306 644 l 408 615 l 408 731 l 618 731 l 618 557 l 674 542 l 656 478 l 618 488 l 618 217 l 664 204 l 610 1 l 365 68 l 408 229 l 408 453 l 381 350 l 306 371 l 306 229 l 228 229 l 340 199 l 286 -4 m 306 526 l 408 499 l 408 546 l 306 574 l 306 526 z "},"I":{"ha":340,"x_min":21,"x_max":319,"o":"m 265 0 l 21 67 l 64 228 l 64 722 l 21 733 l 75 936 l 319 869 l 274 697 l 274 215 l 319 203 l 265 0 z "},"Í":{"ha":340,"x_min":18,"x_max":324,"o":"m 265 0 l 21 67 l 64 228 l 64 722 l 21 733 l 75 936 l 319 869 l 274 697 l 274 215 l 319 203 l 265 0 m 50 972 l 18 1092 l 279 1214 l 324 1047 l 50 972 z "},"Î":{"ha":340,"x_min":3,"x_max":450,"o":"m 265 0 l 21 67 l 64 228 l 64 722 l 21 733 l 75 936 l 319 869 l 274 697 l 274 215 l 319 203 l 265 0 m 22 986 l 3 1063 l 264 1185 l 450 1099 l 414 965 l 181 1029 l 22 986 z "},"Ï":{"ha":340,"x_min":-69,"x_max":413,"o":"m 265 0 l 21 67 l 64 228 l 64 722 l 21 733 l 75 936 l 319 869 l 274 697 l 274 215 l 319 203 l 265 0 m 171 972 l -69 1040 l -31 1185 l 156 1133 l 169 1185 l 413 1118 l 371 972 l 186 1025 l 171 972 z "},"İ":{"ha":340,"x_min":21,"x_max":319,"o":"m 265 0 l 21 67 l 64 228 l 64 722 l 21 733 l 75 936 l 319 869 l 274 697 l 274 215 l 319 203 l 265 0 m 260 975 l 54 1032 l 94 1176 l 300 1119 l 260 975 z "},"Ì":{"ha":340,"x_min":18,"x_max":324,"o":"m 265 0 l 21 67 l 64 228 l 64 722 l 21 733 l 75 936 l 319 869 l 274 697 l 274 215 l 319 203 l 265 0 m 292 972 l 18 1047 l 63 1214 l 324 1092 l 292 972 z "},"Ī":{"ha":340,"x_min":-54,"x_max":394,"o":"m 265 0 l 21 67 l 64 228 l 64 722 l 21 733 l 75 936 l 319 869 l 274 697 l 274 215 l 319 203 l 265 0 m -49 1011 l -54 1114 l 388 1171 l 394 1038 l -49 1011 z "},"Į":{"ha":340,"x_min":21,"x_max":375,"o":"m 265 0 l 21 67 l 64 228 l 64 722 l 21 733 l 75 936 l 319 869 l 274 697 l 274 215 l 319 203 l 265 0 m 354 -112 l 375 -175 q 272 -201 326 -201 q 142 -159 200 -201 q 63 -51 85 -117 l 63 -51 l 63 -51 l 140 72 l 189 40 l 149 -24 q 226 -89 179 -64 q 328 -114 272 -114 q 342 -114 335 -114 q 354 -112 349 -114 z "},"J":{"ha":560,"x_min":21,"x_max":539,"o":"m 263 -224 l 43 -164 l 99 39 l 263 -6 l 263 646 l 381 646 l 21 681 l 40 889 l 539 842 l 519 632 l 472 638 l 472 -172 l 263 -224 z "},"K":{"ha":653,"x_min":21,"x_max":632,"o":"m 265 0 l 21 67 l 64 228 l 64 722 l 21 733 l 75 936 l 319 869 l 274 697 l 274 550 l 301 600 l 376 556 l 376 764 l 586 849 l 586 558 l 460 507 l 586 433 l 586 433 l 586 433 l 586 217 l 632 204 l 578 1 l 333 68 l 376 229 l 376 314 l 274 374 l 274 215 l 319 203 l 265 0 z "},"Ķ":{"ha":653,"x_min":21,"x_max":632,"o":"m 265 0 l 21 67 l 64 228 l 64 722 l 21 733 l 75 936 l 319 869 l 274 697 l 274 550 l 301 600 l 376 556 l 376 764 l 586 849 l 586 558 l 460 507 l 586 433 l 586 433 l 586 433 l 586 217 l 632 204 l 578 1 l 333 68 l 376 229 l 376 314 l 274 374 l 274 215 l 319 203 l 265 0 m 279 -369 l 210 -321 l 332 -58 l 442 -135 l 279 -369 z "},"L":{"ha":594,"x_min":29,"x_max":574,"o":"m 554 -15 l 29 35 l 47 229 l 47 722 l 101 925 l 365 854 l 311 651 l 257 665 l 257 247 l 144 235 l 574 194 l 554 -15 z "},"Ĺ":{"ha":594,"x_min":29,"x_max":574,"o":"m 554 -15 l 29 35 l 47 229 l 47 722 l 101 925 l 365 854 l 311 651 l 257 665 l 257 247 l 144 235 l 574 194 l 554 -15 m 93 972 l 61 1092 l 322 1214 l 367 1047 l 93 972 z "},"Ľ":{"ha":594,"x_min":-8,"x_max":574,"o":"m 554 -15 l 29 35 l 47 229 l 47 722 l 101 925 l 365 854 l 311 651 l 257 665 l 257 247 l 144 235 l 574 194 l 554 -15 m 11 1171 l 219 1114 l 399 1186 l 435 1093 l 253 972 l -8 1094 l 11 1171 z "},"Ļ":{"ha":594,"x_min":29,"x_max":574,"o":"m 554 -15 l 29 35 l 47 229 l 47 722 l 101 925 l 365 854 l 311 651 l 257 665 l 257 247 l 144 235 l 574 194 l 554 -15 m 250 -369 l 181 -321 l 303 -58 l 413 -135 l 250 -369 z "},"Ł":{"ha":646,"x_min":14,"x_max":625,"o":"m 38 360 l 14 508 l 99 522 l 99 722 l 153 925 l 417 854 l 363 651 l 308 665 l 308 557 l 383 569 l 407 421 l 308 404 l 308 247 l 196 235 l 625 194 l 606 -15 l 81 35 l 99 229 l 99 369 l 38 360 z "},"M":{"ha":993,"x_min":21,"x_max":972,"o":"m 293 1 l 49 68 l 92 229 l 92 653 l 21 672 l 75 875 l 301 813 l 301 811 l 301 729 l 342 875 l 632 796 l 654 875 l 972 788 l 926 621 l 926 217 l 972 204 l 918 1 l 700 61 l 717 121 l 717 640 l 626 665 l 614 621 l 614 217 l 660 204 l 606 1 l 388 61 l 404 121 l 404 640 l 301 668 l 301 217 l 347 204 l 293 1 z "},"N":{"ha":681,"x_min":21,"x_max":660,"o":"m 293 1 l 49 68 l 92 229 l 92 653 l 21 672 l 75 875 l 301 813 l 301 811 l 301 729 l 342 875 l 660 788 l 614 621 l 614 217 l 660 204 l 606 1 l 388 61 l 404 121 l 404 640 l 301 668 l 301 217 l 347 204 l 293 1 z "},"Ń":{"ha":681,"x_min":21,"x_max":660,"o":"m 293 1 l 49 68 l 92 229 l 92 653 l 21 672 l 75 875 l 301 813 l 301 811 l 301 729 l 342 875 l 660 788 l 614 621 l 614 217 l 660 204 l 606 1 l 388 61 l 404 121 l 404 640 l 301 668 l 301 217 l 347 204 l 293 1 m 219 972 l 188 1092 l 449 1214 l 493 1047 l 219 972 z "},"Ň":{"ha":681,"x_min":21,"x_max":660,"o":"m 293 1 l 49 68 l 92 229 l 92 653 l 21 672 l 75 875 l 301 813 l 301 811 l 301 729 l 342 875 l 660 788 l 614 621 l 614 217 l 660 204 l 606 1 l 388 61 l 404 121 l 404 640 l 301 668 l 301 217 l 347 204 l 293 1 m 138 1171 l 346 1114 l 525 1186 l 561 1093 l 379 972 l 118 1094 l 138 1171 z "},"Ņ":{"ha":681,"x_min":21,"x_max":660,"o":"m 293 1 l 49 68 l 92 229 l 92 653 l 21 672 l 75 875 l 301 813 l 301 811 l 301 729 l 342 875 l 660 788 l 614 621 l 614 217 l 660 204 l 606 1 l 388 61 l 404 121 l 404 640 l 301 668 l 301 217 l 347 204 l 293 1 m 293 -369 l 224 -321 l 346 -58 l 456 -135 l 293 -369 z "},"Ŋ":{"ha":681,"x_min":21,"x_max":660,"o":"m 293 1 l 49 68 l 92 229 l 92 653 l 21 672 l 75 875 l 301 813 l 301 811 l 301 729 l 342 875 l 660 788 l 614 621 l 614 -104 l 614 -104 l 614 -106 l 582 -222 l 311 -149 l 367 54 l 404 44 l 404 640 l 301 668 l 301 217 l 347 204 l 293 1 z "},"Ñ":{"ha":681,"x_min":21,"x_max":660,"o":"m 293 1 l 49 68 l 92 229 l 92 653 l 21 672 l 75 875 l 301 813 l 301 811 l 301 729 l 342 875 l 660 788 l 614 621 l 614 217 l 660 204 l 606 1 l 388 61 l 404 121 l 404 640 l 301 668 l 301 217 l 347 204 l 293 1 m 182 969 l 128 1046 l 281 1199 l 443 1122 l 553 1201 l 607 1125 l 454 972 l 260 1026 l 182 969 z "},"O":{"ha":613,"x_min":21,"x_max":635,"o":"m 67 250 l 67 668 l 36 676 l 88 881 l 635 731 l 589 553 l 589 119 l 558 119 l 511 -61 l 21 72 l 67 250 m 276 221 l 379 193 l 379 582 l 276 610 l 276 221 z "},"Ó":{"ha":613,"x_min":21,"x_max":635,"o":"m 67 250 l 67 668 l 36 676 l 88 881 l 635 731 l 589 553 l 589 119 l 558 119 l 511 -61 l 21 72 l 67 250 m 276 221 l 379 193 l 379 582 l 276 610 l 276 221 m 186 972 l 154 1092 l 415 1214 l 460 1047 l 186 972 z "},"Ô":{"ha":613,"x_min":21,"x_max":635,"o":"m 67 250 l 67 668 l 36 676 l 88 881 l 635 731 l 589 553 l 589 119 l 558 119 l 511 -61 l 21 72 l 67 250 m 276 221 l 379 193 l 379 582 l 276 610 l 276 221 m 158 986 l 139 1063 l 400 1185 l 586 1099 l 550 965 l 317 1029 l 158 986 z "},"Ö":{"ha":613,"x_min":21,"x_max":635,"o":"m 67 250 l 67 668 l 36 676 l 88 881 l 635 731 l 589 553 l 589 119 l 558 119 l 511 -61 l 21 72 l 67 250 m 276 221 l 379 193 l 379 582 l 276 610 l 276 221 m 307 972 l 67 1040 l 106 1185 l 292 1133 l 306 1185 l 549 1118 l 507 972 l 322 1025 l 307 972 z "},"Ò":{"ha":613,"x_min":21,"x_max":635,"o":"m 67 250 l 67 668 l 36 676 l 88 881 l 635 731 l 589 553 l 589 119 l 558 119 l 511 -61 l 21 72 l 67 250 m 276 221 l 379 193 l 379 582 l 276 610 l 276 221 m 428 972 l 154 1047 l 199 1214 l 460 1092 l 428 972 z "},"Ő":{"ha":613,"x_min":21,"x_max":635,"o":"m 67 250 l 67 668 l 36 676 l 88 881 l 635 731 l 589 553 l 589 119 l 558 119 l 511 -61 l 21 72 l 67 250 m 276 221 l 379 193 l 379 582 l 276 610 l 276 221 m 353 971 l 283 1019 l 406 1282 l 515 1206 l 353 971 m 169 971 l 100 1019 l 222 1282 l 332 1206 l 169 971 z "},"Ō":{"ha":613,"x_min":21,"x_max":635,"o":"m 67 250 l 67 668 l 36 676 l 88 881 l 635 731 l 589 553 l 589 119 l 558 119 l 511 -61 l 21 72 l 67 250 m 276 221 l 379 193 l 379 582 l 276 610 l 276 221 m 88 1011 l 82 1114 l 524 1171 l 531 1038 l 88 1011 z "},"Ø":{"ha":669,"x_min":21,"x_max":649,"o":"m 126 -140 l 21 -35 l 107 53 l 35 72 l 81 250 l 81 668 l 50 676 l 101 881 l 403 797 l 525 922 l 632 817 l 568 753 l 649 731 l 603 553 l 603 119 l 572 119 l 525 -61 l 274 7 l 126 -140 m 290 221 l 393 193 l 393 582 l 290 610 l 290 221 z "},"Õ":{"ha":613,"x_min":21,"x_max":635,"o":"m 67 250 l 67 668 l 36 676 l 88 881 l 635 731 l 589 553 l 589 119 l 558 119 l 511 -61 l 21 72 l 67 250 m 276 221 l 379 193 l 379 582 l 276 610 l 276 221 m 149 969 l 94 1046 l 247 1199 l 410 1122 l 519 1201 l 574 1125 l 421 972 l 226 1026 l 149 969 z "},"Œ":{"ha":953,"x_min":21,"x_max":932,"o":"m 67 250 l 67 668 l 36 676 l 88 881 l 635 731 l 589 553 l 589 119 l 558 119 l 511 -61 l 21 72 l 67 250 m 276 221 l 379 193 l 379 582 l 276 610 l 276 221 m 797 -50 l 356 71 l 379 160 l 379 669 l 497 669 l 353 683 l 372 892 l 932 839 l 913 629 l 589 661 l 589 526 l 775 526 l 749 317 l 589 317 l 589 225 l 853 153 l 797 -50 z "},"P":{"ha":690,"x_min":21,"x_max":669,"o":"m 265 0 l 21 67 l 64 228 l 64 722 l 21 733 l 75 936 l 306 874 l 325 947 l 669 853 l 618 660 l 618 356 l 408 233 l 274 271 l 274 215 l 319 203 l 265 0 m 296 483 l 408 451 l 408 707 l 285 740 l 274 697 l 274 400 l 296 483 z "},"Þ":{"ha":690,"x_min":21,"x_max":669,"o":"m 265 0 l 21 67 l 64 228 l 64 875 l 21 886 l 75 1089 l 319 1022 l 274 850 l 274 672 l 325 864 l 669 769 l 618 576 l 618 356 l 408 233 l 274 271 l 274 215 l 319 203 l 265 0 m 296 483 l 408 451 l 408 624 l 274 661 l 274 400 l 296 483 z "},"Q":{"ha":642,"x_min":21,"x_max":635,"o":"m 67 250 l 67 668 l 36 676 l 88 881 l 635 731 l 589 553 l 589 119 l 558 119 l 532 19 l 621 -4 l 567 -207 l 322 -140 l 354 -18 l 21 72 l 67 250 m 276 221 l 379 193 l 379 582 l 276 610 l 276 221 z "},"R":{"ha":672,"x_min":21,"x_max":651,"o":"m 265 0 l 21 67 l 64 228 l 64 703 l 182 703 l 38 717 l 57 925 l 617 872 l 597 667 l 597 519 l 511 464 l 597 440 l 597 218 l 651 203 l 597 0 l 388 57 l 388 57 l 353 67 l 388 197 l 388 326 l 447 326 l 274 374 l 274 215 l 319 203 l 265 0 m 388 675 l 472 675 l 274 694 l 274 529 l 388 499 l 388 675 z "},"Ŕ":{"ha":672,"x_min":21,"x_max":651,"o":"m 265 0 l 21 67 l 64 228 l 64 703 l 182 703 l 38 717 l 57 925 l 617 872 l 597 667 l 597 519 l 511 464 l 597 440 l 597 218 l 651 203 l 597 0 l 388 57 l 388 57 l 353 67 l 388 197 l 388 326 l 447 326 l 274 374 l 274 215 l 319 203 l 265 0 m 388 675 l 472 675 l 274 694 l 274 529 l 388 499 l 388 675 m 215 972 l 183 1092 l 444 1214 l 489 1047 l 215 972 z "},"Ř":{"ha":672,"x_min":21,"x_max":651,"o":"m 265 0 l 21 67 l 64 228 l 64 703 l 182 703 l 38 717 l 57 925 l 617 872 l 597 667 l 597 519 l 511 464 l 597 440 l 597 218 l 651 203 l 597 0 l 388 57 l 388 57 l 353 67 l 388 197 l 388 326 l 447 326 l 274 374 l 274 215 l 319 203 l 265 0 m 388 675 l 472 675 l 274 694 l 274 529 l 388 499 l 388 675 m 133 1171 l 342 1114 l 521 1186 l 557 1093 l 375 972 l 114 1094 l 133 1171 z "},"Ŗ":{"ha":672,"x_min":21,"x_max":651,"o":"m 265 0 l 21 67 l 64 228 l 64 703 l 182 703 l 38 717 l 57 925 l 617 872 l 597 667 l 597 519 l 511 464 l 597 440 l 597 218 l 651 203 l 597 0 l 388 57 l 388 57 l 353 67 l 388 197 l 388 326 l 447 326 l 274 374 l 274 215 l 319 203 l 265 0 m 388 675 l 472 675 l 274 694 l 274 529 l 388 499 l 388 675 m 289 -369 l 219 -321 l 342 -58 l 451 -135 l 289 -369 z "},"S":{"ha":693,"x_min":21,"x_max":672,"o":"m 431 -3 l 97 88 l 199 278 l 547 182 l 361 404 l 288 343 l 21 664 l 136 763 l 136 763 l 176 796 l 181 800 l 181 800 l 331 926 l 664 836 l 563 646 l 235 736 l 396 542 l 467 604 l 672 361 l 672 200 l 599 139 l 431 -3 z "},"Ś":{"ha":693,"x_min":21,"x_max":672,"o":"m 431 -3 l 97 88 l 199 278 l 547 182 l 361 404 l 288 343 l 21 664 l 136 763 l 136 763 l 176 796 l 181 800 l 181 800 l 331 926 l 664 836 l 563 646 l 235 736 l 396 542 l 467 604 l 672 361 l 672 200 l 599 139 l 431 -3 m 226 972 l 194 1092 l 456 1214 l 500 1047 l 226 972 z "},"Š":{"ha":693,"x_min":21,"x_max":672,"o":"m 431 -3 l 97 88 l 199 278 l 547 182 l 361 404 l 288 343 l 21 664 l 136 763 l 136 763 l 176 796 l 181 800 l 181 800 l 331 926 l 664 836 l 563 646 l 235 736 l 396 542 l 467 604 l 672 361 l 672 200 l 599 139 l 431 -3 m 144 1171 l 353 1114 l 532 1186 l 568 1093 l 386 972 l 125 1094 l 144 1171 z "},"Ş":{"ha":693,"x_min":21,"x_max":672,"o":"m 431 -3 l 97 88 l 199 278 l 547 182 l 361 404 l 288 343 l 21 664 l 136 763 l 136 763 l 176 796 l 181 800 l 181 800 l 331 926 l 664 836 l 563 646 l 235 736 l 396 542 l 467 604 l 672 361 l 672 200 l 599 139 l 431 -3 m 513 -282 l 464 -282 l 450 -331 l 257 -278 l 289 -161 l 422 -224 l 422 -151 l 297 -93 l 297 -93 l 296 -93 l 296 43 l 344 43 l 344 -17 l 513 -62 l 513 -62 l 513 -282 z "},"Ș":{"ha":693,"x_min":21,"x_max":672,"o":"m 431 -3 l 97 88 l 199 278 l 547 182 l 361 404 l 288 343 l 21 664 l 136 763 l 136 763 l 176 796 l 181 800 l 181 800 l 331 926 l 664 836 l 563 646 l 235 736 l 396 542 l 467 604 l 672 361 l 672 200 l 599 139 l 431 -3 m 300 -369 l 231 -321 l 353 -58 l 463 -135 l 300 -369 z "},"ẞ":{"ha":1275,"x_min":21,"x_max":1254,"o":"m 431 -3 l 97 88 l 199 278 l 547 182 l 361 404 l 288 343 l 21 664 l 136 763 l 136 763 l 176 796 l 181 800 l 181 800 l 331 926 l 664 836 l 563 646 l 235 736 l 396 542 l 467 604 l 672 361 l 672 200 l 599 139 l 431 -3 m 1013 -3 l 679 88 l 781 278 l 1129 182 l 943 404 l 869 343 l 603 664 l 718 763 l 718 763 l 758 796 l 763 800 l 763 800 l 913 926 l 1246 836 l 1144 646 l 817 736 l 978 542 l 1049 604 l 1254 361 l 1254 200 l 1181 139 l 1013 -3 z "},"T":{"ha":621,"x_min":21,"x_max":600,"o":"m 363 0 l 118 67 l 161 228 l 161 656 l 310 656 l 21 683 l 40 892 l 600 839 l 581 629 l 371 650 l 371 242 l 274 242 l 417 203 l 363 0 z "},"Ŧ":{"ha":621,"x_min":21,"x_max":600,"o":"m 363 0 l 118 67 l 161 228 l 161 408 l 96 418 l 107 486 l 161 476 l 161 656 l 310 656 l 21 683 l 40 892 l 600 839 l 581 629 l 371 650 l 371 442 l 464 426 l 453 360 l 371 374 l 371 242 l 274 242 l 417 203 l 363 0 z "},"Ť":{"ha":621,"x_min":21,"x_max":600,"o":"m 363 0 l 118 67 l 161 228 l 161 656 l 310 656 l 21 683 l 40 892 l 600 839 l 581 629 l 371 650 l 371 242 l 274 242 l 417 203 l 363 0 m 108 1171 l 317 1114 l 496 1186 l 532 1093 l 350 972 l 89 1094 l 108 1171 z "},"Ţ":{"ha":621,"x_min":21,"x_max":600,"o":"m 363 0 l 118 67 l 161 228 l 161 656 l 310 656 l 21 683 l 40 892 l 600 839 l 581 629 l 371 650 l 371 242 l 274 242 l 417 203 l 363 0 m 414 -269 l 365 -269 l 351 -318 l 158 -265 l 190 -149 l 324 -211 l 324 -139 l 199 -81 l 199 -81 l 197 -81 l 197 56 l 246 56 l 246 -4 l 414 -50 l 414 -50 l 414 -269 z "},"Ț":{"ha":621,"x_min":21,"x_max":600,"o":"m 363 0 l 118 67 l 161 228 l 161 656 l 310 656 l 21 683 l 40 892 l 600 839 l 581 629 l 371 650 l 371 242 l 274 242 l 417 203 l 363 0 m 174 -331 l 104 -282 l 226 -19 l 336 -96 l 174 -331 z "},"U":{"ha":681,"x_min":21,"x_max":660,"o":"m 339 0 l 21 88 l 67 254 l 67 660 l 21 672 l 75 875 l 293 815 l 276 756 l 276 235 l 379 207 l 379 660 l 333 672 l 388 875 l 632 808 l 589 647 l 589 222 l 660 203 l 606 0 l 379 63 l 379 64 l 379 146 l 339 0 z "},"Ú":{"ha":681,"x_min":21,"x_max":660,"o":"m 339 0 l 21 88 l 67 254 l 67 660 l 21 672 l 75 875 l 293 815 l 276 756 l 276 235 l 379 207 l 379 660 l 333 672 l 388 875 l 632 808 l 589 647 l 589 222 l 660 203 l 606 0 l 379 63 l 379 64 l 379 146 l 339 0 m 219 972 l 188 1092 l 449 1214 l 493 1047 l 219 972 z "},"Û":{"ha":681,"x_min":21,"x_max":660,"o":"m 339 0 l 21 88 l 67 254 l 67 660 l 21 672 l 75 875 l 293 815 l 276 756 l 276 235 l 379 207 l 379 660 l 333 672 l 388 875 l 632 808 l 589 647 l 589 222 l 660 203 l 606 0 l 379 63 l 379 64 l 379 146 l 339 0 m 192 986 l 172 1063 l 433 1185 l 619 1099 l 583 965 l 350 1029 l 192 986 z "},"Ü":{"ha":681,"x_min":21,"x_max":660,"o":"m 339 0 l 21 88 l 67 254 l 67 660 l 21 672 l 75 875 l 293 815 l 276 756 l 276 235 l 379 207 l 379 660 l 333 672 l 388 875 l 632 808 l 589 647 l 589 222 l 660 203 l 606 0 l 379 63 l 379 64 l 379 146 l 339 0 m 340 972 l 100 1040 l 139 1185 l 325 1133 l 339 1185 l 582 1118 l 540 972 l 356 1025 l 340 972 z "},"Ù":{"ha":681,"x_min":21,"x_max":660,"o":"m 339 0 l 21 88 l 67 254 l 67 660 l 21 672 l 75 875 l 293 815 l 276 756 l 276 235 l 379 207 l 379 660 l 333 672 l 388 875 l 632 808 l 589 647 l 589 222 l 660 203 l 606 0 l 379 63 l 379 64 l 379 146 l 339 0 m 461 972 l 188 1047 l 232 1214 l 493 1092 l 461 972 z "},"Ű":{"ha":681,"x_min":21,"x_max":660,"o":"m 339 0 l 21 88 l 67 254 l 67 660 l 21 672 l 75 875 l 293 815 l 276 756 l 276 235 l 379 207 l 379 660 l 333 672 l 388 875 l 632 808 l 589 647 l 589 222 l 660 203 l 606 0 l 379 63 l 379 64 l 379 146 l 339 0 m 386 971 l 317 1019 l 439 1282 l 549 1206 l 386 971 m 203 971 l 133 1019 l 256 1282 l 365 1206 l 203 971 z "},"Ū":{"ha":681,"x_min":21,"x_max":660,"o":"m 339 0 l 21 88 l 67 254 l 67 660 l 21 672 l 75 875 l 293 815 l 276 756 l 276 235 l 379 207 l 379 660 l 333 672 l 388 875 l 632 808 l 589 647 l 589 222 l 660 203 l 606 0 l 379 63 l 379 64 l 379 146 l 339 0 m 121 1011 l 115 1114 l 557 1171 l 564 1038 l 121 1011 z "},"Ų":{"ha":681,"x_min":21,"x_max":722,"o":"m 339 0 l 21 88 l 67 254 l 67 660 l 21 672 l 75 875 l 293 815 l 276 756 l 276 235 l 379 207 l 379 660 l 333 672 l 388 875 l 632 808 l 589 647 l 589 222 l 660 203 l 606 0 l 379 63 l 379 64 l 379 146 l 339 0 m 701 -112 l 722 -175 q 619 -201 674 -201 q 490 -159 547 -201 q 410 -51 432 -117 l 410 -51 l 410 -51 l 488 72 l 536 40 l 496 -24 q 573 -89 526 -64 q 675 -114 619 -114 q 689 -114 682 -114 q 701 -112 696 -114 z "},"Ů":{"ha":681,"x_min":21,"x_max":660,"o":"m 339 0 l 21 88 l 67 254 l 67 660 l 21 672 l 75 875 l 293 815 l 276 756 l 276 235 l 379 207 l 379 660 l 333 672 l 388 875 l 632 808 l 589 647 l 589 222 l 660 203 l 606 0 l 379 63 l 379 64 l 379 146 l 339 0 m 406 972 l 213 1025 l 213 1025 l 213 1244 l 261 1244 l 275 1294 l 468 1242 l 468 1242 l 468 1022 l 419 1022 l 406 972 m 303 1114 l 378 1079 l 378 1153 l 303 1188 l 303 1114 z "},"V":{"ha":657,"x_min":21,"x_max":636,"o":"m 333 0 l 49 133 l 64 167 l 64 722 l 21 733 l 75 936 l 319 869 l 274 697 l 274 260 l 449 178 l 360 590 l 404 600 l 331 619 l 385 822 l 629 756 l 579 567 l 636 300 l 596 153 l 543 122 l 333 0 z "},"W":{"ha":922,"x_min":21,"x_max":901,"o":"m 535 -54 l 21 88 l 67 254 l 67 658 l 21 671 l 75 874 l 293 814 l 276 754 l 276 235 l 367 210 l 379 254 l 379 658 l 333 671 l 388 874 l 606 814 l 589 754 l 589 235 l 692 207 l 692 592 l 632 814 l 836 869 l 901 618 l 901 149 l 901 149 l 846 -53 l 557 26 l 535 -54 z "},"Ẃ":{"ha":922,"x_min":21,"x_max":901,"o":"m 535 -54 l 21 88 l 67 254 l 67 658 l 21 671 l 75 874 l 293 814 l 276 754 l 276 235 l 367 210 l 379 254 l 379 658 l 333 671 l 388 874 l 606 814 l 589 754 l 589 235 l 692 207 l 692 592 l 632 814 l 836 869 l 901 618 l 901 149 l 901 149 l 846 -53 l 557 26 l 535 -54 m 340 972 l 308 1092 l 569 1214 l 614 1047 l 340 972 z "},"Ŵ":{"ha":922,"x_min":21,"x_max":901,"o":"m 535 -54 l 21 88 l 67 254 l 67 658 l 21 671 l 75 874 l 293 814 l 276 754 l 276 235 l 367 210 l 379 254 l 379 658 l 333 671 l 388 874 l 606 814 l 589 754 l 589 235 l 692 207 l 692 592 l 632 814 l 836 869 l 901 618 l 901 149 l 901 149 l 846 -53 l 557 26 l 535 -54 m 313 986 l 293 1063 l 554 1185 l 740 1099 l 704 965 l 471 1029 l 313 986 z "},"Ẅ":{"ha":922,"x_min":21,"x_max":901,"o":"m 535 -54 l 21 88 l 67 254 l 67 658 l 21 671 l 75 874 l 293 814 l 276 754 l 276 235 l 367 210 l 379 254 l 379 658 l 333 671 l 388 874 l 606 814 l 589 754 l 589 235 l 692 207 l 692 592 l 632 814 l 836 869 l 901 618 l 901 149 l 901 149 l 846 -53 l 557 26 l 535 -54 m 461 972 l 221 1040 l 260 1185 l 446 1133 l 460 1185 l 703 1118 l 661 972 l 476 1025 l 461 972 z "},"Ẁ":{"ha":922,"x_min":21,"x_max":901,"o":"m 535 -54 l 21 88 l 67 254 l 67 658 l 21 671 l 75 874 l 293 814 l 276 754 l 276 235 l 367 210 l 379 254 l 379 658 l 333 671 l 388 874 l 606 814 l 589 754 l 589 235 l 692 207 l 692 592 l 632 814 l 836 869 l 901 618 l 901 149 l 901 149 l 846 -53 l 557 26 l 535 -54 m 582 972 l 308 1047 l 353 1214 l 614 1092 l 582 972 z "},"X":{"ha":910,"x_min":21,"x_max":889,"o":"m 289 0 l 21 71 l 78 274 l 189 244 l 333 489 l 193 728 l 82 699 l 25 901 l 292 972 l 293 972 l 456 697 l 617 972 l 618 972 l 885 901 l 828 699 l 717 728 l 576 489 l 721 244 l 832 274 l 889 71 l 621 0 l 621 0 l 621 0 l 456 282 l 289 0 l 289 0 l 289 0 z "},"Y":{"ha":653,"x_min":21,"x_max":632,"o":"m 339 0 l 21 88 l 67 254 l 67 660 l 21 672 l 75 875 l 293 815 l 276 756 l 276 235 l 379 207 l 379 660 l 333 672 l 388 875 l 632 808 l 589 647 l 589 -135 l 589 -135 l 536 -340 l 103 -222 l 154 -21 l 379 -79 l 379 146 l 339 0 z "},"Ý":{"ha":653,"x_min":21,"x_max":632,"o":"m 339 0 l 21 88 l 67 254 l 67 660 l 21 672 l 75 875 l 293 815 l 276 756 l 276 235 l 379 207 l 379 660 l 333 672 l 388 875 l 632 808 l 589 647 l 589 -135 l 589 -135 l 536 -340 l 103 -222 l 154 -21 l 379 -79 l 379 146 l 339 0 m 206 972 l 174 1092 l 435 1214 l 479 1047 l 206 972 z "},"Ŷ":{"ha":653,"x_min":21,"x_max":632,"o":"m 339 0 l 21 88 l 67 254 l 67 660 l 21 672 l 75 875 l 293 815 l 276 756 l 276 235 l 379 207 l 379 660 l 333 672 l 388 875 l 632 808 l 589 647 l 589 -135 l 589 -135 l 536 -340 l 103 -222 l 154 -21 l 379 -79 l 379 146 l 339 0 m 178 986 l 158 1063 l 419 1185 l 606 1099 l 569 965 l 336 1029 l 178 986 z "},"Ÿ":{"ha":653,"x_min":21,"x_max":632,"o":"m 339 0 l 21 88 l 67 254 l 67 660 l 21 672 l 75 875 l 293 815 l 276 756 l 276 235 l 379 207 l 379 660 l 333 672 l 388 875 l 632 808 l 589 647 l 589 -135 l 589 -135 l 536 -340 l 103 -222 l 154 -21 l 379 -79 l 379 146 l 339 0 m 326 972 l 86 1040 l 125 1185 l 311 1133 l 325 1185 l 568 1118 l 526 972 l 342 1025 l 326 972 z "},"Ỳ":{"ha":653,"x_min":21,"x_max":632,"o":"m 339 0 l 21 88 l 67 254 l 67 660 l 21 672 l 75 875 l 293 815 l 276 756 l 276 235 l 379 207 l 379 660 l 333 672 l 388 875 l 632 808 l 589 647 l 589 -135 l 589 -135 l 536 -340 l 103 -222 l 154 -21 l 379 -79 l 379 146 l 339 0 m 447 972 l 174 1047 l 218 1214 l 479 1092 l 447 972 z "},"Z":{"ha":699,"x_min":21,"x_max":678,"o":"m 624 -11 l 621 -11 l 47 25 l 58 233 l 58 233 l 358 656 l 236 663 l 225 624 l 21 679 l 75 879 l 75 882 l 635 849 l 624 639 l 532 644 l 583 608 l 306 219 l 464 210 l 474 247 l 678 192 l 624 -8 l 624 -11 l 624 -11 l 624 -11 z "},"Ź":{"ha":699,"x_min":21,"x_max":678,"o":"m 624 -11 l 621 -11 l 47 25 l 58 233 l 58 233 l 358 656 l 236 663 l 225 624 l 21 679 l 75 879 l 75 882 l 635 849 l 624 639 l 532 644 l 583 608 l 306 219 l 464 210 l 474 247 l 678 192 l 624 -8 l 624 -11 l 624 -11 l 624 -11 m 229 972 l 197 1092 l 458 1214 l 503 1047 l 229 972 z "},"Ž":{"ha":699,"x_min":21,"x_max":678,"o":"m 624 -11 l 621 -11 l 47 25 l 58 233 l 58 233 l 358 656 l 236 663 l 225 624 l 21 679 l 75 879 l 75 882 l 635 849 l 624 639 l 532 644 l 583 608 l 306 219 l 464 210 l 474 247 l 678 192 l 624 -8 l 624 -11 l 624 -11 l 624 -11 m 147 1171 l 356 1114 l 535 1186 l 571 1093 l 389 972 l 128 1094 l 147 1171 z "},"Ż":{"ha":699,"x_min":21,"x_max":678,"o":"m 624 -11 l 621 -11 l 47 25 l 58 233 l 58 233 l 358 656 l 236 663 l 225 624 l 21 679 l 75 879 l 75 882 l 635 849 l 624 639 l 532 644 l 583 608 l 306 219 l 464 210 l 474 247 l 678 192 l 624 -8 l 624 -11 l 624 -11 l 624 -11 m 439 975 l 233 1032 l 274 1176 l 479 1119 l 439 975 z "},"a":{"ha":621,"x_min":21,"x_max":600,"o":"m 286 -4 l 21 68 l 36 125 l 36 544 l 146 544 l 188 708 l 600 600 l 547 396 l 519 403 l 519 218 l 592 199 l 538 -4 l 303 60 l 286 -4 m 246 225 l 310 207 l 310 208 l 310 460 l 246 476 l 246 225 z "},"á":{"ha":621,"x_min":21,"x_max":600,"o":"m 286 -4 l 21 68 l 36 125 l 36 544 l 146 544 l 188 708 l 600 600 l 547 396 l 519 403 l 519 218 l 592 199 l 538 -4 l 303 60 l 286 -4 m 246 225 l 310 207 l 310 208 l 310 460 l 246 476 l 246 225 m 188 819 l 156 939 l 417 1061 l 461 894 l 188 819 z "},"ă":{"ha":621,"x_min":21,"x_max":600,"o":"m 286 -4 l 21 68 l 36 125 l 36 544 l 146 544 l 188 708 l 600 600 l 547 396 l 519 403 l 519 218 l 592 199 l 538 -4 l 303 60 l 286 -4 m 246 225 l 310 207 l 310 208 l 310 460 l 246 476 l 246 225 m 515 929 l 560 864 q 490 835 532 850 q 414 819 447 819 q 256 872 325 819 q 160 1004 188 924 l 264 1039 q 358 957 300 988 q 483 926 415 926 q 499 928 490 926 q 515 929 507 929 z "},"â":{"ha":621,"x_min":21,"x_max":600,"o":"m 286 -4 l 21 68 l 36 125 l 36 544 l 146 544 l 188 708 l 600 600 l 547 396 l 519 403 l 519 218 l 592 199 l 538 -4 l 303 60 l 286 -4 m 246 225 l 310 207 l 310 208 l 310 460 l 246 476 l 246 225 m 160 833 l 140 910 l 401 1032 l 588 946 l 551 813 l 318 876 l 160 833 z "},"ä":{"ha":621,"x_min":21,"x_max":600,"o":"m 286 -4 l 21 68 l 36 125 l 36 544 l 146 544 l 188 708 l 600 600 l 547 396 l 519 403 l 519 218 l 592 199 l 538 -4 l 303 60 l 286 -4 m 246 225 l 310 207 l 310 208 l 310 460 l 246 476 l 246 225 m 308 819 l 68 888 l 107 1032 l 293 981 l 307 1032 l 550 965 l 508 819 l 324 872 l 308 819 z "},"à":{"ha":621,"x_min":21,"x_max":600,"o":"m 286 -4 l 21 68 l 36 125 l 36 544 l 146 544 l 188 708 l 600 600 l 547 396 l 519 403 l 519 218 l 592 199 l 538 -4 l 303 60 l 286 -4 m 246 225 l 310 207 l 310 208 l 310 460 l 246 476 l 246 225 m 429 819 l 156 894 l 200 1061 l 461 939 l 429 819 z "},"ā":{"ha":621,"x_min":21,"x_max":600,"o":"m 286 -4 l 21 68 l 36 125 l 36 544 l 146 544 l 188 708 l 600 600 l 547 396 l 519 403 l 519 218 l 592 199 l 538 -4 l 303 60 l 286 -4 m 246 225 l 310 207 l 310 208 l 310 460 l 246 476 l 246 225 m 89 858 l 83 961 l 525 1018 l 532 885 l 89 858 z "},"ą":{"ha":621,"x_min":21,"x_max":644,"o":"m 286 -4 l 21 68 l 36 125 l 36 544 l 146 544 l 188 708 l 600 600 l 547 396 l 519 403 l 519 218 l 592 199 l 538 -4 l 303 60 l 286 -4 m 246 225 l 310 207 l 310 208 l 310 460 l 246 476 l 246 225 m 624 -112 l 644 -175 q 542 -201 596 -201 q 412 -159 469 -201 q 332 -51 354 -117 l 332 -51 l 332 -51 l 410 72 l 458 40 l 418 -24 q 495 -89 449 -64 q 597 -114 542 -114 q 611 -114 604 -114 q 624 -112 618 -114 z "},"å":{"ha":621,"x_min":21,"x_max":600,"o":"m 286 -4 l 21 68 l 36 125 l 36 544 l 146 544 l 188 708 l 600 600 l 547 396 l 519 403 l 519 218 l 592 199 l 538 -4 l 303 60 l 286 -4 m 246 225 l 310 207 l 310 208 l 310 460 l 246 476 l 246 225 m 374 819 l 181 872 l 181 872 l 181 1092 l 229 1092 l 243 1142 l 436 1089 l 436 1089 l 436 869 l 388 869 l 374 819 m 271 961 l 346 926 l 346 1000 l 271 1035 l 271 961 z "},"ã":{"ha":621,"x_min":21,"x_max":600,"o":"m 286 -4 l 21 68 l 36 125 l 36 544 l 146 544 l 188 708 l 600 600 l 547 396 l 519 403 l 519 218 l 592 199 l 538 -4 l 303 60 l 286 -4 m 246 225 l 310 207 l 310 208 l 310 460 l 246 476 l 246 225 m 150 817 l 96 893 l 249 1046 l 411 969 l 521 1049 l 575 972 l 422 819 l 228 874 l 150 817 z "},"æ":{"ha":819,"x_min":21,"x_max":799,"o":"m 286 -4 l 21 68 l 36 125 l 36 544 l 146 544 l 188 708 l 465 636 l 540 726 l 799 507 l 664 347 l 686 267 l 526 222 l 743 164 l 689 -39 l 304 65 l 286 -4 m 246 225 l 310 207 l 310 458 l 246 476 l 246 225 m 519 468 l 519 376 l 601 399 l 519 468 z "},"b":{"ha":643,"x_min":21,"x_max":622,"o":"m 319 0 l 35 133 l 64 197 l 64 722 l 21 733 l 75 936 l 319 869 l 274 697 l 274 449 l 349 611 l 578 503 l 578 503 l 622 300 l 582 153 l 529 122 l 319 0 m 274 254 l 435 178 l 396 357 l 274 415 l 274 254 z "},"c":{"ha":547,"x_min":21,"x_max":526,"o":"m 325 -15 l 325 -15 l 21 68 l 36 125 l 36 489 l 165 489 l 56 518 l 107 721 l 519 613 l 467 408 l 246 467 l 246 224 l 297 210 l 421 281 l 526 100 l 326 -15 l 325 -15 l 325 -15 l 325 -15 z "},"ć":{"ha":547,"x_min":21,"x_max":526,"o":"m 325 -15 l 325 -15 l 21 68 l 36 125 l 36 489 l 165 489 l 56 518 l 107 721 l 519 613 l 467 408 l 246 467 l 246 224 l 297 210 l 421 281 l 526 100 l 326 -15 l 325 -15 l 325 -15 l 325 -15 m 153 764 l 121 883 l 382 1006 l 426 839 l 153 764 z "},"č":{"ha":547,"x_min":21,"x_max":526,"o":"m 325 -15 l 325 -15 l 21 68 l 36 125 l 36 489 l 165 489 l 56 518 l 107 721 l 519 613 l 467 408 l 246 467 l 246 224 l 297 210 l 421 281 l 526 100 l 326 -15 l 325 -15 l 325 -15 l 325 -15 m 71 963 l 279 906 l 458 978 l 494 885 l 313 764 l 51 886 l 71 963 z "},"ç":{"ha":547,"x_min":21,"x_max":526,"o":"m 325 -15 l 325 -15 l 21 68 l 36 125 l 36 489 l 165 489 l 56 518 l 107 721 l 519 613 l 467 408 l 246 467 l 246 224 l 297 210 l 421 281 l 526 100 l 326 -15 l 325 -15 l 325 -15 l 325 -15 m 425 -308 l 376 -308 l 363 -357 l 169 -304 l 201 -187 l 335 -250 l 335 -178 l 210 -119 l 210 -119 l 208 -119 l 208 17 l 257 17 l 257 -43 l 425 -89 l 425 -89 l 425 -308 z "},"ċ":{"ha":547,"x_min":21,"x_max":526,"o":"m 325 -15 l 325 -15 l 21 68 l 36 125 l 36 489 l 165 489 l 56 518 l 107 721 l 519 613 l 467 408 l 246 467 l 246 224 l 297 210 l 421 281 l 526 100 l 326 -15 l 325 -15 l 325 -15 l 325 -15 m 363 767 l 157 824 l 197 968 l 403 911 l 363 767 z "},"d":{"ha":569,"x_min":21,"x_max":549,"o":"m 350 -19 l 21 69 l 35 122 l 35 544 l 224 544 l 101 847 l 296 926 l 549 303 l 549 303 l 549 119 l 386 119 l 350 -19 m 244 226 l 339 201 l 339 261 l 244 494 l 244 226 z "},"ð":{"ha":569,"x_min":21,"x_max":549,"o":"m 350 -19 l 21 69 l 35 122 l 35 544 l 224 544 l 188 636 l 104 613 l 65 757 l 131 775 l 101 847 l 296 926 l 335 832 l 388 846 l 426 701 l 390 692 l 549 303 l 549 303 l 549 119 l 386 119 l 350 -19 m 244 226 l 339 201 l 339 261 l 244 494 l 244 226 z "},"ď":{"ha":569,"x_min":10,"x_max":549,"o":"m 350 -19 l 21 69 l 35 122 l 35 544 l 224 544 l 101 847 l 296 926 l 549 303 l 549 303 l 549 119 l 386 119 l 350 -19 m 244 226 l 339 201 l 339 261 l 244 494 l 244 226 m 29 1171 l 238 1114 l 417 1186 l 453 1093 l 271 972 l 10 1094 l 29 1171 z "},"đ":{"ha":569,"x_min":21,"x_max":549,"o":"m 350 -19 l 21 69 l 35 122 l 35 544 l 224 544 l 188 636 l 104 613 l 65 757 l 131 775 l 101 847 l 296 926 l 335 832 l 388 846 l 426 701 l 390 692 l 549 303 l 549 303 l 549 119 l 386 119 l 350 -19 m 244 226 l 339 201 l 339 261 l 244 494 l 244 226 z "},"e":{"ha":554,"x_min":21,"x_max":533,"o":"m 424 -39 l 21 71 l 44 160 l 44 544 l 165 544 l 140 565 l 275 726 l 533 507 l 399 347 l 421 267 l 261 222 l 478 164 l 424 -39 m 254 468 l 254 376 l 336 399 l 254 468 z "},"é":{"ha":554,"x_min":21,"x_max":533,"o":"m 424 -39 l 21 71 l 44 160 l 44 544 l 165 544 l 140 565 l 275 726 l 533 507 l 399 347 l 421 267 l 261 222 l 478 164 l 424 -39 m 254 468 l 254 376 l 336 399 l 254 468 m 129 806 l 97 925 l 358 1047 l 403 881 l 129 806 z "},"ě":{"ha":554,"x_min":21,"x_max":533,"o":"m 424 -39 l 21 71 l 44 160 l 44 544 l 165 544 l 140 565 l 275 726 l 533 507 l 399 347 l 421 267 l 261 222 l 478 164 l 424 -39 m 254 468 l 254 376 l 336 399 l 254 468 m 47 1004 l 256 947 l 435 1019 l 471 926 l 289 806 l 28 928 l 47 1004 z "},"ê":{"ha":554,"x_min":21,"x_max":533,"o":"m 424 -39 l 21 71 l 44 160 l 44 544 l 165 544 l 140 565 l 275 726 l 533 507 l 399 347 l 421 267 l 261 222 l 478 164 l 424 -39 m 254 468 l 254 376 l 336 399 l 254 468 m 101 819 l 82 896 l 343 1018 l 529 932 l 493 799 l 260 863 l 101 819 z "},"ë":{"ha":554,"x_min":10,"x_max":533,"o":"m 424 -39 l 21 71 l 44 160 l 44 544 l 165 544 l 140 565 l 275 726 l 533 507 l 399 347 l 421 267 l 261 222 l 478 164 l 424 -39 m 254 468 l 254 376 l 336 399 l 254 468 m 250 806 l 10 874 l 49 1018 l 235 967 l 249 1018 l 492 951 l 450 806 l 265 858 l 250 806 z "},"ė":{"ha":554,"x_min":21,"x_max":533,"o":"m 424 -39 l 21 71 l 44 160 l 44 544 l 165 544 l 140 565 l 275 726 l 533 507 l 399 347 l 421 267 l 261 222 l 478 164 l 424 -39 m 254 468 l 254 376 l 336 399 l 254 468 m 339 808 l 133 865 l 174 1010 l 379 953 l 339 808 z "},"è":{"ha":554,"x_min":21,"x_max":533,"o":"m 424 -39 l 21 71 l 44 160 l 44 544 l 165 544 l 140 565 l 275 726 l 533 507 l 399 347 l 421 267 l 261 222 l 478 164 l 424 -39 m 254 468 l 254 376 l 336 399 l 254 468 m 371 806 l 97 881 l 142 1047 l 403 925 l 371 806 z "},"ē":{"ha":554,"x_min":21,"x_max":533,"o":"m 424 -39 l 21 71 l 44 160 l 44 544 l 165 544 l 140 565 l 275 726 l 533 507 l 399 347 l 421 267 l 261 222 l 478 164 l 424 -39 m 254 468 l 254 376 l 336 399 l 254 468 m 31 844 l 25 947 l 467 1004 l 474 871 l 31 844 z "},"ę":{"ha":554,"x_min":21,"x_max":533,"o":"m 424 -39 l 21 71 l 44 160 l 44 544 l 165 544 l 140 565 l 275 726 l 533 507 l 399 347 l 421 267 l 261 222 l 478 164 l 424 -39 m 254 468 l 254 376 l 336 399 l 254 468 m 421 -112 l 442 -175 q 339 -201 393 -201 q 209 -159 267 -201 q 129 -51 151 -117 l 129 -51 l 129 -51 l 207 72 l 256 40 l 215 -24 q 292 -89 246 -64 q 394 -114 339 -114 q 408 -114 401 -114 q 421 -112 415 -114 z "},"f":{"ha":449,"x_min":21,"x_max":428,"o":"m 257 3 l 47 61 l 47 642 l 161 642 l 21 656 l 40 864 l 428 828 l 408 618 l 257 632 l 257 486 l 360 486 l 333 335 l 257 335 l 257 3 z "},"g":{"ha":621,"x_min":21,"x_max":600,"o":"m 36 246 l 36 544 l 146 544 l 188 708 l 600 600 l 547 396 l 519 403 l 519 -107 l 519 -107 l 464 -310 l 78 -204 l 133 0 l 310 -49 l 310 85 l 286 -4 l 21 68 l 68 246 l 36 246 m 246 246 l 167 246 l 310 207 l 310 460 l 246 476 l 246 246 z "},"ğ":{"ha":621,"x_min":21,"x_max":600,"o":"m 36 246 l 36 544 l 146 544 l 188 708 l 600 600 l 547 396 l 519 403 l 519 -107 l 519 -107 l 464 -310 l 78 -204 l 133 0 l 310 -49 l 310 85 l 286 -4 l 21 68 l 68 246 l 36 246 m 246 246 l 167 246 l 310 207 l 310 460 l 246 476 l 246 246 m 515 915 l 560 850 q 490 821 532 836 q 414 806 447 806 q 256 858 325 806 q 160 990 188 910 l 264 1025 q 358 943 300 974 q 483 913 415 913 q 499 914 490 913 q 515 915 507 915 z "},"ģ":{"ha":621,"x_min":21,"x_max":600,"o":"m 36 246 l 36 544 l 146 544 l 188 708 l 600 600 l 547 396 l 519 403 l 519 -107 l 519 -107 l 464 -310 l 78 -204 l 133 0 l 310 -49 l 310 85 l 286 -4 l 21 68 l 68 246 l 36 246 m 246 246 l 167 246 l 310 207 l 310 460 l 246 476 l 246 246 m 353 1117 l 422 1069 l 361 933 l 424 933 l 424 806 l 247 806 l 247 844 l 194 879 l 353 1117 z "},"ġ":{"ha":621,"x_min":21,"x_max":600,"o":"m 36 246 l 36 544 l 146 544 l 188 708 l 600 600 l 547 396 l 519 403 l 519 -107 l 519 -107 l 464 -310 l 78 -204 l 133 0 l 310 -49 l 310 85 l 286 -4 l 21 68 l 68 246 l 36 246 m 246 246 l 167 246 l 310 207 l 310 460 l 246 476 l 246 246 m 397 808 l 192 865 l 232 1010 l 438 953 l 397 808 z "},"h":{"ha":619,"x_min":21,"x_max":608,"o":"m 286 -4 l 21 68 l 75 271 l 96 265 l 96 804 l 306 889 l 306 590 l 333 694 l 608 619 l 588 540 l 588 85 l 378 0 l 378 465 l 306 485 l 306 208 l 340 199 l 286 -4 z "},"ħ":{"ha":619,"x_min":17,"x_max":599,"o":"m 286 -4 l 21 68 l 75 271 l 96 265 l 96 699 l 40 690 l 17 839 l 96 851 l 96 888 l 306 972 l 306 886 l 386 900 l 410 751 l 306 735 l 306 590 l 333 694 l 599 622 l 578 542 l 588 542 l 588 85 l 378 0 l 378 465 l 306 485 l 306 208 l 340 199 l 286 -4 z "},"i":{"ha":340,"x_min":21,"x_max":319,"o":"m 265 0 l 21 67 l 64 228 l 64 458 l 21 469 l 75 672 l 319 606 l 274 433 l 274 215 l 319 203 l 265 0 m 251 697 l 46 754 l 86 899 l 292 842 l 251 697 z "},"ı":{"ha":340,"x_min":21,"x_max":319,"o":"m 265 0 l 21 67 l 64 228 l 64 458 l 21 469 l 75 672 l 319 606 l 274 433 l 274 215 l 319 203 l 265 0 z "},"í":{"ha":340,"x_min":10,"x_max":319,"o":"m 265 0 l 21 67 l 64 228 l 64 458 l 21 469 l 75 672 l 319 606 l 274 433 l 274 215 l 319 203 l 265 0 m 42 694 l 10 814 l 271 936 l 315 769 l 42 694 z "},"î":{"ha":340,"x_min":-6,"x_max":442,"o":"m 265 0 l 21 67 l 64 228 l 64 458 l 21 469 l 75 672 l 319 606 l 274 433 l 274 215 l 319 203 l 265 0 m 14 708 l -6 785 l 256 907 l 442 821 l 406 688 l 172 751 l 14 708 z "},"ï":{"ha":340,"x_min":-78,"x_max":404,"o":"m 265 0 l 21 67 l 64 228 l 64 458 l 21 469 l 75 672 l 319 606 l 274 433 l 274 215 l 319 203 l 265 0 m 163 694 l -78 763 l -39 907 l 147 856 l 161 907 l 404 840 l 363 694 l 178 747 l 163 694 z "},"ì":{"ha":340,"x_min":10,"x_max":319,"o":"m 265 0 l 21 67 l 64 228 l 64 458 l 21 469 l 75 672 l 319 606 l 274 433 l 274 215 l 319 203 l 265 0 m 283 694 l 10 769 l 54 936 l 315 814 l 283 694 z "},"ī":{"ha":340,"x_min":-62,"x_max":386,"o":"m 265 0 l 21 67 l 64 228 l 64 458 l 21 469 l 75 672 l 319 606 l 274 433 l 274 215 l 319 203 l 265 0 m -57 733 l -62 836 l 379 893 l 386 760 l -57 733 z "},"į":{"ha":340,"x_min":21,"x_max":375,"o":"m 265 0 l 21 67 l 64 228 l 64 458 l 21 469 l 75 672 l 319 606 l 274 433 l 274 215 l 319 203 l 265 0 m 251 697 l 46 754 l 86 899 l 292 842 l 251 697 m 354 -112 l 375 -175 q 272 -201 326 -201 q 142 -159 200 -201 q 63 -51 85 -117 l 63 -51 l 63 -51 l 140 72 l 189 40 l 149 -24 q 226 -89 179 -64 q 328 -114 272 -114 q 342 -114 335 -114 q 354 -112 349 -114 z "},"j":{"ha":340,"x_min":21,"x_max":319,"o":"m 64 -224 l 64 458 l 21 469 l 75 672 l 319 606 l 274 433 l 274 -172 l 64 -224 m 251 697 l 46 754 l 86 899 l 292 842 l 251 697 z "},"ȷ":{"ha":340,"x_min":21,"x_max":319,"o":"m 64 -224 l 64 458 l 21 469 l 75 672 l 319 606 l 274 433 l 274 -172 l 64 -224 z "},"k":{"ha":576,"x_min":21,"x_max":556,"o":"m 265 0 l 21 67 l 64 228 l 64 804 l 274 889 l 274 653 l 556 819 l 556 576 l 461 521 l 372 542 l 556 433 l 556 433 l 556 433 l 556 85 l 346 0 l 346 314 l 274 356 l 274 215 l 319 203 l 265 0 z "},"ķ":{"ha":576,"x_min":21,"x_max":556,"o":"m 265 0 l 21 67 l 64 228 l 64 804 l 274 889 l 274 653 l 556 819 l 556 576 l 461 521 l 372 542 l 556 433 l 556 433 l 556 433 l 556 85 l 346 0 l 346 314 l 274 356 l 274 215 l 319 203 l 265 0 m 242 -369 l 172 -321 l 294 -58 l 404 -135 l 242 -369 z "},"l":{"ha":326,"x_min":14,"x_max":313,"o":"m 258 0 l 14 67 l 57 228 l 57 864 l 267 915 l 267 215 l 313 203 l 258 0 z "},"ĺ":{"ha":326,"x_min":11,"x_max":317,"o":"m 258 0 l 14 67 l 57 228 l 57 864 l 267 915 l 267 215 l 313 203 l 258 0 m 43 972 l 11 1092 l 272 1214 l 317 1047 l 43 972 z "},"ľ":{"ha":326,"x_min":-58,"x_max":385,"o":"m 258 0 l 14 67 l 57 228 l 57 864 l 267 915 l 267 215 l 313 203 l 258 0 m -39 1171 l 169 1114 l 349 1186 l 385 1093 l 203 972 l -58 1094 l -39 1171 z "},"ļ":{"ha":326,"x_min":14,"x_max":313,"o":"m 258 0 l 14 67 l 57 228 l 57 864 l 267 915 l 267 215 l 313 203 l 258 0 m 117 -369 l 47 -321 l 169 -58 l 279 -135 l 117 -369 z "},"ł":{"ha":435,"x_min":21,"x_max":414,"o":"m 304 0 l 60 67 l 103 228 l 103 446 l 44 436 l 21 585 l 103 597 l 103 864 l 313 915 l 313 632 l 390 646 l 414 497 l 313 481 l 313 215 l 358 203 l 304 0 z "},"m":{"ha":938,"x_min":21,"x_max":917,"o":"m 265 0 l 21 67 l 64 228 l 64 458 l 21 469 l 75 672 l 292 613 l 314 694 l 592 618 l 613 694 l 917 611 l 871 439 l 871 215 l 917 203 l 863 0 l 618 67 l 661 228 l 661 464 l 585 485 l 572 439 l 572 215 l 618 203 l 564 0 l 319 67 l 363 228 l 363 464 l 288 485 l 274 433 l 274 215 l 319 203 l 265 0 z "},"n":{"ha":639,"x_min":21,"x_max":618,"o":"m 265 0 l 21 67 l 64 228 l 64 458 l 21 469 l 75 672 l 292 613 l 314 694 l 618 611 l 572 439 l 572 215 l 618 203 l 564 0 l 319 67 l 363 228 l 363 464 l 288 485 l 274 433 l 274 215 l 319 203 l 265 0 z "},"ń":{"ha":639,"x_min":21,"x_max":618,"o":"m 265 0 l 21 67 l 64 228 l 64 458 l 21 469 l 75 672 l 292 613 l 314 694 l 618 611 l 572 439 l 572 215 l 618 203 l 564 0 l 319 67 l 363 228 l 363 464 l 288 485 l 274 433 l 274 215 l 319 203 l 265 0 m 199 764 l 167 883 l 428 1006 l 472 839 l 199 764 z "},"ň":{"ha":639,"x_min":21,"x_max":618,"o":"m 265 0 l 21 67 l 64 228 l 64 458 l 21 469 l 75 672 l 292 613 l 314 694 l 618 611 l 572 439 l 572 215 l 618 203 l 564 0 l 319 67 l 363 228 l 363 464 l 288 485 l 274 433 l 274 215 l 319 203 l 265 0 m 117 963 l 325 906 l 504 978 l 540 885 l 358 764 l 97 886 l 117 963 z "},"ņ":{"ha":639,"x_min":21,"x_max":618,"o":"m 265 0 l 21 67 l 64 228 l 64 458 l 21 469 l 75 672 l 292 613 l 314 694 l 618 611 l 572 439 l 572 215 l 618 203 l 564 0 l 319 67 l 363 228 l 363 464 l 288 485 l 274 433 l 274 215 l 319 203 l 265 0 m 272 -369 l 203 -321 l 325 -58 l 435 -135 l 272 -369 z "},"ŋ":{"ha":639,"x_min":21,"x_max":618,"o":"m 265 0 l 21 67 l 64 228 l 64 458 l 21 469 l 75 672 l 292 613 l 314 694 l 618 611 l 572 439 l 572 -104 l 572 -104 l 572 -106 l 540 -222 l 269 -149 l 325 54 l 363 44 l 363 464 l 288 485 l 274 433 l 274 215 l 319 203 l 265 0 z "},"ñ":{"ha":639,"x_min":21,"x_max":618,"o":"m 265 0 l 21 67 l 64 228 l 64 458 l 21 469 l 75 672 l 292 613 l 314 694 l 618 611 l 572 439 l 572 215 l 618 203 l 564 0 l 319 67 l 363 228 l 363 464 l 288 485 l 274 433 l 274 215 l 319 203 l 265 0 m 161 761 l 107 838 l 260 990 l 422 914 l 532 993 l 586 917 l 433 764 l 239 818 l 161 761 z "},"o":{"ha":588,"x_min":19,"x_max":567,"o":"m 19 68 l 35 125 l 35 544 l 99 544 l 149 732 l 567 617 l 535 499 l 535 119 l 386 119 l 349 -21 l 19 68 m 244 225 l 325 203 l 325 465 l 244 488 l 244 225 z "},"ó":{"ha":588,"x_min":19,"x_max":567,"o":"m 19 68 l 35 125 l 35 544 l 99 544 l 149 732 l 567 617 l 535 499 l 535 119 l 386 119 l 349 -21 l 19 68 m 244 225 l 325 203 l 325 465 l 244 488 l 244 225 m 215 806 l 183 925 l 444 1047 l 489 881 l 215 806 z "},"ô":{"ha":588,"x_min":19,"x_max":615,"o":"m 19 68 l 35 125 l 35 544 l 99 544 l 149 732 l 567 617 l 535 499 l 535 119 l 386 119 l 349 -21 l 19 68 m 244 225 l 325 203 l 325 465 l 244 488 l 244 225 m 188 819 l 168 896 l 429 1018 l 615 932 l 579 799 l 346 863 l 188 819 z "},"ö":{"ha":588,"x_min":19,"x_max":578,"o":"m 19 68 l 35 125 l 35 544 l 99 544 l 149 732 l 567 617 l 535 499 l 535 119 l 386 119 l 349 -21 l 19 68 m 244 225 l 325 203 l 325 465 l 244 488 l 244 225 m 336 806 l 96 874 l 135 1018 l 321 967 l 335 1018 l 578 951 l 536 806 l 351 858 l 336 806 z "},"ò":{"ha":588,"x_min":19,"x_max":567,"o":"m 19 68 l 35 125 l 35 544 l 99 544 l 149 732 l 567 617 l 535 499 l 535 119 l 386 119 l 349 -21 l 19 68 m 244 225 l 325 203 l 325 465 l 244 488 l 244 225 m 457 806 l 183 881 l 228 1047 l 489 925 l 457 806 z "},"ő":{"ha":588,"x_min":19,"x_max":567,"o":"m 19 68 l 35 125 l 35 544 l 99 544 l 149 732 l 567 617 l 535 499 l 535 119 l 386 119 l 349 -21 l 19 68 m 244 225 l 325 203 l 325 465 l 244 488 l 244 225 m 382 804 l 313 853 l 435 1115 l 544 1039 l 382 804 m 199 804 l 129 853 l 251 1115 l 361 1039 l 199 804 z "},"ō":{"ha":588,"x_min":19,"x_max":567,"o":"m 19 68 l 35 125 l 35 544 l 99 544 l 149 732 l 567 617 l 535 499 l 535 119 l 386 119 l 349 -21 l 19 68 m 244 225 l 325 203 l 325 465 l 244 488 l 244 225 m 117 844 l 111 947 l 553 1004 l 560 871 l 117 844 z "},"ø":{"ha":589,"x_min":21,"x_max":568,"o":"m 21 68 l 36 125 l 36 544 l 100 544 l 150 732 l 336 681 l 461 808 l 568 703 l 501 635 l 568 617 l 536 499 l 536 119 l 388 119 l 350 -21 l 251 6 l 128 -118 l 22 -12 l 85 50 l 21 68 m 257 225 l 261 221 l 326 203 l 326 465 l 246 488 l 246 225 l 256 222 l 257 225 z "},"õ":{"ha":588,"x_min":19,"x_max":603,"o":"m 19 68 l 35 125 l 35 544 l 99 544 l 149 732 l 567 617 l 535 499 l 535 119 l 386 119 l 349 -21 l 19 68 m 244 225 l 325 203 l 325 465 l 244 488 l 244 225 m 178 803 l 124 879 l 276 1032 l 439 956 l 549 1035 l 603 958 l 450 806 l 256 860 l 178 803 z "},"œ":{"ha":835,"x_min":19,"x_max":814,"o":"m 19 68 l 35 125 l 35 544 l 99 544 l 149 732 l 567 617 l 535 499 l 535 119 l 386 119 l 349 -21 l 19 68 m 244 225 l 325 203 l 325 465 l 244 488 l 244 225 m 704 -39 l 301 71 l 325 160 l 325 544 l 446 544 l 421 565 l 556 726 l 814 507 l 679 347 l 701 267 l 542 222 l 758 164 l 704 -39 m 535 468 l 535 376 l 617 399 l 535 468 z "},"p":{"ha":639,"x_min":21,"x_max":618,"o":"m 64 -271 l 64 481 l 21 492 l 75 694 l 297 633 l 314 694 l 618 611 l 567 418 l 567 150 l 357 28 l 274 51 l 274 -219 l 64 -271 m 289 265 l 357 246 l 357 465 l 282 486 l 274 456 l 274 210 l 289 265 z "},"þ":{"ha":639,"x_min":21,"x_max":618,"o":"m 64 -271 l 64 744 l 21 756 l 75 958 l 319 892 l 274 719 l 274 543 l 314 694 l 618 611 l 567 418 l 567 150 l 357 28 l 274 51 l 274 -219 l 64 -271 m 289 265 l 357 246 l 357 465 l 274 488 l 274 210 l 289 265 z "},"q":{"ha":588,"x_min":21,"x_max":553,"o":"m 282 -1 l 21 69 l 35 122 l 35 544 l 99 544 l 149 732 l 553 621 l 519 499 l 519 -219 l 310 -271 l 310 110 l 282 -1 m 244 226 l 310 210 l 310 469 l 244 488 l 244 226 z "},"r":{"ha":475,"x_min":21,"x_max":461,"o":"m 265 0 l 21 67 l 64 228 l 64 458 l 21 469 l 75 672 l 279 617 l 294 672 l 461 626 l 407 424 l 274 460 l 274 215 l 319 203 l 265 0 z "},"ŕ":{"ha":475,"x_min":21,"x_max":461,"o":"m 265 0 l 21 67 l 64 228 l 64 458 l 21 469 l 75 672 l 279 617 l 294 672 l 461 626 l 407 424 l 274 460 l 274 215 l 319 203 l 265 0 m 117 764 l 85 883 l 346 1006 l 390 839 l 117 764 z "},"ř":{"ha":475,"x_min":15,"x_max":461,"o":"m 265 0 l 21 67 l 64 228 l 64 458 l 21 469 l 75 672 l 279 617 l 294 672 l 461 626 l 407 424 l 274 460 l 274 215 l 319 203 l 265 0 m 35 963 l 243 906 l 422 978 l 458 885 l 276 764 l 15 886 l 35 963 z "},"ŗ":{"ha":475,"x_min":21,"x_max":461,"o":"m 265 0 l 21 67 l 64 228 l 64 458 l 21 469 l 75 672 l 279 617 l 294 672 l 461 626 l 407 424 l 274 460 l 274 215 l 319 203 l 265 0 m 190 -369 l 121 -321 l 243 -58 l 353 -135 l 190 -369 z "},"s":{"ha":546,"x_min":7,"x_max":539,"o":"m 244 -3 l 28 56 l 128 246 l 378 178 l 263 342 l 153 265 l 7 475 l 168 611 l 168 611 l 325 743 l 539 686 l 438 496 l 204 560 l 307 413 l 415 489 l 506 360 l 492 207 l 438 161 l 438 161 l 244 -3 z "},"ś":{"ha":546,"x_min":7,"x_max":539,"o":"m 244 -3 l 28 56 l 128 246 l 378 178 l 263 342 l 153 265 l 7 475 l 168 611 l 168 611 l 325 743 l 539 686 l 438 496 l 204 560 l 307 413 l 415 489 l 506 360 l 492 207 l 438 161 l 438 161 l 244 -3 m 97 764 l 65 883 l 326 1006 l 371 839 l 97 764 z "},"š":{"ha":546,"x_min":-4,"x_max":539,"o":"m 244 -3 l 28 56 l 128 246 l 378 178 l 263 342 l 153 265 l 7 475 l 168 611 l 168 611 l 325 743 l 539 686 l 438 496 l 204 560 l 307 413 l 415 489 l 506 360 l 492 207 l 438 161 l 438 161 l 244 -3 m 15 963 l 224 906 l 403 978 l 439 885 l 257 764 l -4 886 l 15 963 z "},"ş":{"ha":546,"x_min":7,"x_max":539,"o":"m 244 -3 l 28 56 l 128 246 l 378 178 l 263 342 l 153 265 l 7 475 l 168 611 l 168 611 l 325 743 l 539 686 l 438 496 l 204 560 l 307 413 l 415 489 l 506 360 l 492 207 l 438 161 l 438 161 l 244 -3 m 411 -285 l 363 -285 l 349 -333 l 156 -281 l 188 -164 l 321 -226 l 321 -154 l 196 -96 l 196 -96 l 194 -96 l 194 40 l 243 40 l 243 -19 l 411 -65 l 411 -65 l 411 -285 z "},"ș":{"ha":546,"x_min":7,"x_max":539,"o":"m 244 -3 l 28 56 l 128 246 l 378 178 l 263 342 l 153 265 l 7 475 l 168 611 l 168 611 l 325 743 l 539 686 l 438 496 l 204 560 l 307 413 l 415 489 l 506 360 l 492 207 l 438 161 l 438 161 l 244 -3 m 226 -369 l 157 -321 l 279 -58 l 389 -135 l 226 -369 z "},"ß":{"ha":593,"x_min":21,"x_max":572,"o":"m 50 0 l 50 681 l 215 681 l 21 733 l 76 936 l 572 800 l 572 800 l 572 800 l 572 521 l 463 490 l 572 460 l 572 106 l 350 -24 l 274 -3 l 329 199 l 363 190 l 363 300 l 260 328 l 260 139 l 50 0 m 288 539 l 363 518 l 363 640 l 260 668 l 260 436 l 288 539 z "},"t":{"ha":383,"x_min":21,"x_max":363,"o":"m 286 0 l 42 67 l 85 228 l 85 588 l 21 593 l 40 801 l 85 797 l 85 881 l 294 881 l 294 778 l 363 771 l 343 563 l 294 567 l 294 242 l 197 242 l 340 203 l 286 0 z "},"ŧ":{"ha":383,"x_min":3,"x_max":371,"o":"m 286 0 l 42 67 l 85 228 l 85 421 l 3 433 l 14 501 l 85 489 l 85 588 l 21 593 l 40 801 l 85 797 l 85 881 l 294 881 l 294 778 l 363 771 l 343 563 l 294 567 l 294 454 l 371 442 l 360 375 l 294 386 l 294 242 l 197 242 l 340 203 l 286 0 z "},"ť":{"ha":383,"x_min":-58,"x_max":385,"o":"m 286 0 l 42 67 l 85 228 l 85 588 l 21 593 l 40 801 l 85 797 l 85 881 l 294 881 l 294 778 l 363 771 l 343 563 l 294 567 l 294 242 l 197 242 l 340 203 l 286 0 m -39 1157 l 169 1100 l 349 1172 l 385 1079 l 203 958 l -58 1081 l -39 1157 z "},"ţ":{"ha":383,"x_min":21,"x_max":363,"o":"m 286 0 l 42 67 l 85 228 l 85 588 l 21 593 l 40 801 l 85 797 l 85 881 l 294 881 l 294 778 l 363 771 l 343 563 l 294 567 l 294 242 l 197 242 l 340 203 l 286 0 m 347 -271 l 299 -271 l 285 -319 l 92 -267 l 124 -150 l 257 -212 l 257 -140 l 132 -82 l 132 -82 l 131 -82 l 131 54 l 179 54 l 179 -6 l 347 -51 l 347 -51 l 347 -271 z "},"ț":{"ha":383,"x_min":21,"x_max":363,"o":"m 286 0 l 42 67 l 85 228 l 85 588 l 21 593 l 40 801 l 85 797 l 85 881 l 294 881 l 294 778 l 363 771 l 343 563 l 294 567 l 294 242 l 197 242 l 340 203 l 286 0 m 144 -369 l 75 -321 l 197 -58 l 307 -135 l 144 -369 z "},"u":{"ha":639,"x_min":21,"x_max":618,"o":"m 325 -17 l 21 67 l 67 239 l 67 479 l 21 492 l 75 694 l 319 628 l 276 467 l 276 214 l 353 193 l 365 239 l 365 479 l 319 492 l 374 694 l 618 628 l 575 467 l 575 214 l 618 203 l 564 0 l 346 60 l 325 -17 z "},"ú":{"ha":639,"x_min":21,"x_max":618,"o":"m 325 -17 l 21 67 l 67 239 l 67 479 l 21 492 l 75 694 l 319 628 l 276 467 l 276 214 l 353 193 l 365 239 l 365 479 l 319 492 l 374 694 l 618 628 l 575 467 l 575 214 l 618 203 l 564 0 l 346 60 l 325 -17 m 199 764 l 167 883 l 428 1006 l 472 839 l 199 764 z "},"û":{"ha":639,"x_min":21,"x_max":618,"o":"m 325 -17 l 21 67 l 67 239 l 67 479 l 21 492 l 75 694 l 319 628 l 276 467 l 276 214 l 353 193 l 365 239 l 365 479 l 319 492 l 374 694 l 618 628 l 575 467 l 575 214 l 618 203 l 564 0 l 346 60 l 325 -17 m 171 778 l 151 854 l 413 976 l 599 890 l 563 757 l 329 821 l 171 778 z "},"ü":{"ha":639,"x_min":21,"x_max":618,"o":"m 325 -17 l 21 67 l 67 239 l 67 479 l 21 492 l 75 694 l 319 628 l 276 467 l 276 214 l 353 193 l 365 239 l 365 479 l 319 492 l 374 694 l 618 628 l 575 467 l 575 214 l 618 203 l 564 0 l 346 60 l 325 -17 m 319 764 l 79 832 l 118 976 l 304 925 l 318 976 l 561 910 l 519 764 l 335 817 l 319 764 z "},"ù":{"ha":639,"x_min":21,"x_max":618,"o":"m 325 -17 l 21 67 l 67 239 l 67 479 l 21 492 l 75 694 l 319 628 l 276 467 l 276 214 l 353 193 l 365 239 l 365 479 l 319 492 l 374 694 l 618 628 l 575 467 l 575 214 l 618 203 l 564 0 l 346 60 l 325 -17 m 440 764 l 167 839 l 211 1006 l 472 883 l 440 764 z "},"ű":{"ha":639,"x_min":21,"x_max":618,"o":"m 325 -17 l 21 67 l 67 239 l 67 479 l 21 492 l 75 694 l 319 628 l 276 467 l 276 214 l 353 193 l 365 239 l 365 479 l 319 492 l 374 694 l 618 628 l 575 467 l 575 214 l 618 203 l 564 0 l 346 60 l 325 -17 m 365 763 l 296 811 l 418 1074 l 528 997 l 365 763 m 182 763 l 113 811 l 235 1074 l 344 997 l 182 763 z "},"ū":{"ha":639,"x_min":21,"x_max":618,"o":"m 325 -17 l 21 67 l 67 239 l 67 479 l 21 492 l 75 694 l 319 628 l 276 467 l 276 214 l 353 193 l 365 239 l 365 479 l 319 492 l 374 694 l 618 628 l 575 467 l 575 214 l 618 203 l 564 0 l 346 60 l 325 -17 m 100 803 l 94 906 l 536 963 l 543 829 l 100 803 z "},"ų":{"ha":639,"x_min":21,"x_max":699,"o":"m 325 -17 l 21 67 l 67 239 l 67 479 l 21 492 l 75 694 l 319 628 l 276 467 l 276 214 l 353 193 l 365 239 l 365 479 l 319 492 l 374 694 l 618 628 l 575 467 l 575 214 l 618 203 l 564 0 l 346 60 l 325 -17 m 678 -112 l 699 -175 q 596 -201 650 -201 q 466 -159 524 -201 q 386 -51 408 -117 l 386 -51 l 386 -51 l 464 72 l 513 40 l 472 -24 q 549 -89 503 -64 q 651 -114 596 -114 q 665 -114 658 -114 q 678 -112 672 -114 z "},"ů":{"ha":639,"x_min":21,"x_max":618,"o":"m 325 -17 l 21 67 l 67 239 l 67 479 l 21 492 l 75 694 l 319 628 l 276 467 l 276 214 l 353 193 l 365 239 l 365 479 l 319 492 l 374 694 l 618 628 l 575 467 l 575 214 l 618 203 l 564 0 l 346 60 l 325 -17 m 385 764 l 192 817 l 192 817 l 192 1036 l 240 1036 l 254 1086 l 447 1033 l 447 1033 l 447 814 l 399 814 l 385 764 m 282 906 l 357 871 l 357 944 l 282 979 l 282 906 z "},"v":{"ha":646,"x_min":21,"x_max":625,"o":"m 322 0 l 38 133 l 67 197 l 67 479 l 21 492 l 75 694 l 319 628 l 276 467 l 276 254 l 438 178 l 375 468 l 393 472 l 319 492 l 374 694 l 618 628 l 583 496 l 625 300 l 585 153 l 532 122 l 322 0 z "},"w":{"ha":894,"x_min":21,"x_max":874,"o":"m 521 -54 l 21 83 l 67 256 l 67 474 l 21 486 l 75 689 l 307 625 l 276 513 l 276 231 l 353 210 l 365 256 l 365 474 l 319 486 l 374 689 l 606 625 l 575 513 l 575 231 l 664 207 l 664 404 l 625 622 l 832 661 l 874 415 l 874 149 l 874 149 l 819 -54 l 542 22 l 521 -54 z "},"ẃ":{"ha":894,"x_min":21,"x_max":874,"o":"m 521 -54 l 21 83 l 67 256 l 67 474 l 21 486 l 75 689 l 307 625 l 276 513 l 276 231 l 353 210 l 365 256 l 365 474 l 319 486 l 374 689 l 606 625 l 575 513 l 575 231 l 664 207 l 664 404 l 625 622 l 832 661 l 874 415 l 874 149 l 874 149 l 819 -54 l 542 22 l 521 -54 m 326 764 l 294 883 l 556 1006 l 600 839 l 326 764 z "},"ŵ":{"ha":894,"x_min":21,"x_max":874,"o":"m 521 -54 l 21 83 l 67 256 l 67 474 l 21 486 l 75 689 l 307 625 l 276 513 l 276 231 l 353 210 l 365 256 l 365 474 l 319 486 l 374 689 l 606 625 l 575 513 l 575 231 l 664 207 l 664 404 l 625 622 l 832 661 l 874 415 l 874 149 l 874 149 l 819 -54 l 542 22 l 521 -54 m 299 778 l 279 854 l 540 976 l 726 890 l 690 757 l 457 821 l 299 778 z "},"ẅ":{"ha":894,"x_min":21,"x_max":874,"o":"m 521 -54 l 21 83 l 67 256 l 67 474 l 21 486 l 75 689 l 307 625 l 276 513 l 276 231 l 353 210 l 365 256 l 365 474 l 319 486 l 374 689 l 606 625 l 575 513 l 575 231 l 664 207 l 664 404 l 625 622 l 832 661 l 874 415 l 874 149 l 874 149 l 819 -54 l 542 22 l 521 -54 m 447 764 l 207 832 l 246 976 l 432 925 l 446 976 l 689 910 l 647 764 l 463 817 l 447 764 z "},"ẁ":{"ha":894,"x_min":21,"x_max":874,"o":"m 521 -54 l 21 83 l 67 256 l 67 474 l 21 486 l 75 689 l 307 625 l 276 513 l 276 231 l 353 210 l 365 256 l 365 474 l 319 486 l 374 689 l 606 625 l 575 513 l 575 231 l 664 207 l 664 404 l 625 622 l 832 661 l 874 415 l 874 149 l 874 149 l 819 -54 l 542 22 l 521 -54 m 568 764 l 294 839 l 339 1006 l 600 883 l 568 764 z "},"x":{"ha":778,"x_min":21,"x_max":757,"o":"m 221 0 l 218 1 l 21 93 l 111 283 l 168 257 l 249 349 l 171 438 l 115 411 l 25 601 l 224 693 l 225 694 l 225 693 l 225 694 l 226 692 l 389 508 l 551 692 l 553 694 l 553 693 l 553 694 l 554 693 l 753 601 l 663 411 l 607 438 l 529 349 l 610 257 l 667 283 l 757 93 l 560 1 l 557 0 l 389 190 l 221 0 z "},"y":{"ha":639,"x_min":21,"x_max":618,"o":"m 326 -6 l 21 78 l 67 257 l 67 479 l 21 492 l 75 694 l 319 628 l 276 467 l 276 225 l 365 203 l 365 479 l 319 492 l 374 694 l 618 628 l 575 467 l 575 -121 l 575 -121 l 522 -326 l 89 -208 l 140 -7 l 365 -65 l 365 149 l 326 -6 z "},"ý":{"ha":639,"x_min":21,"x_max":618,"o":"m 326 -6 l 21 78 l 67 257 l 67 479 l 21 492 l 75 694 l 319 628 l 276 467 l 276 225 l 365 203 l 365 479 l 319 492 l 374 694 l 618 628 l 575 467 l 575 -121 l 575 -121 l 522 -326 l 89 -208 l 140 -7 l 365 -65 l 365 149 l 326 -6 m 199 764 l 167 883 l 428 1006 l 472 839 l 199 764 z "},"ŷ":{"ha":639,"x_min":21,"x_max":618,"o":"m 326 -6 l 21 78 l 67 257 l 67 479 l 21 492 l 75 694 l 319 628 l 276 467 l 276 225 l 365 203 l 365 479 l 319 492 l 374 694 l 618 628 l 575 467 l 575 -121 l 575 -121 l 522 -326 l 89 -208 l 140 -7 l 365 -65 l 365 149 l 326 -6 m 171 778 l 151 854 l 413 976 l 599 890 l 563 757 l 329 821 l 171 778 z "},"ÿ":{"ha":639,"x_min":21,"x_max":618,"o":"m 326 -6 l 21 78 l 67 257 l 67 479 l 21 492 l 75 694 l 319 628 l 276 467 l 276 225 l 365 203 l 365 479 l 319 492 l 374 694 l 618 628 l 575 467 l 575 -121 l 575 -121 l 522 -326 l 89 -208 l 140 -7 l 365 -65 l 365 149 l 326 -6 m 319 764 l 79 832 l 118 976 l 304 925 l 318 976 l 561 910 l 519 764 l 335 817 l 319 764 z "},"ỳ":{"ha":639,"x_min":21,"x_max":618,"o":"m 326 -6 l 21 78 l 67 257 l 67 479 l 21 492 l 75 694 l 319 628 l 276 467 l 276 225 l 365 203 l 365 479 l 319 492 l 374 694 l 618 628 l 575 467 l 575 -121 l 575 -121 l 522 -326 l 89 -208 l 140 -7 l 365 -65 l 365 149 l 326 -6 m 440 764 l 167 839 l 211 1006 l 472 883 l 440 764 z "},"z":{"ha":657,"x_min":21,"x_max":636,"o":"m 225 436 l 21 492 l 75 694 l 593 664 l 582 454 l 483 460 l 528 421 l 343 219 l 422 214 l 432 253 l 636 197 l 582 -4 l 582 -6 l 582 -6 l 582 -6 l 581 -6 l 64 25 l 75 235 l 75 235 l 75 235 l 290 471 l 235 475 l 225 436 z "},"ź":{"ha":657,"x_min":21,"x_max":636,"o":"m 225 436 l 21 492 l 75 694 l 593 664 l 582 454 l 483 460 l 528 421 l 343 219 l 422 214 l 432 253 l 636 197 l 582 -4 l 582 -6 l 582 -6 l 582 -6 l 581 -6 l 64 25 l 75 235 l 75 235 l 75 235 l 290 471 l 235 475 l 225 436 m 208 764 l 176 883 l 438 1006 l 482 839 l 208 764 z "},"ž":{"ha":657,"x_min":21,"x_max":636,"o":"m 225 436 l 21 492 l 75 694 l 593 664 l 582 454 l 483 460 l 528 421 l 343 219 l 422 214 l 432 253 l 636 197 l 582 -4 l 582 -6 l 582 -6 l 582 -6 l 581 -6 l 64 25 l 75 235 l 75 235 l 75 235 l 290 471 l 235 475 l 225 436 m 126 963 l 335 906 l 514 978 l 550 885 l 368 764 l 107 886 l 126 963 z "},"ż":{"ha":657,"x_min":21,"x_max":636,"o":"m 225 436 l 21 492 l 75 694 l 593 664 l 582 454 l 483 460 l 528 421 l 343 219 l 422 214 l 432 253 l 636 197 l 582 -4 l 582 -6 l 582 -6 l 582 -6 l 581 -6 l 64 25 l 75 235 l 75 235 l 75 235 l 290 471 l 235 475 l 225 436 m 418 767 l 213 824 l 253 968 l 458 911 l 418 767 z "},"ﬁ":{"ha":706,"x_min":21,"x_max":685,"o":"m 257 3 l 47 61 l 47 642 l 161 642 l 21 656 l 40 864 l 428 828 l 408 618 l 257 632 l 257 486 l 360 486 l 333 335 l 257 335 l 257 3 m 631 0 l 386 67 l 429 228 l 429 458 l 386 469 l 440 672 l 685 606 l 639 433 l 639 215 l 685 203 l 631 0 z "},"ﬂ":{"ha":693,"x_min":21,"x_max":672,"o":"m 257 3 l 47 61 l 47 642 l 161 642 l 21 656 l 40 864 l 428 828 l 408 618 l 257 632 l 257 486 l 360 486 l 333 335 l 257 335 l 257 3 m 618 0 l 374 67 l 417 228 l 417 864 l 626 915 l 626 215 l 672 203 l 618 0 z "},"ª":{"ha":621,"x_min":21,"x_max":600,"o":"m 286 -4 l 21 68 l 36 125 l 36 544 l 146 544 l 188 708 l 600 600 l 547 396 l 519 403 l 519 218 l 592 199 l 538 -4 l 303 60 l 286 -4 m 246 225 l 310 207 l 310 208 l 310 460 l 246 476 l 246 225 z "},"º":{"ha":588,"x_min":19,"x_max":567,"o":"m 19 68 l 35 125 l 35 544 l 99 544 l 149 732 l 567 617 l 535 499 l 535 119 l 386 119 l 349 -21 l 19 68 m 244 225 l 325 203 l 325 465 l 244 488 l 244 225 z "},"ء":{"ha":621,"x_min":21,"x_max":600,"o":"m 61 0 l 25 210 l 199 210 l 21 314 l 246 663 l 553 578 l 450 388 l 181 463 l 533 257 l 504 210 l 564 210 l 600 0 l 61 0 z "},"ا":{"ha":304,"x_min":-15,"x_max":283,"o":"m 39 -4 l 39 667 l -15 869 l 229 936 l 283 733 l 249 724 l 249 54 l 39 -4 z "},"ﺎ":{"ha":260,"x_min":14,"x_max":297,"o":"m 69 6 l 14 208 l 50 218 l 50 804 l 260 861 l 260 208 l 297 68 l 69 6 z "},"أ":{"ha":311,"x_min":-50,"x_max":283,"o":"m -31 806 l -50 883 l 39 907 l -42 929 l -18 1003 l -18 1003 l 7 1083 l 156 1081 l 136 999 l 6 1003 l 158 960 l 153 938 l 193 949 l 213 871 l -31 806 m 39 -4 l 39 549 l -15 751 l 229 818 l 283 615 l 249 606 l 249 54 l 39 -4 z "},"ﺄ":{"ha":260,"x_min":-3,"x_max":297,"o":"m 17 804 l -3 882 l 86 906 l 6 928 l 29 1001 l 29 1001 l 54 1082 l 203 1079 l 183 997 l 53 1001 l 206 958 l 200 936 l 240 947 l 260 869 l 17 804 m 69 6 l 14 208 l 50 218 l 50 769 l 260 826 l 260 208 l 297 68 l 69 6 z "},"إ":{"ha":304,"x_min":-15,"x_max":288,"o":"m 39 -4 l 39 667 l -15 869 l 229 936 l 283 733 l 249 724 l 249 54 l 39 -4 m 211 -142 l 81 -139 l 233 -182 l 228 -204 l 268 -193 l 288 -271 l 44 -336 l 25 -258 l 114 -233 l 33 -211 l 57 -137 l 57 -137 l 82 -58 l 231 -61 l 211 -142 z "},"ﺈ":{"ha":260,"x_min":14,"x_max":297,"o":"m 69 6 l 14 208 l 50 218 l 50 804 l 260 861 l 260 208 l 297 68 l 69 6 m 61 -322 l 42 -249 l 126 -225 l 50 -204 l 72 -135 l 72 -135 l 97 -58 l 238 -61 l 219 -137 l 96 -135 l 240 -175 l 235 -196 l 272 -186 l 292 -260 l 61 -322 z "},"آ":{"ha":311,"x_min":-62,"x_max":283,"o":"m 110 831 l 108 832 l 29 854 l 17 811 l -62 838 l -26 956 l -25 956 l -25 956 l 21 943 l 53 935 l 53 933 l 93 922 l 179 958 l 225 885 l 110 831 m 39 -4 l 39 549 l -15 751 l 229 818 l 283 615 l 249 606 l 249 54 l 39 -4 z "},"ﺂ":{"ha":260,"x_min":-12,"x_max":297,"o":"m 160 829 l 158 831 l 79 853 l 67 810 l -12 836 l 24 954 l 25 954 l 25 954 l 71 942 l 103 933 l 103 932 l 143 921 l 229 957 l 275 883 l 160 829 m 69 6 l 14 208 l 50 218 l 50 769 l 260 826 l 260 208 l 297 68 l 69 6 z "},"ٱ":{"ha":360,"x_min":0,"x_max":332,"o":"m 43 811 l 7 888 l 38 894 l 6 964 l 44 964 l 0 976 l 26 1057 l 243 996 l 228 943 l 228 943 l 261 869 l 43 811 m 104 949 l 119 915 l 172 929 l 104 949 m 88 -4 l 88 549 l 33 751 l 278 818 l 332 615 l 297 606 l 297 54 l 88 -4 z "},"ﭑ":{"ha":260,"x_min":1,"x_max":297,"o":"m 44 810 l 8 886 l 39 893 l 7 963 l 46 963 l 1 975 l 28 1056 l 244 994 l 229 942 l 229 942 l 263 868 l 44 810 m 106 947 l 121 914 l 174 928 l 106 947 m 69 6 l 14 208 l 50 218 l 50 769 l 260 826 l 260 208 l 297 68 l 69 6 z "},"ٮ":{"ha":926,"x_min":21,"x_max":906,"o":"m 260 0 l 21 65 l 74 267 l 278 214 l 690 251 l 690 488 l 900 544 l 900 128 l 906 61 l 260 0 l 260 0 z "},"ب":{"ha":926,"x_min":21,"x_max":906,"o":"m 260 0 l 21 65 l 74 267 l 278 214 l 690 251 l 690 488 l 900 544 l 900 128 l 906 61 l 260 0 l 260 0 m 699 -175 l 672 -74 l 878 -18 l 904 -118 l 699 -175 z "},"ﺐ":{"ha":899,"x_min":21,"x_max":906,"o":"m 260 0 l 21 65 l 74 267 l 278 214 l 690 251 l 690 488 l 900 544 l 900 128 l 906 61 l 260 0 l 260 0 m 699 -175 l 672 -74 l 878 -18 l 904 -118 l 699 -175 z "},"ﺒ":{"ha":274,"x_min":-29,"x_max":311,"o":"m 25 -10 l -29 193 l 64 218 l 64 488 l 274 544 l 274 208 l 311 68 l 25 -10 m 69 -175 l 43 -74 l 249 -18 l 275 -118 l 69 -175 z "},"ﺑ":{"ha":311,"x_min":-29,"x_max":290,"o":"m 25 -10 l -29 193 l 65 219 l 65 488 l 275 544 l 275 119 l 290 63 l 25 -10 m 78 -175 l 51 -74 l 257 -18 l 283 -118 l 78 -175 z "},"پ":{"ha":926,"x_min":21,"x_max":906,"o":"m 260 0 l 21 65 l 74 267 l 278 214 l 690 251 l 690 488 l 900 544 l 900 128 l 906 61 l 260 0 l 260 0 m 775 -215 l 757 -146 l 651 -175 l 625 -74 l 831 -18 l 857 -118 l 857 -118 l 875 -187 l 775 -215 z "},"ﭗ":{"ha":899,"x_min":21,"x_max":906,"o":"m 260 0 l 21 65 l 74 267 l 278 214 l 690 251 l 690 488 l 900 544 l 900 128 l 906 61 l 260 0 l 260 0 m 775 -215 l 757 -146 l 651 -175 l 625 -74 l 831 -18 l 857 -118 l 857 -118 l 875 -187 l 775 -215 z "},"ﭙ":{"ha":274,"x_min":-29,"x_max":311,"o":"m 25 -10 l -29 193 l 64 218 l 64 488 l 274 544 l 274 208 l 311 68 l 25 -10 m 146 -215 l 128 -146 l 22 -175 l -4 -74 l 201 -18 l 228 -118 l 228 -118 l 246 -187 l 146 -215 z "},"ﭘ":{"ha":311,"x_min":-29,"x_max":290,"o":"m 25 -10 l -29 193 l 65 219 l 65 488 l 275 544 l 275 119 l 290 63 l 25 -10 m 154 -215 l 136 -146 l 31 -175 l 4 -74 l 210 -18 l 236 -118 l 236 -118 l 254 -187 l 154 -215 z "},"ت":{"ha":926,"x_min":21,"x_max":906,"o":"m 260 0 l 21 65 l 74 267 l 278 214 l 690 251 l 690 488 l 900 544 l 900 128 l 906 61 l 260 0 l 260 0 m 293 393 l 267 494 l 472 550 l 499 450 l 293 393 m 106 393 l 79 494 l 285 550 l 311 450 l 106 393 z "},"ﺖ":{"ha":899,"x_min":21,"x_max":906,"o":"m 260 0 l 21 65 l 74 267 l 278 214 l 690 251 l 690 488 l 900 544 l 900 128 l 906 61 l 260 0 l 260 0 m 293 393 l 267 494 l 472 550 l 499 450 l 293 393 m 106 393 l 79 494 l 285 550 l 311 450 l 106 393 z "},"ﺘ":{"ha":274,"x_min":-29,"x_max":311,"o":"m 25 -10 l -29 193 l 64 218 l 64 488 l 274 544 l 274 208 l 311 68 l 25 -10 m 63 701 l 36 803 l 242 858 l 268 758 l 63 701 m 63 561 l 36 663 l 242 718 l 268 618 l 63 561 z "},"ﺗ":{"ha":311,"x_min":-29,"x_max":290,"o":"m 25 -10 l -29 193 l 65 219 l 65 488 l 275 544 l 275 119 l 290 63 l 25 -10 m 64 701 l 38 803 l 243 858 l 269 758 l 64 701 m 64 561 l 38 663 l 243 718 l 269 618 l 64 561 z "},"ث":{"ha":926,"x_min":21,"x_max":906,"o":"m 260 0 l 21 65 l 74 267 l 278 214 l 690 251 l 690 488 l 900 544 l 900 128 l 906 61 l 260 0 l 260 0 m 306 428 l 288 497 l 182 468 l 156 569 l 361 625 l 388 525 l 388 525 l 406 456 l 306 428 z "},"ﺚ":{"ha":899,"x_min":21,"x_max":906,"o":"m 260 0 l 21 65 l 74 267 l 278 214 l 690 251 l 690 488 l 900 544 l 900 128 l 906 61 l 260 0 l 260 0 m 306 428 l 288 497 l 182 468 l 156 569 l 361 625 l 388 525 l 388 525 l 406 456 l 306 428 z "},"ﺜ":{"ha":274,"x_min":-29,"x_max":311,"o":"m 25 -10 l -29 193 l 64 218 l 64 488 l 274 544 l 274 208 l 311 68 l 25 -10 m 169 596 l 151 665 l 46 636 l 19 738 l 225 793 l 251 693 l 251 693 l 269 624 l 169 596 z "},"ﺛ":{"ha":311,"x_min":-29,"x_max":290,"o":"m 25 -10 l -29 193 l 65 219 l 65 488 l 275 544 l 275 119 l 290 63 l 25 -10 m 171 596 l 153 665 l 47 636 l 21 738 l 226 793 l 253 693 l 253 693 l 271 624 l 171 596 z "},"ٹ":{"ha":926,"x_min":21,"x_max":906,"o":"m 260 0 l 21 65 l 74 267 l 278 214 l 690 251 l 690 488 l 900 544 l 900 128 l 906 61 l 260 0 l 260 0 m 203 393 l 168 465 l 182 469 l 182 661 l 258 661 l 258 607 l 393 569 l 379 518 l 410 449 l 203 393 m 258 525 l 258 489 l 326 506 l 258 525 z "},"ﭧ":{"ha":899,"x_min":21,"x_max":906,"o":"m 260 0 l 21 65 l 74 267 l 278 214 l 690 251 l 690 488 l 900 544 l 900 128 l 906 61 l 260 0 l 260 0 m 203 393 l 168 465 l 182 469 l 182 661 l 258 661 l 258 607 l 393 569 l 379 518 l 410 449 l 203 393 m 258 525 l 258 489 l 326 506 l 258 525 z "},"ﭩ":{"ha":274,"x_min":-29,"x_max":311,"o":"m 25 -10 l -29 193 l 64 218 l 64 488 l 274 544 l 274 208 l 311 68 l 25 -10 m 67 561 l 32 633 l 46 638 l 46 829 l 122 829 l 122 775 l 257 738 l 243 686 l 274 617 l 67 561 m 122 693 l 122 657 l 190 674 l 122 693 z "},"ﭨ":{"ha":311,"x_min":-29,"x_max":290,"o":"m 25 -10 l -29 193 l 65 219 l 65 488 l 275 544 l 275 119 l 290 63 l 25 -10 m 68 561 l 33 633 l 47 638 l 47 829 l 124 829 l 124 775 l 258 738 l 244 686 l 275 617 l 68 561 m 124 693 l 124 657 l 192 674 l 124 693 z "},"ج":{"ha":792,"x_min":21,"x_max":771,"o":"m 76 7 l 76 7 l 76 7 l 76 7 l 21 213 l 608 267 l 131 313 l 150 521 l 733 467 l 717 275 l 771 72 l 315 29 l 390 -76 l 217 -196 l 76 7 l 76 7 m 501 -157 l 475 -56 l 681 0 l 707 -100 l 501 -157 z "},"ﺞ":{"ha":735,"x_min":21,"x_max":771,"o":"m 76 7 l 76 7 l 76 7 l 76 7 l 21 213 l 608 267 l 131 313 l 150 521 l 733 467 l 717 275 l 771 72 l 315 29 l 390 -76 l 217 -196 l 76 7 l 76 7 m 501 -157 l 475 -56 l 681 0 l 707 -100 l 501 -157 z "},"ﺠ":{"ha":679,"x_min":-29,"x_max":714,"o":"m 26 0 l -29 206 l 561 260 l 72 307 l 92 515 l 675 461 l 658 269 l 658 269 l 714 64 l 26 0 m 442 -157 l 415 -56 l 621 0 l 647 -100 l 442 -157 z "},"ﺟ":{"ha":735,"x_min":-29,"x_max":714,"o":"m 26 0 l -29 206 l 561 260 l 72 307 l 92 515 l 675 461 l 658 269 l 658 269 l 714 64 l 26 0 m 442 -157 l 415 -56 l 621 0 l 647 -100 l 442 -157 z "},"چ":{"ha":792,"x_min":21,"x_max":771,"o":"m 76 7 l 76 7 l 76 7 l 76 7 l 21 213 l 608 267 l 131 313 l 150 521 l 733 467 l 717 275 l 771 72 l 315 29 l 390 -76 l 217 -196 l 76 7 l 76 7 m 506 -99 l 497 4 l 607 14 l 607 14 l 710 24 l 718 -79 l 718 -79 l 724 -151 l 621 -161 l 615 -89 l 506 -99 z "},"ﭻ":{"ha":735,"x_min":21,"x_max":771,"o":"m 76 7 l 76 7 l 76 7 l 76 7 l 21 213 l 608 267 l 131 313 l 150 521 l 733 467 l 717 275 l 771 72 l 315 29 l 390 -76 l 217 -196 l 76 7 l 76 7 m 506 -99 l 497 4 l 607 14 l 607 14 l 710 24 l 718 -79 l 718 -79 l 724 -151 l 621 -161 l 615 -89 l 506 -99 z "},"ﭽ":{"ha":679,"x_min":-29,"x_max":714,"o":"m 26 0 l -29 206 l 561 260 l 72 307 l 92 515 l 675 461 l 658 269 l 658 269 l 714 64 l 26 0 m 407 -117 l 397 -14 l 506 -1 l 608 10 l 619 -93 l 618 -93 l 625 -165 l 522 -176 l 515 -104 l 407 -117 z "},"ﭼ":{"ha":735,"x_min":-29,"x_max":714,"o":"m 26 0 l -29 206 l 561 260 l 72 307 l 92 515 l 675 461 l 658 269 l 658 269 l 714 64 l 26 0 m 408 -112 l 400 -10 l 613 10 l 621 -93 l 621 -93 l 626 -164 l 522 -174 l 518 -103 l 408 -112 z "},"ح":{"ha":792,"x_min":21,"x_max":771,"o":"m 76 7 l 76 7 l 76 7 l 76 7 l 21 213 l 608 267 l 131 313 l 150 521 l 733 467 l 717 275 l 771 72 l 315 29 l 390 -76 l 217 -196 l 76 7 l 76 7 z "},"ﺢ":{"ha":735,"x_min":21,"x_max":771,"o":"m 76 7 l 76 7 l 76 7 l 76 7 l 21 213 l 608 267 l 131 313 l 150 521 l 733 467 l 717 275 l 771 72 l 315 29 l 390 -76 l 217 -196 l 76 7 l 76 7 z "},"ﺤ":{"ha":679,"x_min":-29,"x_max":714,"o":"m 26 0 l -29 206 l 561 260 l 72 307 l 92 515 l 675 461 l 658 269 l 658 269 l 714 64 l 26 0 z "},"ﺣ":{"ha":735,"x_min":-29,"x_max":714,"o":"m 26 0 l -29 206 l 561 260 l 72 307 l 92 515 l 675 461 l 658 269 l 658 269 l 714 64 l 26 0 z "},"خ":{"ha":792,"x_min":21,"x_max":771,"o":"m 735 538 l 522 554 l 529 657 l 742 642 l 735 538 m 76 7 l 76 7 l 76 7 l 76 7 l 21 213 l 608 267 l 131 313 l 150 521 l 733 467 l 717 275 l 771 72 l 315 29 l 390 -76 l 217 -196 l 76 7 l 76 7 z "},"ﺦ":{"ha":735,"x_min":21,"x_max":771,"o":"m 735 538 l 522 554 l 529 657 l 742 642 l 735 538 m 76 7 l 76 7 l 76 7 l 76 7 l 21 213 l 608 267 l 131 313 l 150 521 l 733 467 l 717 275 l 771 72 l 315 29 l 390 -76 l 217 -196 l 76 7 l 76 7 z "},"ﺨ":{"ha":679,"x_min":-29,"x_max":714,"o":"m 676 532 l 464 549 l 471 651 l 683 636 l 676 532 m 26 0 l -29 206 l 561 260 l 72 307 l 92 515 l 675 461 l 658 269 l 658 269 l 714 64 l 26 0 z "},"ﺧ":{"ha":735,"x_min":-29,"x_max":714,"o":"m 676 532 l 464 549 l 471 651 l 683 636 l 676 532 m 26 0 l -29 206 l 561 260 l 72 307 l 92 515 l 675 461 l 658 269 l 658 269 l 714 64 l 26 0 z "},"د":{"ha":517,"x_min":28,"x_max":489,"o":"m 47 19 l 28 229 l 274 251 l 274 488 l 483 544 l 483 128 l 489 61 l 47 19 z "},"ﺪ":{"ha":483,"x_min":28,"x_max":489,"o":"m 47 19 l 28 229 l 274 251 l 274 488 l 483 544 l 483 128 l 489 61 l 47 19 z "},"ذ":{"ha":517,"x_min":28,"x_max":489,"o":"m 47 19 l 28 229 l 274 251 l 274 488 l 483 544 l 483 128 l 489 61 l 47 19 m 276 536 l 250 638 l 456 693 l 482 593 l 276 536 z "},"ﺬ":{"ha":483,"x_min":28,"x_max":489,"o":"m 47 19 l 28 229 l 274 251 l 274 488 l 483 544 l 483 128 l 489 61 l 47 19 m 276 536 l 250 638 l 456 693 l 482 593 l 276 536 z "},"ڈ":{"ha":517,"x_min":28,"x_max":489,"o":"m 47 19 l 28 229 l 274 251 l 274 488 l 483 544 l 483 128 l 489 61 l 47 19 m 281 536 l 246 608 l 260 613 l 260 804 l 336 804 l 336 750 l 471 713 l 457 661 l 488 592 l 281 536 m 336 668 l 336 632 l 404 649 l 336 668 z "},"ﮉ":{"ha":483,"x_min":28,"x_max":489,"o":"m 47 19 l 28 229 l 274 251 l 274 488 l 483 544 l 483 128 l 489 61 l 47 19 m 281 536 l 246 608 l 260 613 l 260 804 l 336 804 l 336 750 l 471 713 l 457 661 l 488 592 l 281 536 m 336 668 l 336 632 l 404 649 l 336 668 z "},"ر":{"ha":251,"x_min":21,"x_max":231,"o":"m 21 -260 l 21 488 l 231 544 l 231 -203 l 21 -260 z "},"ﺮ":{"ha":231,"x_min":21,"x_max":231,"o":"m 21 -260 l 21 488 l 231 544 l 231 -203 l 21 -260 z "},"ز":{"ha":251,"x_min":-7,"x_max":231,"o":"m 21 -260 l 21 488 l 231 544 l 231 -203 l 21 -260 m 19 561 l -7 663 l 199 718 l 225 618 l 19 561 z "},"ﺰ":{"ha":231,"x_min":-7,"x_max":231,"o":"m 21 -260 l 21 488 l 231 544 l 231 -203 l 21 -260 m 19 561 l -7 663 l 199 718 l 225 618 l 19 561 z "},"ڑ":{"ha":251,"x_min":-11,"x_max":231,"o":"m 21 -260 l 21 488 l 231 544 l 231 -203 l 21 -260 m 24 561 l -11 633 l 3 638 l 3 829 l 79 829 l 79 775 l 214 738 l 200 686 l 231 617 l 24 561 m 79 693 l 79 657 l 147 674 l 79 693 z "},"ﮍ":{"ha":231,"x_min":-11,"x_max":231,"o":"m 21 -260 l 21 488 l 231 544 l 231 -203 l 21 -260 m 24 561 l -11 633 l 3 638 l 3 829 l 79 829 l 79 775 l 214 738 l 200 686 l 231 617 l 24 561 m 79 693 l 79 657 l 147 674 l 79 693 z "},"ژ":{"ha":251,"x_min":-24,"x_max":231,"o":"m 21 -260 l 21 488 l 231 544 l 231 -203 l 21 -260 m 126 596 l 108 665 l 3 636 l -24 738 l 182 793 l 208 693 l 208 693 l 226 624 l 126 596 z "},"ﮋ":{"ha":231,"x_min":-24,"x_max":231,"o":"m 21 -260 l 21 488 l 231 544 l 231 -203 l 21 -260 m 126 596 l 108 665 l 3 636 l -24 738 l 182 793 l 208 693 l 208 693 l 226 624 l 126 596 z "},"س":{"ha":1269,"x_min":28,"x_max":1242,"o":"m 267 -182 l 267 -182 l 28 -117 l 81 85 l 286 32 l 469 49 l 469 349 l 679 406 l 679 207 l 743 225 l 743 418 l 953 475 l 953 207 l 1017 225 l 1017 488 l 1226 544 l 1226 125 l 1242 68 l 976 -4 l 958 65 l 703 -4 l 683 68 l 679 68 l 679 64 l 699 -140 l 267 -182 l 267 -182 l 267 -182 l 267 -182 z "},"ﺲ":{"ha":1226,"x_min":28,"x_max":1242,"o":"m 267 -182 l 267 -182 l 28 -117 l 81 85 l 286 32 l 469 49 l 469 349 l 679 406 l 679 207 l 743 225 l 743 418 l 953 475 l 953 207 l 1017 225 l 1017 488 l 1226 544 l 1226 125 l 1242 68 l 976 -4 l 958 65 l 703 -4 l 683 68 l 679 68 l 679 64 l 699 -140 l 267 -182 l 267 -182 l 267 -182 l 267 -182 z "},"ﺴ":{"ha":821,"x_min":-31,"x_max":836,"o":"m 24 -4 l -31 199 l 64 225 l 64 349 l 274 406 l 274 207 l 338 225 l 338 418 l 547 475 l 547 207 l 611 225 l 611 488 l 821 544 l 821 125 l 836 68 l 571 -4 l 553 65 l 297 -4 l 279 65 l 24 -4 z "},"ﺳ":{"ha":864,"x_min":-31,"x_max":836,"o":"m 24 -4 l -31 199 l 64 225 l 64 349 l 274 406 l 274 207 l 338 225 l 338 418 l 547 475 l 547 207 l 611 225 l 611 488 l 821 544 l 821 125 l 836 68 l 571 -4 l 553 65 l 297 -4 l 279 65 l 24 -4 z "},"ش":{"ha":1269,"x_min":28,"x_max":1242,"o":"m 267 -182 l 267 -182 l 28 -117 l 81 85 l 286 32 l 469 49 l 469 349 l 679 406 l 679 207 l 743 225 l 743 418 l 953 475 l 953 207 l 1017 225 l 1017 488 l 1226 544 l 1226 125 l 1242 68 l 976 -4 l 958 65 l 703 -4 l 683 68 l 679 68 l 679 64 l 699 -140 l 267 -182 l 267 -182 l 267 -182 l 267 -182 m 854 563 l 836 632 l 731 603 l 704 704 l 910 760 l 936 660 l 936 660 l 954 590 l 854 563 z "},"ﺶ":{"ha":1226,"x_min":28,"x_max":1242,"o":"m 267 -182 l 267 -182 l 28 -117 l 81 85 l 286 32 l 469 49 l 469 349 l 679 406 l 679 207 l 743 225 l 743 418 l 953 475 l 953 207 l 1017 225 l 1017 488 l 1226 544 l 1226 125 l 1242 68 l 976 -4 l 958 65 l 703 -4 l 683 68 l 679 68 l 679 64 l 699 -140 l 267 -182 l 267 -182 l 267 -182 l 267 -182 m 854 563 l 836 632 l 731 603 l 704 704 l 910 760 l 936 660 l 936 660 l 954 590 l 854 563 z "},"ﺸ":{"ha":821,"x_min":-31,"x_max":836,"o":"m 24 -4 l -31 199 l 64 225 l 64 349 l 274 406 l 274 207 l 338 225 l 338 418 l 547 475 l 547 207 l 611 225 l 611 488 l 821 544 l 821 125 l 836 68 l 571 -4 l 553 65 l 297 -4 l 279 65 l 24 -4 m 449 563 l 431 632 l 325 603 l 299 704 l 504 760 l 531 660 l 531 660 l 549 590 l 449 563 z "},"ﺷ":{"ha":864,"x_min":-31,"x_max":836,"o":"m 24 -4 l -31 199 l 64 225 l 64 349 l 274 406 l 274 207 l 338 225 l 338 418 l 547 475 l 547 207 l 611 225 l 611 488 l 821 544 l 821 125 l 836 68 l 571 -4 l 553 65 l 297 -4 l 279 65 l 24 -4 m 449 563 l 431 632 l 325 603 l 299 704 l 504 760 l 531 660 l 531 660 l 549 590 l 449 563 z "},"ص":{"ha":1440,"x_min":21,"x_max":1419,"o":"m 260 -182 l 260 -182 l 21 -117 l 74 85 l 279 32 l 463 49 l 463 404 l 672 461 l 672 211 l 724 217 l 724 318 l 724 318 l 742 526 l 1381 467 l 1364 275 l 1419 71 l 700 4 l 683 69 l 672 68 l 672 64 l 692 -140 l 260 -182 l 260 -182 l 260 -182 l 260 -182 m 933 297 l 933 236 l 1260 267 l 933 297 z "},"ﺺ":{"ha":1368,"x_min":21,"x_max":1419,"o":"m 260 -182 l 260 -182 l 21 -117 l 74 85 l 279 32 l 463 49 l 463 404 l 672 461 l 672 211 l 724 217 l 724 318 l 724 318 l 742 526 l 1381 467 l 1364 275 l 1419 71 l 700 4 l 683 69 l 672 68 l 672 64 l 692 -140 l 260 -182 l 260 -182 l 260 -182 l 260 -182 m 933 297 l 933 236 l 1260 267 l 933 297 z "},"ﺼ":{"ha":965,"x_min":-29,"x_max":1017,"o":"m 25 -21 l -29 183 l 61 192 l 61 404 l 271 461 l 271 213 l 322 217 l 322 318 l 322 318 l 340 526 l 979 467 l 963 275 l 1017 72 l 25 -21 m 532 297 l 532 236 l 856 267 l 532 297 z "},"ﺻ":{"ha":1038,"x_min":-29,"x_max":1017,"o":"m 25 -21 l -29 183 l 61 192 l 61 404 l 271 461 l 271 213 l 322 217 l 322 318 l 322 318 l 340 526 l 979 467 l 963 275 l 1017 72 l 25 -21 m 532 297 l 532 236 l 856 267 l 532 297 z "},"ض":{"ha":1440,"x_min":21,"x_max":1419,"o":"m 260 -182 l 260 -182 l 21 -117 l 74 85 l 279 32 l 463 49 l 463 404 l 672 461 l 672 211 l 724 217 l 724 318 l 724 318 l 742 526 l 1381 467 l 1364 275 l 1419 71 l 700 4 l 683 69 l 672 68 l 672 64 l 692 -140 l 260 -182 l 260 -182 l 260 -182 l 260 -182 m 933 297 l 933 236 l 1260 267 l 933 297 m 1038 536 l 1011 638 l 1217 693 l 1243 593 l 1038 536 z "},"ﺾ":{"ha":1368,"x_min":21,"x_max":1419,"o":"m 260 -182 l 260 -182 l 21 -117 l 74 85 l 279 32 l 463 49 l 463 404 l 672 461 l 672 211 l 724 217 l 724 318 l 724 318 l 742 526 l 1381 467 l 1364 275 l 1419 71 l 700 4 l 683 69 l 672 68 l 672 64 l 692 -140 l 260 -182 l 260 -182 l 260 -182 l 260 -182 m 933 297 l 933 236 l 1260 267 l 933 297 m 1038 536 l 1011 638 l 1217 693 l 1243 593 l 1038 536 z "},"ﻀ":{"ha":965,"x_min":-29,"x_max":1017,"o":"m 25 -21 l -29 183 l 61 192 l 61 404 l 271 461 l 271 213 l 322 217 l 322 318 l 322 318 l 340 526 l 979 467 l 963 275 l 1017 72 l 25 -21 m 532 297 l 532 236 l 856 267 l 532 297 m 636 536 l 610 638 l 815 693 l 842 593 l 636 536 z "},"ﺿ":{"ha":1038,"x_min":-29,"x_max":1017,"o":"m 25 -21 l -29 183 l 61 192 l 61 404 l 271 461 l 271 213 l 322 217 l 322 318 l 322 318 l 340 526 l 979 467 l 963 275 l 1017 72 l 25 -21 m 532 297 l 532 236 l 856 267 l 532 297 m 636 536 l 610 638 l 815 693 l 842 593 l 636 536 z "},"ط":{"ha":1047,"x_min":21,"x_max":1026,"o":"m 75 -17 l 21 189 l 113 197 l 113 667 l 58 869 l 303 936 l 357 733 l 322 724 l 322 429 l 331 528 l 989 465 l 972 276 l 972 276 l 1026 74 l 75 -17 m 322 318 l 322 217 l 858 267 l 322 318 z "},"ﻂ":{"ha":974,"x_min":21,"x_max":1026,"o":"m 75 -17 l 21 189 l 113 197 l 113 667 l 58 869 l 303 936 l 357 733 l 322 724 l 322 429 l 331 528 l 989 465 l 972 276 l 972 276 l 1026 74 l 75 -17 m 322 318 l 322 217 l 858 267 l 322 318 z "},"ﻄ":{"ha":924,"x_min":-29,"x_max":976,"o":"m 25 -17 l -29 189 l 63 197 l 63 667 l 8 869 l 253 936 l 307 733 l 272 724 l 272 429 l 281 528 l 939 465 l 922 276 l 922 276 l 976 74 l 25 -17 m 272 318 l 272 217 l 808 267 l 272 318 z "},"ﻃ":{"ha":997,"x_min":-29,"x_max":976,"o":"m 25 -17 l -29 189 l 63 197 l 63 667 l 8 869 l 253 936 l 307 733 l 272 724 l 272 429 l 281 528 l 939 465 l 922 276 l 922 276 l 976 74 l 25 -17 m 272 318 l 272 217 l 808 267 l 272 318 z "},"ظ":{"ha":1047,"x_min":21,"x_max":1026,"o":"m 75 -17 l 21 189 l 113 197 l 113 667 l 58 869 l 303 936 l 357 733 l 322 724 l 322 429 l 331 528 l 989 465 l 972 276 l 972 276 l 1026 74 l 75 -17 m 829 551 l 617 568 l 624 671 l 836 656 l 829 551 m 322 318 l 322 217 l 858 267 l 322 318 z "},"ﻆ":{"ha":974,"x_min":21,"x_max":1026,"o":"m 75 -17 l 21 189 l 113 197 l 113 667 l 58 869 l 303 936 l 357 733 l 322 724 l 322 429 l 331 528 l 989 465 l 972 276 l 972 276 l 1026 74 l 75 -17 m 829 551 l 617 568 l 624 671 l 836 656 l 829 551 m 322 318 l 322 217 l 858 267 l 322 318 z "},"ﻈ":{"ha":924,"x_min":-29,"x_max":976,"o":"m 25 -17 l -29 189 l 63 197 l 63 667 l 8 869 l 253 936 l 307 733 l 272 724 l 272 429 l 281 528 l 939 465 l 922 276 l 922 276 l 976 74 l 25 -17 m 779 551 l 567 568 l 574 671 l 786 656 l 779 551 m 272 318 l 272 217 l 808 267 l 272 318 z "},"ﻇ":{"ha":997,"x_min":-29,"x_max":976,"o":"m 25 -17 l -29 189 l 63 197 l 63 667 l 8 869 l 253 936 l 307 733 l 272 724 l 272 429 l 281 528 l 939 465 l 922 276 l 922 276 l 976 74 l 25 -17 m 793 549 l 581 565 l 588 668 l 800 653 l 793 549 m 272 318 l 272 217 l 808 267 l 272 318 z "},"ع":{"ha":792,"x_min":21,"x_max":771,"o":"m 76 7 l 76 7 l 76 7 l 76 7 l 21 213 l 317 239 l 131 325 l 321 694 l 694 629 l 611 429 l 275 490 l 646 318 l 622 268 l 717 276 l 771 72 l 315 29 l 390 -76 l 217 -196 l 76 7 l 76 7 z "},"ﻊ":{"ha":728,"x_min":21,"x_max":771,"o":"m 76 7 l 76 7 l 76 7 l 76 7 l 21 213 l 317 239 l 131 325 l 321 694 l 694 629 l 614 435 l 714 389 l 657 271 l 717 276 l 771 72 l 315 29 l 390 -76 l 217 -196 l 76 7 l 76 7 m 274 490 l 483 393 l 510 447 l 274 490 z "},"ﻌ":{"ha":635,"x_min":-29,"x_max":706,"o":"m 26 8 l -29 214 l 238 239 l 51 325 l 242 694 l 615 629 l 535 435 l 635 389 l 578 271 l 650 278 l 706 74 l 26 8 m 194 490 l 404 393 l 431 447 l 194 490 z "},"ﻋ":{"ha":718,"x_min":-29,"x_max":697,"o":"m 26 6 l -29 211 l 279 239 l 93 325 l 283 694 l 657 629 l 574 429 l 238 490 l 608 318 l 585 268 l 643 274 l 697 68 l 26 6 z "},"غ":{"ha":792,"x_min":21,"x_max":771,"o":"m 76 7 l 76 7 l 76 7 l 76 7 l 21 213 l 317 239 l 131 325 l 321 694 l 694 629 l 611 429 l 275 490 l 646 318 l 622 268 l 717 276 l 771 72 l 315 29 l 390 -76 l 217 -196 l 76 7 l 76 7 m 322 717 l 296 818 l 501 874 l 528 774 l 322 717 z "},"ﻎ":{"ha":728,"x_min":21,"x_max":771,"o":"m 76 7 l 76 7 l 76 7 l 76 7 l 21 213 l 317 239 l 131 325 l 321 694 l 694 629 l 614 435 l 714 389 l 657 271 l 717 276 l 771 72 l 315 29 l 390 -76 l 217 -196 l 76 7 l 76 7 m 274 490 l 483 393 l 510 447 l 274 490 m 322 717 l 296 818 l 501 874 l 528 774 l 322 717 z "},"ﻐ":{"ha":635,"x_min":-29,"x_max":706,"o":"m 26 8 l -29 214 l 238 239 l 51 325 l 242 694 l 615 629 l 535 435 l 635 389 l 578 271 l 650 278 l 706 74 l 26 8 m 194 490 l 404 393 l 431 447 l 194 490 m 243 717 l 217 818 l 422 874 l 449 774 l 243 717 z "},"ﻏ":{"ha":718,"x_min":-29,"x_max":697,"o":"m 349 751 l 365 854 l 576 822 l 560 719 l 349 751 m 26 6 l -29 211 l 279 239 l 93 325 l 283 694 l 657 629 l 574 429 l 238 490 l 608 318 l 585 268 l 643 274 l 697 68 l 26 6 z "},"ف":{"ha":940,"x_min":28,"x_max":926,"o":"m 267 0 l 28 65 l 81 267 l 285 214 l 407 225 l 407 419 l 471 419 l 521 607 l 926 496 l 907 425 l 907 128 l 913 61 l 267 0 l 267 0 m 617 363 l 617 244 l 697 251 l 697 340 l 617 363 m 688 613 l 661 714 l 867 769 l 893 669 l 688 613 z "},"ﻒ":{"ha":907,"x_min":28,"x_max":926,"o":"m 267 0 l 28 65 l 81 267 l 285 214 l 407 225 l 407 419 l 471 419 l 521 607 l 926 496 l 907 425 l 907 128 l 913 61 l 267 0 l 267 0 m 617 363 l 617 244 l 697 251 l 697 340 l 617 363 m 688 613 l 661 714 l 867 769 l 893 669 l 688 613 z "},"ﻔ":{"ha":564,"x_min":-36,"x_max":583,"o":"m 19 0 l -36 206 l 64 215 l 64 410 l 128 410 l 178 597 l 583 486 l 564 415 l 564 115 l 581 53 l 19 0 m 274 353 l 274 235 l 354 242 l 354 331 l 274 353 m 344 603 l 318 704 l 524 760 l 550 660 l 344 603 z "},"ﻓ":{"ha":604,"x_min":-36,"x_max":583,"o":"m 19 0 l -36 206 l 64 215 l 64 410 l 128 410 l 178 597 l 583 486 l 564 415 l 564 115 l 581 53 l 19 0 m 274 353 l 274 235 l 354 242 l 354 331 l 274 353 m 344 603 l 318 704 l 524 760 l 550 660 l 344 603 z "},"ڤ":{"ha":940,"x_min":28,"x_max":926,"o":"m 267 0 l 28 65 l 81 267 l 285 214 l 407 225 l 407 419 l 471 419 l 521 607 l 926 496 l 907 425 l 907 128 l 913 61 l 267 0 l 267 0 m 617 363 l 617 244 l 697 251 l 697 340 l 617 363 m 794 647 l 776 717 l 671 688 l 644 789 l 850 844 l 876 744 l 876 744 l 894 675 l 794 647 z "},"ﭫ":{"ha":907,"x_min":28,"x_max":926,"o":"m 267 0 l 28 65 l 81 267 l 285 214 l 407 225 l 407 419 l 471 419 l 521 607 l 926 496 l 907 425 l 907 128 l 913 61 l 267 0 l 267 0 m 617 363 l 617 244 l 697 251 l 697 340 l 617 363 m 794 647 l 776 717 l 671 688 l 644 789 l 850 844 l 876 744 l 876 744 l 894 675 l 794 647 z "},"ﭭ":{"ha":564,"x_min":-36,"x_max":583,"o":"m 19 0 l -36 206 l 64 215 l 64 410 l 128 410 l 178 597 l 583 486 l 564 415 l 564 115 l 581 53 l 19 0 m 274 353 l 274 235 l 354 242 l 354 331 l 274 353 m 451 638 l 433 707 l 328 678 l 301 779 l 507 835 l 533 735 l 533 735 l 551 665 l 451 638 z "},"ﭬ":{"ha":604,"x_min":-36,"x_max":583,"o":"m 19 0 l -36 206 l 64 215 l 64 410 l 128 410 l 178 597 l 583 486 l 564 415 l 564 115 l 581 53 l 19 0 m 274 353 l 274 235 l 354 242 l 354 331 l 274 353 m 451 638 l 433 707 l 328 678 l 301 779 l 507 835 l 533 735 l 533 735 l 551 665 l 451 638 z "},"ڡ":{"ha":940,"x_min":28,"x_max":926,"o":"m 267 0 l 28 65 l 81 267 l 285 214 l 407 225 l 407 419 l 471 419 l 521 607 l 926 496 l 907 425 l 907 128 l 913 61 l 267 0 l 267 0 m 617 363 l 617 244 l 697 251 l 697 340 l 617 363 z "},"ٯ":{"ha":713,"x_min":21,"x_max":692,"o":"m 260 -182 l 260 -182 l 21 -117 l 74 85 l 279 32 l 463 49 l 463 115 l 444 50 l 172 129 l 172 131 l 172 419 l 236 419 l 286 607 l 692 496 l 672 425 l 672 64 l 692 -140 l 260 -182 l 260 -182 l 260 -182 l 260 -182 m 382 231 l 463 208 l 463 340 l 382 363 l 382 231 z "},"ق":{"ha":713,"x_min":21,"x_max":692,"o":"m 260 -182 l 260 -182 l 21 -117 l 74 85 l 279 32 l 463 49 l 463 115 l 444 50 l 172 129 l 172 131 l 172 419 l 236 419 l 286 607 l 692 496 l 672 425 l 672 64 l 692 -140 l 260 -182 l 260 -182 l 260 -182 l 260 -182 m 382 231 l 463 208 l 463 340 l 382 363 l 382 231 m 443 631 l 417 732 l 622 788 l 649 688 l 443 631 m 256 631 l 229 732 l 435 788 l 461 688 l 256 631 z "},"ﻖ":{"ha":672,"x_min":21,"x_max":692,"o":"m 260 -182 l 260 -182 l 21 -117 l 74 85 l 279 32 l 463 49 l 463 115 l 444 50 l 172 129 l 172 131 l 172 419 l 236 419 l 286 607 l 692 496 l 672 425 l 672 64 l 692 -140 l 260 -182 l 260 -182 l 260 -182 l 260 -182 m 382 231 l 463 208 l 463 340 l 382 363 l 382 231 m 443 631 l 417 732 l 622 788 l 649 688 l 443 631 m 256 631 l 229 732 l 435 788 l 461 688 l 256 631 z "},"ﻘ":{"ha":538,"x_min":-36,"x_max":583,"o":"m 19 0 l -36 206 l 64 215 l 64 410 l 128 410 l 178 597 l 583 486 l 564 415 l 564 115 l 581 53 l 19 0 m 274 353 l 274 235 l 354 242 l 354 331 l 274 353 m 332 631 l 306 732 l 511 788 l 538 688 l 332 631 m 144 631 l 118 732 l 324 788 l 350 688 l 144 631 z "},"ﻗ":{"ha":604,"x_min":-36,"x_max":583,"o":"m 19 0 l -36 206 l 64 215 l 64 410 l 128 410 l 178 597 l 583 486 l 564 415 l 564 115 l 581 53 l 19 0 m 274 353 l 274 235 l 354 242 l 354 331 l 274 353 m 332 631 l 306 732 l 511 788 l 538 688 l 332 631 m 144 631 l 118 732 l 324 788 l 350 688 l 144 631 z "},"ك":{"ha":926,"x_min":21,"x_max":906,"o":"m 260 0 l 21 65 l 74 267 l 278 214 l 690 251 l 690 804 l 900 861 l 900 128 l 906 61 l 260 0 l 260 0 m 182 318 l 163 392 l 247 415 l 171 436 l 193 506 l 193 506 l 218 582 l 358 579 l 340 503 l 217 506 l 361 465 l 356 444 l 393 454 l 413 381 l 182 318 z "},"ﻚ":{"ha":900,"x_min":21,"x_max":906,"o":"m 260 0 l 21 65 l 74 267 l 278 214 l 690 251 l 690 804 l 900 861 l 900 128 l 906 61 l 260 0 l 260 0 m 182 318 l 163 392 l 247 415 l 171 436 l 193 506 l 193 506 l 218 582 l 358 579 l 340 503 l 217 506 l 361 465 l 356 444 l 393 454 l 413 381 l 182 318 z "},"ﻜ":{"ha":690,"x_min":-29,"x_max":729,"o":"m 26 0 l -29 206 l 576 261 l 68 310 l 85 489 l 69 488 l 38 665 l 329 707 l 322 747 l 575 782 l 614 564 l 607 563 l 210 507 l 693 461 l 675 269 l 729 67 l 26 0 z "},"ﻛ":{"ha":764,"x_min":-29,"x_max":729,"o":"m 26 0 l -29 206 l 576 261 l 68 310 l 85 489 l 69 488 l 38 665 l 329 707 l 322 747 l 575 782 l 614 564 l 607 563 l 210 507 l 693 461 l 675 269 l 729 67 l 26 0 z "},"ک":{"ha":983,"x_min":21,"x_max":963,"o":"m 260 0 l 258 0 l 21 65 l 74 267 l 282 213 l 810 261 l 301 310 l 318 489 l 303 488 l 271 665 l 563 707 l 556 747 l 808 782 l 847 564 l 840 563 l 443 507 l 926 461 l 908 269 l 963 67 l 260 0 z "},"ﮏ":{"ha":924,"x_min":21,"x_max":963,"o":"m 260 0 l 258 0 l 21 65 l 74 267 l 282 213 l 810 261 l 301 310 l 318 489 l 303 488 l 271 665 l 563 707 l 556 747 l 808 782 l 847 564 l 840 563 l 443 507 l 926 461 l 908 269 l 963 67 l 260 0 z "},"ﮑ":{"ha":690,"x_min":-29,"x_max":729,"o":"m 26 0 l -29 206 l 576 261 l 68 310 l 85 489 l 69 488 l 38 665 l 329 707 l 322 747 l 575 782 l 614 564 l 607 563 l 210 507 l 693 461 l 675 269 l 729 67 l 26 0 z "},"ﮐ":{"ha":764,"x_min":-29,"x_max":729,"o":"m 26 0 l -29 206 l 576 261 l 68 310 l 85 489 l 69 488 l 38 665 l 329 707 l 322 747 l 575 782 l 614 564 l 607 563 l 210 507 l 693 461 l 675 269 l 729 67 l 26 0 z "},"گ":{"ha":983,"x_min":21,"x_max":963,"o":"m 260 0 l 258 0 l 21 65 l 74 267 l 282 213 l 810 261 l 301 310 l 318 489 l 303 488 l 271 665 l 563 707 l 556 747 l 808 782 l 847 564 l 840 563 l 443 507 l 926 461 l 908 269 l 963 67 l 260 0 m 257 761 l 253 788 l 515 825 l 519 799 l 257 761 z "},"ﮓ":{"ha":924,"x_min":21,"x_max":963,"o":"m 260 0 l 258 0 l 21 65 l 74 267 l 282 213 l 810 261 l 301 310 l 318 489 l 303 488 l 271 665 l 563 707 l 556 747 l 808 782 l 847 564 l 840 563 l 443 507 l 926 461 l 908 269 l 963 67 l 260 0 m 257 761 l 253 788 l 515 825 l 519 799 l 257 761 z "},"ﮕ":{"ha":690,"x_min":-29,"x_max":729,"o":"m 26 764 l 22 790 l 285 828 l 289 801 l 26 764 m 26 0 l -29 206 l 576 261 l 68 310 l 85 489 l 69 488 l 38 665 l 329 707 l 322 747 l 575 782 l 614 564 l 607 563 l 210 507 l 693 461 l 675 269 l 729 67 l 26 0 z "},"ﮔ":{"ha":764,"x_min":-29,"x_max":729,"o":"m 26 0 l -29 206 l 576 261 l 68 310 l 85 489 l 69 488 l 38 665 l 329 707 l 322 747 l 575 782 l 614 564 l 607 563 l 210 507 l 693 461 l 675 269 l 729 67 l 26 0 m 24 761 l 19 788 l 282 825 l 286 799 l 24 761 z "},"ل":{"ha":714,"x_min":28,"x_max":686,"o":"m 267 -182 l 267 -182 l 28 -117 l 81 85 l 286 32 l 442 46 l 442 667 l 388 869 l 632 936 l 686 733 l 651 724 l 651 64 l 671 -143 l 267 -182 l 267 -182 l 267 -182 l 267 -182 z "},"ﻞ":{"ha":651,"x_min":28,"x_max":686,"o":"m 267 -182 l 267 -182 l 28 -117 l 81 85 l 286 32 l 442 46 l 442 667 l 388 869 l 632 936 l 686 733 l 651 724 l 651 64 l 671 -143 l 267 -182 l 267 -182 l 267 -182 l 267 -182 z "},"ﻠ":{"ha":274,"x_min":-31,"x_max":289,"o":"m 24 -10 l -31 193 l 64 219 l 64 804 l 274 861 l 274 119 l 289 63 l 24 -10 z "},"ﻟ":{"ha":317,"x_min":-31,"x_max":289,"o":"m 24 -10 l -31 193 l 64 219 l 64 804 l 274 861 l 274 119 l 289 63 l 24 -10 z "},"م":{"ha":646,"x_min":21,"x_max":625,"o":"m 21 -260 l 21 185 l 126 214 l 126 453 l 107 528 l 485 625 l 528 456 l 610 456 l 610 119 l 625 63 l 360 -10 l 343 54 l 231 24 l 231 -203 l 21 -260 m 336 201 l 400 219 l 400 388 l 336 371 l 336 203 l 336 201 z "},"ﻢ":{"ha":610,"x_min":21,"x_max":625,"o":"m 21 -260 l 21 185 l 126 214 l 126 453 l 107 528 l 485 625 l 528 456 l 610 456 l 610 119 l 625 63 l 360 -10 l 343 54 l 231 24 l 231 -203 l 21 -260 m 336 201 l 400 219 l 400 388 l 336 371 l 336 203 l 336 201 z "},"ﻤ":{"ha":546,"x_min":-29,"x_max":561,"o":"m 25 -15 l -29 188 l 63 213 l 63 453 l 43 528 l 421 625 l 464 456 l 546 456 l 546 119 l 561 63 l 296 -10 l 279 54 l 25 -15 m 272 201 l 336 219 l 336 388 l 272 371 l 272 203 l 272 201 z "},"ﻣ":{"ha":582,"x_min":-29,"x_max":561,"o":"m 25 -15 l -29 188 l 63 213 l 63 453 l 43 528 l 421 625 l 464 456 l 546 456 l 546 119 l 561 63 l 296 -10 l 279 54 l 25 -15 m 272 201 l 336 219 l 336 388 l 272 371 l 272 203 l 272 201 z "},"ن":{"ha":699,"x_min":28,"x_max":671,"o":"m 267 -182 l 267 -182 l 28 -117 l 81 85 l 286 32 l 442 46 l 442 488 l 651 544 l 651 64 l 671 -143 l 267 -182 l 267 -182 l 267 -182 l 267 -182 m 124 310 l 97 411 l 303 467 l 329 367 l 124 310 z "},"ﻦ":{"ha":651,"x_min":28,"x_max":671,"o":"m 267 -182 l 267 -182 l 28 -117 l 81 85 l 286 32 l 442 46 l 442 488 l 651 544 l 651 64 l 671 -143 l 267 -182 l 267 -182 l 267 -182 l 267 -182 m 124 310 l 97 411 l 303 467 l 329 367 l 124 310 z "},"ﻨ":{"ha":274,"x_min":-29,"x_max":311,"o":"m 25 -10 l -29 193 l 64 218 l 64 488 l 274 544 l 274 208 l 311 68 l 25 -10 m 63 561 l 36 663 l 242 718 l 268 618 l 63 561 z "},"ﻧ":{"ha":311,"x_min":-29,"x_max":290,"o":"m 25 -10 l -29 193 l 65 219 l 65 488 l 275 544 l 275 119 l 290 63 l 25 -10 m 64 561 l 38 663 l 243 718 l 269 618 l 64 561 z "},"ں":{"ha":699,"x_min":28,"x_max":671,"o":"m 267 -182 l 267 -182 l 28 -117 l 81 85 l 286 32 l 442 46 l 442 488 l 651 544 l 651 64 l 671 -143 l 267 -182 l 267 -182 l 267 -182 l 267 -182 z "},"ﮟ":{"ha":651,"x_min":28,"x_max":671,"o":"m 267 -182 l 267 -182 l 28 -117 l 81 85 l 286 32 l 442 46 l 442 488 l 651 544 l 651 64 l 671 -143 l 267 -182 l 267 -182 l 267 -182 l 267 -182 z "},"ه":{"ha":588,"x_min":21,"x_max":567,"o":"m 76 -21 l 21 181 l 21 181 l 21 313 l 178 540 l 282 467 l 257 558 l 501 625 l 556 422 l 521 413 l 521 286 l 567 114 l 76 -21 m 311 356 l 310 360 l 231 247 l 231 239 l 311 261 l 311 356 z "},"ﻪ":{"ha":567,"x_min":21,"x_max":604,"o":"m 76 -21 l 21 181 l 21 181 l 21 313 l 178 540 l 338 428 l 303 558 l 547 625 l 601 422 l 567 413 l 567 208 l 604 68 l 376 6 l 361 57 l 76 -21 m 357 356 l 343 407 l 231 247 l 231 239 l 357 274 l 357 356 z "},"ﻬ":{"ha":563,"x_min":-29,"x_max":615,"o":"m 29 -19 l -29 182 l 61 207 l 61 349 l 36 356 l 92 558 l 407 471 l 407 471 l 407 471 l 546 271 l 561 275 l 615 72 l 561 58 l 561 -46 l 407 -268 l 407 -268 l 407 -268 l 92 -356 l 36 -153 l 61 -146 l 61 -10 l 29 -19 m 271 292 l 271 196 l 331 213 l 276 289 l 271 292 m 271 -22 l 271 -89 l 276 -86 l 335 -4 l 271 -22 z "},"ﻫ":{"ha":864,"x_min":-32,"x_max":843,"o":"m 24 -14 l -32 189 l 61 214 l 61 344 l 218 572 l 322 499 l 297 590 l 542 657 l 583 503 l 686 576 l 843 349 l 843 349 l 843 349 l 843 132 l 407 11 l 386 85 l 24 -14 m 351 388 l 350 392 l 271 279 l 271 271 l 351 293 l 351 388 m 561 318 l 572 274 l 629 290 l 561 386 l 561 318 z "},"ہ":{"ha":588,"x_min":21,"x_max":567,"o":"m 76 -21 l 21 181 l 21 181 l 21 313 l 178 540 l 282 467 l 257 558 l 501 625 l 556 422 l 521 413 l 521 286 l 567 114 l 76 -21 m 311 356 l 310 360 l 231 247 l 231 239 l 311 261 l 311 356 z "},"ﮧ":{"ha":565,"x_min":21,"x_max":603,"o":"m 76 -21 l 21 182 l 21 182 l 21 182 l 21 296 l 22 296 l 21 297 l 142 472 l 142 472 l 546 583 l 600 381 l 565 371 l 565 208 l 603 68 l 375 6 l 319 208 l 356 218 l 356 314 l 272 290 l 232 233 l 285 36 l 76 -21 z "},"ﮩ":{"ha":563,"x_min":-29,"x_max":615,"o":"m 29 -19 l -29 182 l 217 250 l 271 47 l 271 47 l 271 -89 l 276 -86 l 351 19 l 351 97 l 321 210 l 554 274 l 561 276 l 561 274 l 615 72 l 561 58 l 561 -46 l 407 -268 l 407 -268 l 407 -268 l 92 -356 l 36 -153 l 61 -146 l 61 -10 l 29 -19 z "},"ﮨ":{"ha":311,"x_min":-29,"x_max":290,"o":"m 25 -10 l -29 193 l 65 219 l 65 488 l 275 544 l 275 119 l 290 63 l 25 -10 m 114 -43 l 203 -18 l 203 -119 l 257 -135 l 235 -214 l 114 -181 l 114 -181 l 114 -181 l 114 -43 z "},"ۂ":{"ha":588,"x_min":21,"x_max":567,"o":"m 76 -21 l 21 181 l 21 181 l 21 313 l 178 540 l 282 467 l 257 558 l 501 625 l 556 422 l 521 413 l 521 286 l 567 114 l 76 -21 m 311 356 l 310 360 l 231 247 l 231 239 l 311 261 l 311 356 m 172 617 l 153 690 l 238 714 l 161 735 l 183 804 l 183 804 l 208 881 l 349 878 l 331 801 l 207 804 l 351 764 l 346 743 l 383 753 l 403 679 l 172 617 z "},"ھ":{"ha":917,"x_min":21,"x_max":896,"o":"m 76 -14 l 21 189 l 114 214 l 114 344 l 271 572 l 375 499 l 350 590 l 594 657 l 636 503 l 739 576 l 896 349 l 896 349 l 896 349 l 896 132 l 460 11 l 439 85 l 76 -14 m 404 388 l 403 392 l 324 279 l 324 271 l 404 293 l 404 388 m 614 318 l 625 274 l 682 290 l 614 386 l 614 318 z "},"ﮫ":{"ha":613,"x_min":21,"x_max":665,"o":"m 79 -19 l 21 182 l 111 207 l 111 349 l 86 356 l 142 558 l 457 471 l 457 471 l 457 471 l 596 271 l 611 275 l 665 72 l 611 58 l 611 -46 l 457 -268 l 457 -268 l 457 -268 l 142 -356 l 86 -153 l 111 -146 l 111 -10 l 79 -19 m 321 292 l 321 196 l 381 213 l 326 289 l 321 292 m 321 -22 l 321 -89 l 326 -86 l 385 -4 l 321 -22 z "},"ﮭ":{"ha":843,"x_min":-32,"x_max":843,"o":"m 24 -14 l -32 189 l 61 214 l 61 344 l 218 572 l 322 499 l 297 590 l 542 657 l 583 503 l 686 576 l 843 349 l 843 349 l 843 349 l 843 132 l 407 11 l 386 85 l 24 -14 m 351 388 l 350 392 l 271 279 l 271 271 l 351 293 l 351 388 m 561 318 l 572 274 l 629 290 l 561 386 l 561 318 z "},"ﮬ":{"ha":864,"x_min":-32,"x_max":843,"o":"m 24 -14 l -32 189 l 61 214 l 61 344 l 218 572 l 322 499 l 297 590 l 542 657 l 583 503 l 686 576 l 843 349 l 843 349 l 843 349 l 843 132 l 407 11 l 386 85 l 24 -14 m 351 388 l 350 392 l 271 279 l 271 271 l 351 293 l 351 388 m 561 318 l 572 274 l 629 290 l 561 386 l 561 318 z "},"ة":{"ha":588,"x_min":21,"x_max":567,"o":"m 76 -21 l 21 181 l 21 181 l 21 313 l 178 540 l 282 467 l 257 558 l 501 625 l 556 422 l 521 413 l 521 286 l 567 114 l 76 -21 m 311 356 l 310 360 l 231 247 l 231 239 l 311 261 l 311 356 m 283 622 l 257 724 l 463 779 l 489 679 l 283 622 m 96 622 l 69 724 l 275 779 l 301 679 l 96 622 z "},"ﺔ":{"ha":567,"x_min":21,"x_max":604,"o":"m 76 -21 l 21 181 l 21 181 l 21 313 l 178 540 l 338 428 l 303 558 l 547 625 l 601 422 l 567 413 l 567 208 l 604 68 l 376 6 l 361 57 l 76 -21 m 357 356 l 343 407 l 231 247 l 231 239 l 357 274 l 357 356 m 329 622 l 303 724 l 508 779 l 535 679 l 329 622 m 142 622 l 115 724 l 321 779 l 347 679 l 142 622 z "},"ۃ":{"ha":588,"x_min":21,"x_max":567,"o":"m 76 -21 l 21 181 l 21 181 l 21 313 l 178 540 l 282 467 l 257 558 l 501 625 l 556 422 l 521 413 l 521 286 l 567 114 l 76 -21 m 311 356 l 310 360 l 231 247 l 231 239 l 311 261 l 311 356 m 283 622 l 257 724 l 463 779 l 489 679 l 283 622 m 96 622 l 69 724 l 275 779 l 301 679 l 96 622 z "},"و":{"ha":561,"x_min":21,"x_max":540,"o":"m 293 50 l 21 129 l 21 131 l 21 419 l 85 419 l 135 607 l 540 496 l 519 419 l 519 -203 l 310 -260 l 310 110 l 293 50 m 231 231 l 310 208 l 310 340 l 231 363 l 231 231 z "},"ﻮ":{"ha":519,"x_min":21,"x_max":540,"o":"m 293 50 l 21 129 l 21 131 l 21 419 l 85 419 l 135 607 l 540 496 l 519 419 l 519 -203 l 310 -260 l 310 110 l 293 50 m 231 231 l 310 208 l 310 340 l 231 363 l 231 231 z "},"ؤ":{"ha":561,"x_min":21,"x_max":540,"o":"m 293 50 l 21 129 l 21 131 l 21 419 l 85 419 l 135 607 l 540 496 l 519 419 l 519 -203 l 310 -260 l 310 110 l 293 50 m 231 231 l 310 208 l 310 340 l 231 363 l 231 231 m 224 618 l 204 692 l 289 715 l 213 736 l 235 806 l 235 806 l 260 882 l 400 879 l 382 803 l 258 806 l 403 765 l 397 744 l 435 754 l 454 681 l 224 618 z "},"ﺆ":{"ha":519,"x_min":21,"x_max":540,"o":"m 293 50 l 21 129 l 21 131 l 21 419 l 85 419 l 135 607 l 540 496 l 519 419 l 519 -203 l 310 -260 l 310 110 l 293 50 m 231 231 l 310 208 l 310 340 l 231 363 l 231 231 m 224 618 l 204 692 l 289 715 l 213 736 l 235 806 l 235 806 l 260 882 l 400 879 l 382 803 l 258 806 l 403 765 l 397 744 l 435 754 l 454 681 l 224 618 z "},"ى":{"ha":897,"x_min":21,"x_max":876,"o":"m 290 -190 l 289 -189 l 21 -117 l 74 85 l 317 22 l 613 49 l 613 53 l 422 106 l 421 106 l 421 106 l 421 106 l 421 108 l 421 419 l 478 419 l 522 583 l 828 499 l 774 296 l 631 335 l 631 265 l 819 214 l 822 214 l 822 68 l 822 68 l 876 -135 l 290 -190 z "},"ﻰ":{"ha":817,"x_min":21,"x_max":876,"o":"m 290 -190 l 289 -189 l 21 -117 l 74 85 l 317 22 l 613 49 l 613 53 l 421 106 l 475 308 l 819 214 l 822 214 l 822 213 l 831 211 l 822 178 l 822 68 l 822 68 l 876 -135 l 290 -190 z "},"ي":{"ha":897,"x_min":21,"x_max":876,"o":"m 290 -190 l 289 -189 l 21 -117 l 74 85 l 317 22 l 613 49 l 613 53 l 422 106 l 421 106 l 421 106 l 421 106 l 421 108 l 421 419 l 478 419 l 522 583 l 828 499 l 774 296 l 631 335 l 631 265 l 819 214 l 822 214 l 822 68 l 822 68 l 876 -135 l 290 -190 m 567 -401 l 540 -300 l 746 -244 l 772 -344 l 567 -401 m 379 -401 l 353 -300 l 558 -244 l 585 -344 l 379 -401 z "},"ﻲ":{"ha":817,"x_min":21,"x_max":876,"o":"m 290 -190 l 289 -189 l 21 -117 l 74 85 l 317 22 l 613 49 l 613 53 l 421 106 l 475 308 l 819 214 l 822 214 l 822 213 l 831 211 l 822 178 l 822 68 l 822 68 l 876 -135 l 290 -190 m 567 -401 l 540 -300 l 746 -244 l 772 -344 l 567 -401 m 379 -401 l 353 -300 l 558 -244 l 585 -344 l 379 -401 z "},"ﻴ":{"ha":274,"x_min":-29,"x_max":311,"o":"m 25 -10 l -29 193 l 64 218 l 64 488 l 274 544 l 274 208 l 311 68 l 25 -10 m 69 -175 l 43 -74 l 249 -18 l 275 -118 l 69 -175 m 69 -315 l 43 -214 l 249 -158 l 275 -258 l 69 -315 z "},"ﻳ":{"ha":311,"x_min":-29,"x_max":290,"o":"m 25 -10 l -29 193 l 65 219 l 65 488 l 275 544 l 275 119 l 290 63 l 25 -10 m 78 -175 l 51 -74 l 257 -18 l 283 -118 l 78 -175 m 78 -315 l 51 -214 l 257 -158 l 283 -258 l 78 -315 z "},"ئ":{"ha":897,"x_min":21,"x_max":876,"o":"m 290 -190 l 289 -189 l 21 -117 l 74 85 l 317 22 l 613 49 l 613 53 l 422 106 l 421 106 l 421 106 l 421 106 l 421 108 l 421 419 l 478 419 l 522 583 l 828 499 l 774 296 l 631 335 l 631 265 l 819 214 l 822 214 l 822 68 l 822 68 l 876 -135 l 290 -190 m 42 156 l 22 229 l 107 253 l 31 274 l 53 343 l 53 343 l 78 419 l 218 417 l 200 340 l 76 343 l 221 303 l 215 282 l 253 292 l 272 218 l 42 156 z "},"ﺊ":{"ha":817,"x_min":21,"x_max":876,"o":"m 290 -190 l 289 -189 l 21 -117 l 74 85 l 317 22 l 613 49 l 613 53 l 421 106 l 475 308 l 819 214 l 822 214 l 822 213 l 831 211 l 822 178 l 822 68 l 822 68 l 876 -135 l 290 -190 m 42 156 l 22 229 l 107 253 l 31 274 l 53 343 l 53 343 l 78 419 l 218 417 l 200 340 l 76 343 l 221 303 l 215 282 l 253 292 l 272 218 l 42 156 z "},"ﺌ":{"ha":274,"x_min":-29,"x_max":311,"o":"m 25 -10 l -29 193 l 64 218 l 64 488 l 274 544 l 274 208 l 311 68 l 25 -10 m 46 556 l 26 629 l 111 653 l 35 674 l 57 743 l 57 743 l 82 819 l 222 817 l 204 740 l 81 743 l 225 703 l 219 682 l 257 692 l 276 618 l 46 556 z "},"ﺋ":{"ha":311,"x_min":-29,"x_max":290,"o":"m 25 -10 l -29 193 l 65 219 l 65 488 l 275 544 l 275 119 l 290 63 l 25 -10 m 47 556 l 28 629 l 113 653 l 36 674 l 58 743 l 58 743 l 83 819 l 224 817 l 206 740 l 82 743 l 226 703 l 221 682 l 258 692 l 278 618 l 47 556 z "},"ی":{"ha":897,"x_min":21,"x_max":876,"o":"m 290 -190 l 289 -189 l 21 -117 l 74 85 l 317 22 l 613 49 l 613 53 l 422 106 l 421 106 l 421 106 l 421 106 l 421 108 l 421 419 l 478 419 l 522 583 l 828 499 l 774 296 l 631 335 l 631 265 l 819 214 l 822 214 l 822 68 l 822 68 l 876 -135 l 290 -190 z "},"ﯽ":{"ha":817,"x_min":21,"x_max":876,"o":"m 290 -190 l 289 -189 l 21 -117 l 74 85 l 317 22 l 613 49 l 613 53 l 421 106 l 475 308 l 819 214 l 822 214 l 822 213 l 831 211 l 822 178 l 822 68 l 822 68 l 876 -135 l 290 -190 z "},"ﯿ":{"ha":274,"x_min":-29,"x_max":311,"o":"m 25 -10 l -29 193 l 64 218 l 64 488 l 274 544 l 274 208 l 311 68 l 25 -10 m 69 -175 l 43 -74 l 249 -18 l 275 -118 l 69 -175 m 69 -315 l 43 -214 l 249 -158 l 275 -258 l 69 -315 z "},"ﯾ":{"ha":311,"x_min":-29,"x_max":290,"o":"m 25 -10 l -29 193 l 65 219 l 65 488 l 275 544 l 275 119 l 290 63 l 25 -10 m 78 -175 l 51 -74 l 257 -18 l 283 -118 l 78 -175 m 78 -315 l 51 -214 l 257 -158 l 283 -258 l 78 -315 z "},"ے":{"ha":818,"x_min":21,"x_max":797,"o":"m 649 -257 l 131 -208 l 74 6 l 74 6 l 57 69 l 21 206 l 28 206 l 743 272 l 797 68 l 267 18 l 275 -12 l 638 -46 l 726 -24 l 778 -221 l 649 -257 l 649 -256 l 649 -257 z "},"ﮯ":{"ha":754,"x_min":21,"x_max":797,"o":"m 649 -257 l 131 -208 l 74 6 l 74 6 l 57 69 l 21 206 l 28 206 l 743 272 l 797 68 l 267 18 l 275 -12 l 638 -46 l 726 -24 l 778 -221 l 649 -257 l 649 -256 l 649 -257 z "},"ۓ":{"ha":818,"x_min":21,"x_max":797,"o":"m 649 -257 l 131 -208 l 74 6 l 74 6 l 57 69 l 21 206 l 28 206 l 743 272 l 797 68 l 267 18 l 275 -12 l 638 -46 l 726 -24 l 778 -221 l 649 -257 l 649 -256 l 649 -257 m 63 283 l 43 357 l 128 381 l 51 401 l 74 471 l 74 471 l 99 547 l 239 544 l 221 468 l 97 471 l 242 431 l 236 410 l 274 419 l 293 346 l 63 283 z "},"ﮱ":{"ha":754,"x_min":21,"x_max":797,"o":"m 649 -257 l 131 -208 l 74 6 l 74 6 l 57 69 l 21 206 l 28 206 l 743 272 l 797 68 l 267 18 l 275 -12 l 638 -46 l 726 -24 l 778 -221 l 649 -257 l 649 -256 l 649 -257 m 63 283 l 43 357 l 128 381 l 51 401 l 74 471 l 74 471 l 99 547 l 239 544 l 221 468 l 97 471 l 242 431 l 236 410 l 274 419 l 293 346 l 63 283 z "},"ﻻ":{"ha":831,"x_min":21,"x_max":810,"o":"m 260 0 l 260 0 l 21 65 l 74 267 l 138 250 l 325 556 l 225 694 l 122 667 l 68 869 l 311 936 l 311 936 l 311 936 l 313 936 l 314 932 l 515 649 l 515 879 l 725 936 l 725 492 l 643 469 l 792 260 l 792 260 l 810 51 l 260 0 m 457 369 l 367 221 l 550 238 l 457 369 z "},"ﻼ":{"ha":553,"x_min":21,"x_max":568,"o":"m 75 1 l 21 204 l 69 218 l 69 638 l 279 694 l 279 208 l 281 201 l 343 219 l 343 879 l 553 936 l 553 119 l 568 63 l 303 -10 l 285 60 l 75 1 z "},"ﻷ":{"ha":831,"x_min":21,"x_max":810,"o":"m 260 0 l 260 0 l 21 65 l 74 267 l 138 250 l 325 556 l 225 694 l 122 667 l 68 869 l 311 936 l 311 936 l 311 936 l 313 936 l 314 932 l 515 649 l 515 879 l 725 936 l 725 492 l 643 469 l 792 260 l 792 260 l 810 51 l 260 0 m 457 369 l 367 221 l 550 238 l 457 369 m 53 925 l 33 999 l 118 1022 l 42 1043 l 64 1113 l 64 1113 l 89 1189 l 229 1186 l 211 1110 l 88 1113 l 232 1072 l 226 1051 l 264 1061 l 283 988 l 53 925 z "},"ﻸ":{"ha":553,"x_min":21,"x_max":568,"o":"m 75 1 l 21 204 l 69 218 l 69 638 l 279 694 l 279 208 l 281 201 l 343 219 l 343 879 l 553 936 l 553 119 l 568 63 l 303 -10 l 285 60 l 75 1 m 57 689 l 38 763 l 122 786 l 46 807 l 68 876 l 68 876 l 93 953 l 233 950 l 215 874 l 92 876 l 236 836 l 231 815 l 268 825 l 288 751 l 57 689 z "},"ﻹ":{"ha":831,"x_min":21,"x_max":810,"o":"m 260 0 l 260 0 l 21 65 l 74 267 l 138 250 l 325 556 l 225 694 l 122 667 l 68 869 l 311 936 l 311 936 l 311 936 l 313 936 l 314 932 l 515 649 l 515 879 l 725 936 l 725 492 l 643 469 l 792 260 l 792 260 l 810 51 l 260 0 m 457 369 l 367 221 l 550 238 l 457 369 m 94 -336 l 75 -262 l 160 -239 l 83 -218 l 106 -149 l 106 -149 l 131 -72 l 271 -75 l 253 -151 l 129 -149 l 274 -189 l 268 -210 l 306 -200 l 325 -274 l 94 -336 z "},"ﻺ":{"ha":553,"x_min":21,"x_max":568,"o":"m 75 1 l 21 204 l 69 218 l 69 638 l 279 694 l 279 208 l 281 201 l 343 219 l 343 879 l 553 936 l 553 119 l 568 63 l 303 -10 l 285 60 l 75 1 m 58 -336 l 39 -262 l 124 -239 l 47 -218 l 69 -149 l 69 -149 l 94 -72 l 235 -75 l 217 -151 l 93 -149 l 238 -189 l 232 -210 l 269 -200 l 289 -274 l 58 -336 z "},"ﻵ":{"ha":831,"x_min":21,"x_max":810,"o":"m 260 0 l 260 0 l 21 65 l 74 267 l 138 250 l 325 556 l 225 694 l 122 667 l 68 869 l 311 936 l 311 936 l 311 936 l 313 936 l 314 932 l 515 649 l 515 879 l 725 936 l 725 492 l 643 469 l 792 260 l 792 260 l 810 51 l 260 0 m 457 369 l 367 221 l 550 238 l 457 369 m 186 950 l 185 951 l 110 972 l 97 931 l 22 956 l 57 1068 l 57 1068 l 57 1068 l 101 1056 l 132 1047 l 132 1047 l 171 1036 l 251 1071 l 296 1001 l 186 950 z "},"ﻶ":{"ha":553,"x_min":21,"x_max":568,"o":"m 75 1 l 21 204 l 69 218 l 69 638 l 279 694 l 279 208 l 281 201 l 343 219 l 343 879 l 553 936 l 553 119 l 568 63 l 303 -10 l 285 60 l 75 1 m 190 714 l 189 715 l 114 736 l 101 694 l 26 719 l 61 832 l 61 832 l 61 832 l 106 819 l 136 811 l 136 811 l 175 800 l 256 835 l 300 765 l 190 714 z "},"¹":{"ha":386,"x_min":21,"x_max":365,"o":"m 311 0 l 67 67 l 110 228 l 110 510 l 21 533 l 75 736 l 319 669 l 319 215 l 365 203 l 311 0 z "},"²":{"ha":656,"x_min":21,"x_max":635,"o":"m 182 -19 l 21 117 l 346 496 l 274 503 l 274 449 l 64 397 l 64 524 l 64 524 l 83 731 l 635 679 l 615 469 l 600 471 l 392 226 l 628 204 l 608 -6 l 263 28 l 268 82 l 182 -19 z "},"³":{"ha":629,"x_min":21,"x_max":608,"o":"m 21 -4 l 106 196 l 443 135 l 254 222 l 164 411 l 464 550 l 126 489 l 43 689 l 417 754 l 608 385 l 504 338 l 586 300 l 396 -71 l 21 -4 z "},"⁴":{"ha":668,"x_min":21,"x_max":661,"o":"m 349 0 l 349 122 l 21 154 l 40 363 l 54 361 l 54 756 l 264 704 l 264 353 l 142 353 l 349 333 l 349 575 l 558 575 l 558 314 l 661 304 l 642 94 l 558 103 l 558 0 l 349 0 z "},"⁄":{"ha":736,"x_min":6,"x_max":731,"o":"m 231 -76 l 6 -76 l 507 851 l 731 851 l 231 -76 z "},"½":{"ha":1189,"x_min":28,"x_max":1161,"o":"m 271 422 l 67 478 l 103 613 l 103 846 l 28 867 l 74 1036 l 278 981 l 278 601 l 315 592 l 271 422 m 347 -76 l 122 -76 l 624 851 l 847 851 l 347 -76 m 685 167 l 685 272 l 686 272 l 701 446 l 1161 403 l 1144 228 l 1132 229 l 958 25 l 1156 7 l 1139 -168 l 851 -140 l 856 -96 l 783 -179 l 650 -67 l 919 250 l 860 256 l 860 210 l 685 167 z "},"¼":{"ha":1206,"x_min":28,"x_max":1178,"o":"m 271 422 l 67 478 l 103 613 l 103 846 l 28 867 l 74 1036 l 278 981 l 278 601 l 315 592 l 271 422 m 347 -76 l 122 -76 l 624 851 l 847 851 l 347 -76 m 917 -207 l 917 -104 l 644 -79 l 660 94 l 671 94 l 671 422 l 846 379 l 846 88 l 744 88 l 917 71 l 917 272 l 1092 272 l 1092 54 l 1178 46 l 1161 -128 l 1092 -121 l 1092 -207 l 917 -207 z "},"¾":{"ha":1390,"x_min":28,"x_max":1363,"o":"m 28 436 l 99 601 l 381 551 l 222 624 l 147 782 l 397 897 l 117 846 l 47 1013 l 358 1067 l 518 760 l 431 719 l 500 689 l 340 381 l 28 436 m 476 -76 l 251 -76 l 753 851 l 976 851 l 476 -76 m 1101 -207 l 1101 -104 l 829 -79 l 844 94 l 856 94 l 856 422 l 1031 379 l 1031 88 l 929 88 l 1101 71 l 1101 272 l 1276 272 l 1276 54 l 1363 46 l 1346 -128 l 1276 -121 l 1276 -207 l 1101 -207 z "},"٠":{"ha":368,"x_min":35,"x_max":333,"o":"m 279 221 l 35 288 l 89 490 l 333 424 l 279 221 z "},"١":{"ha":293,"x_min":42,"x_max":251,"o":"m 251 0 l 42 57 l 42 726 l 251 669 l 251 0 z "},"٢":{"ha":501,"x_min":24,"x_max":481,"o":"m 233 0 l 24 57 l 24 522 l 24 522 l 24 522 l 43 731 l 481 690 l 461 481 l 117 514 l 233 482 l 233 0 z "},"٣":{"ha":717,"x_min":21,"x_max":696,"o":"m 231 0 l 21 57 l 21 638 l 231 694 l 231 456 l 267 467 l 267 638 l 435 694 l 435 456 l 471 467 l 471 638 l 681 694 l 681 367 l 696 310 l 431 238 l 417 289 l 231 239 l 231 0 z "},"٤":{"ha":642,"x_min":35,"x_max":607,"o":"m 150 146 l 144 158 l 129 186 l 131 186 l 56 333 l 138 371 l 35 418 l 131 606 l 131 606 l 211 760 l 585 694 l 501 494 l 288 533 l 478 444 l 388 256 l 388 256 l 388 256 l 308 218 l 522 257 l 607 57 l 232 -10 l 151 146 l 150 146 z "},"٥":{"ha":621,"x_min":21,"x_max":600,"o":"m 38 239 l 154 678 l 158 714 l 600 672 l 585 507 l 585 199 l 581 199 l 585 199 l 565 -11 l 21 40 l 39 239 l 38 239 m 251 239 l 150 239 l 375 218 l 375 482 l 313 489 l 251 239 z "},"٦":{"ha":499,"x_min":21,"x_max":478,"o":"m 268 0 l 268 482 l 385 514 l 40 481 l 21 690 l 458 731 l 478 522 l 478 522 l 478 522 l 478 57 l 268 0 z "},"٧":{"ha":697,"x_min":21,"x_max":676,"o":"m 336 286 l 325 142 l 461 694 l 676 694 l 492 0 l 207 0 l 21 694 l 236 694 l 336 286 z "},"٨":{"ha":697,"x_min":21,"x_max":676,"o":"m 336 408 l 236 0 l 21 0 l 207 694 l 492 694 l 676 0 l 461 0 l 325 553 l 336 408 z "},"٩":{"ha":617,"x_min":21,"x_max":596,"o":"m 326 111 l 21 194 l 64 363 l 64 550 l 128 550 l 178 738 l 596 622 l 564 504 l 564 0 l 354 -51 l 354 221 l 326 111 m 274 343 l 354 322 l 354 471 l 274 493 l 274 343 z "},"۰":{"ha":340,"x_min":35,"x_max":333,"o":"m 279 221 l 35 288 l 89 490 l 333 424 l 279 221 z "},"۱":{"ha":251,"x_min":42,"x_max":251,"o":"m 251 0 l 42 57 l 42 726 l 251 669 l 251 0 z "},"۲":{"ha":499,"x_min":21,"x_max":478,"o":"m 231 0 l 21 57 l 21 522 l 21 522 l 21 522 l 40 731 l 478 690 l 458 481 l 114 514 l 231 482 l 231 0 z "},"۳":{"ha":717,"x_min":21,"x_max":696,"o":"m 231 0 l 21 57 l 21 638 l 231 694 l 231 456 l 267 467 l 267 638 l 435 694 l 435 456 l 471 467 l 471 638 l 681 694 l 681 367 l 696 310 l 431 238 l 417 289 l 231 239 l 231 0 z "},"۴":{"ha":717,"x_min":21,"x_max":696,"o":"m 231 0 l 21 57 l 21 638 l 231 694 l 231 456 l 303 476 l 303 649 l 303 649 l 303 649 l 506 704 l 533 600 l 435 572 l 435 456 l 642 513 l 696 310 l 431 238 l 417 289 l 231 239 l 231 0 z "},"۵":{"ha":621,"x_min":21,"x_max":600,"o":"m 38 239 l 154 678 l 158 714 l 600 672 l 585 507 l 585 199 l 581 199 l 585 199 l 565 -11 l 21 40 l 39 239 l 38 239 m 311 347 l 340 344 l 329 222 l 375 218 l 375 482 l 313 489 l 251 239 l 150 239 l 300 225 l 311 347 z "},"۶":{"ha":607,"x_min":22,"x_max":586,"o":"m 22 390 l 213 760 l 586 694 l 503 494 l 167 556 l 465 417 l 374 228 l 138 118 l 43 306 l 125 343 l 22 390 z "},"۷":{"ha":697,"x_min":21,"x_max":676,"o":"m 336 286 l 325 142 l 461 694 l 676 694 l 492 0 l 207 0 l 21 694 l 236 694 l 336 286 z "},"۸":{"ha":697,"x_min":21,"x_max":676,"o":"m 336 408 l 236 0 l 21 0 l 207 694 l 492 694 l 676 0 l 461 0 l 325 553 l 336 408 z "},"۹":{"ha":617,"x_min":21,"x_max":596,"o":"m 326 111 l 21 194 l 64 363 l 64 550 l 128 550 l 178 738 l 596 622 l 564 504 l 564 0 l 354 -51 l 354 221 l 326 111 m 274 343 l 354 322 l 354 471 l 274 493 l 274 343 z "},".":{"ha":290,"x_min":42,"x_max":263,"o":"m 221 -4 l 42 46 l 82 197 l 263 147 l 221 -4 z "},",":{"ha":304,"x_min":42,"x_max":263,"o":"m 263 151 l 233 43 l 188 -126 l 128 -111 l 163 17 l 42 50 l 82 201 l 263 151 z "},":":{"ha":304,"x_min":42,"x_max":263,"o":"m 221 385 l 42 435 l 82 586 l 263 536 l 221 385 m 221 0 l 42 50 l 82 201 l 263 151 l 221 0 z "},";":{"ha":304,"x_min":42,"x_max":263,"o":"m 263 151 l 233 43 l 188 -126 l 128 -111 l 163 17 l 42 50 l 82 201 l 263 151 m 221 381 l 42 431 l 82 582 l 263 532 l 221 381 z "},"…":{"ha":763,"x_min":42,"x_max":735,"o":"m 693 -4 l 514 46 l 554 197 l 735 147 l 693 -4 m 457 -4 l 278 46 l 318 197 l 499 147 l 457 -4 m 221 -4 l 42 46 l 82 197 l 263 147 l 221 -4 z "},"!":{"ha":317,"x_min":42,"x_max":275,"o":"m 68 269 l 54 839 l 264 839 l 250 269 l 68 269 m 232 3 l 42 56 l 83 215 l 275 163 l 232 3 z "},"¡":{"ha":317,"x_min":42,"x_max":275,"o":"m 232 613 l 275 453 l 83 400 l 42 560 l 232 613 m 68 346 l 250 346 l 264 -224 l 54 -224 l 68 346 z "},"?":{"ha":554,"x_min":21,"x_max":533,"o":"m 322 100 l 113 43 l 113 339 l 114 339 l 113 339 l 392 419 l 294 419 l 294 571 l 76 511 l 21 714 l 478 839 l 533 636 l 504 629 l 504 238 l 322 188 l 322 100 m 158 -140 l 125 -12 l 331 43 l 363 -83 l 158 -140 z "},"¿":{"ha":554,"x_min":21,"x_max":533,"o":"m 396 854 l 429 726 l 224 671 l 192 797 l 396 854 m 478 203 l 533 0 l 76 -125 l 21 78 l 50 85 l 50 476 l 232 526 l 232 614 l 442 671 l 442 375 l 440 375 l 442 375 l 163 294 l 260 294 l 260 143 l 478 203 z "},"·":{"ha":304,"x_min":42,"x_max":263,"o":"m 221 307 l 42 357 l 82 508 l 263 458 l 221 307 z "},"•":{"ha":290,"x_min":42,"x_max":263,"o":"m 221 -4 l 42 46 l 82 197 l 263 147 l 221 -4 z "},"*":{"ha":486,"x_min":42,"x_max":444,"o":"m 115 444 l 42 540 l 147 624 l 42 707 l 117 800 l 183 747 l 183 831 l 303 831 l 303 747 l 369 800 l 444 707 l 339 624 l 444 540 l 371 444 l 303 499 l 303 413 l 183 413 l 183 499 l 115 444 z "},"#":{"ha":868,"x_min":42,"x_max":826,"o":"m 250 82 l 97 82 l 165 272 l 42 272 l 92 415 l 218 415 l 243 485 l 119 485 l 168 628 l 296 628 l 331 722 l 483 722 l 449 628 l 554 628 l 589 722 l 742 722 l 707 628 l 826 628 l 776 485 l 654 485 l 629 415 l 749 415 l 700 272 l 578 272 l 508 82 l 356 82 l 424 272 l 319 272 l 250 82 m 371 415 l 476 415 l 501 485 l 396 485 l 371 415 z "},"/":{"ha":603,"x_min":-4,"x_max":561,"o":"m 219 -85 l -4 -85 l 338 851 l 561 851 l 219 -85 z "},"\\":{"ha":603,"x_min":42,"x_max":607,"o":"m 383 -85 l 42 851 l 265 851 l 607 -85 l 383 -85 z "},"(":{"ha":450,"x_min":42,"x_max":408,"o":"m 408 865 l 251 774 l 251 196 l 408 104 l 306 -78 l 42 76 l 42 76 l 42 76 l 42 893 l 42 893 l 42 893 l 306 1047 l 408 865 z "},")":{"ha":450,"x_min":42,"x_max":408,"o":"m 408 893 l 408 893 l 408 893 l 408 76 l 408 76 l 408 76 l 144 -78 l 42 104 l 199 196 l 199 774 l 42 865 l 144 1047 l 408 893 z "},"{":{"ha":450,"x_min":42,"x_max":408,"o":"m 199 -33 l 199 308 l 42 400 l 90 486 l 42 572 l 199 664 l 199 1006 l 408 921 l 408 544 l 408 544 l 408 544 l 308 486 l 408 428 l 408 428 l 408 428 l 408 51 l 199 -33 z "},"}":{"ha":450,"x_min":42,"x_max":408,"o":"m 251 -33 l 42 51 l 42 428 l 42 428 l 42 428 l 142 486 l 42 544 l 42 544 l 42 544 l 42 921 l 251 1006 l 251 664 l 408 572 l 360 486 l 408 400 l 251 308 l 251 -33 z "},"[":{"ha":450,"x_min":42,"x_max":408,"o":"m 408 865 l 251 774 l 251 196 l 408 104 l 306 -78 l 42 76 l 42 76 l 42 76 l 42 893 l 42 893 l 42 893 l 306 1047 l 408 865 z "},"]":{"ha":450,"x_min":42,"x_max":408,"o":"m 408 893 l 408 893 l 408 893 l 408 76 l 408 76 l 408 76 l 144 -78 l 42 104 l 199 196 l 199 774 l 42 865 l 144 1047 l 408 893 z "},"-":{"ha":567,"x_min":43,"x_max":524,"o":"m 507 315 l 43 360 l 60 540 l 524 497 l 507 315 z "},"­":{"ha":567,"x_min":43,"x_max":524,"o":"m 507 315 l 43 360 l 60 540 l 524 497 l 507 315 z "},"–":{"ha":688,"x_min":43,"x_max":644,"o":"m 628 304 l 43 360 l 60 540 l 644 486 l 628 304 z "},"—":{"ha":974,"x_min":43,"x_max":931,"o":"m 914 276 l 43 360 l 60 540 l 931 460 l 914 276 z "},"_":{"ha":557,"x_min":42,"x_max":515,"o":"m 506 -222 l 42 -178 l 51 -74 l 515 -117 l 506 -222 z "},"‚":{"ha":304,"x_min":42,"x_max":263,"o":"m 263 151 l 233 43 l 188 -126 l 128 -111 l 163 17 l 42 50 l 82 201 l 263 151 z "},"„":{"ha":551,"x_min":42,"x_max":510,"o":"m 510 151 l 481 43 l 435 -126 l 375 -111 l 410 17 l 289 50 l 329 201 l 510 151 m 263 151 l 233 43 l 188 -126 l 128 -111 l 163 17 l 42 50 l 82 201 l 263 151 z "},"“":{"ha":589,"x_min":42,"x_max":547,"o":"m 111 607 l 42 922 l 217 972 l 285 657 l 111 607 m 374 607 l 304 922 l 479 972 l 547 657 l 374 607 z "},"”":{"ha":589,"x_min":42,"x_max":547,"o":"m 478 607 l 304 657 l 372 972 l 547 922 l 478 607 m 215 607 l 42 657 l 110 972 l 285 922 l 215 607 z "},"‘":{"ha":326,"x_min":42,"x_max":285,"o":"m 111 607 l 42 922 l 217 972 l 285 657 l 111 607 z "},"’":{"ha":326,"x_min":42,"x_max":285,"o":"m 215 607 l 42 657 l 110 972 l 285 922 l 215 607 z "},"«":{"ha":1021,"x_min":42,"x_max":896,"o":"m 589 215 l 472 347 l 472 349 l 471 349 l 589 482 l 589 481 l 724 633 l 725 636 l 726 636 l 726 636 l 726 635 l 892 560 l 817 401 l 771 422 l 706 349 l 774 272 l 822 294 l 896 135 l 731 60 l 729 57 l 589 215 l 589 215 m 160 215 l 43 347 l 43 349 l 42 349 l 160 482 l 160 481 l 294 633 l 296 636 l 297 636 l 297 636 l 297 635 l 463 560 l 388 401 l 342 422 l 276 349 l 344 272 l 393 294 l 467 135 l 301 60 l 300 57 l 160 215 l 160 215 z "},"»":{"ha":1021,"x_min":125,"x_max":979,"o":"m 292 57 l 290 60 l 125 135 l 199 294 l 247 272 l 315 349 l 250 422 l 204 401 l 129 560 l 294 635 l 294 636 l 294 636 l 296 636 l 297 633 l 432 481 l 432 482 l 550 349 l 549 349 l 549 347 l 432 215 l 432 215 l 292 57 m 721 57 l 719 60 l 554 135 l 628 294 l 676 272 l 744 349 l 679 422 l 633 401 l 558 560 l 724 635 l 724 636 l 724 636 l 725 636 l 726 633 l 861 481 l 861 482 l 979 349 l 978 349 l 978 347 l 861 215 l 861 215 l 721 57 z "},"‹":{"ha":508,"x_min":42,"x_max":467,"o":"m 160 215 l 43 347 l 43 349 l 42 349 l 160 482 l 160 481 l 294 633 l 296 636 l 297 636 l 297 636 l 297 635 l 463 560 l 388 401 l 342 422 l 276 349 l 344 272 l 393 294 l 467 135 l 301 60 l 300 57 l 160 215 l 160 215 z "},"›":{"ha":592,"x_min":125,"x_max":550,"o":"m 292 57 l 290 60 l 125 135 l 199 294 l 247 272 l 315 349 l 250 422 l 204 401 l 129 560 l 294 635 l 294 636 l 294 636 l 296 636 l 297 633 l 432 481 l 432 482 l 550 349 l 549 349 l 549 347 l 432 215 l 432 215 l 292 57 z "},"\"":{"ha":524,"x_min":42,"x_max":482,"o":"m 221 607 l 42 657 l 49 972 l 229 922 l 221 607 m 474 607 l 294 657 l 301 972 l 482 922 l 474 607 z "},"'":{"ha":304,"x_min":75,"x_max":263,"o":"m 254 607 l 75 657 l 82 972 l 263 922 l 254 607 z "},"۔":{"ha":304,"x_min":42,"x_max":263,"o":"m 221 0 l 42 50 l 82 201 l 263 151 l 221 0 z "}," ":{"ha":208,"x_min":0,"x_max":0,"o":""}," ":{"ha":208,"x_min":0,"x_max":0,"o":""},"\r":{"ha":208,"x_min":0,"x_max":0,"o":""},"¢":{"ha":547,"x_min":21,"x_max":526,"o":"m 257 -87 l 151 -69 l 168 28 l 21 68 l 36 125 l 36 489 l 165 489 l 56 518 l 107 721 l 272 678 l 296 813 l 400 793 l 376 650 l 519 613 l 467 408 l 246 467 l 246 224 l 297 210 l 421 281 l 526 100 l 326 -15 l 325 -15 l 325 -15 l 325 -15 l 325 -15 l 272 0 l 257 -87 z "},"¤":{"ha":660,"x_min":21,"x_max":639,"o":"m 82 158 l 21 238 l 135 328 l 135 632 l 21 722 l 85 800 l 203 706 l 231 808 l 493 736 l 575 800 l 638 722 l 565 664 l 551 614 l 551 307 l 639 238 l 578 158 l 424 282 l 396 181 l 183 239 l 82 158 m 310 386 l 376 368 l 376 586 l 310 604 l 310 386 z "},"$":{"ha":583,"x_min":19,"x_max":563,"o":"m 342 -112 l 169 -83 l 192 46 l 83 75 l 168 235 l 460 154 l 304 339 l 243 289 l 19 556 l 117 638 l 117 638 l 150 667 l 153 669 l 153 669 l 278 774 l 296 882 l 468 850 l 447 729 l 556 700 l 471 540 l 197 615 l 332 454 l 392 506 l 563 304 l 563 169 l 501 118 l 361 0 l 361 0 l 342 -112 z "},"€":{"ha":699,"x_min":21,"x_max":678,"o":"m 21 414 l 124 414 l 124 479 l 21 479 l 21 558 l 124 558 l 124 681 l 289 681 l 94 733 l 150 936 l 678 792 l 624 589 l 333 668 l 333 558 l 471 558 l 471 479 l 333 479 l 333 414 l 471 414 l 471 335 l 333 335 l 333 238 l 249 238 l 425 186 l 606 236 l 661 33 l 442 -26 l 442 -26 l 442 -26 l 38 83 l 89 283 l 124 274 l 124 335 l 21 335 l 21 414 z "},"£":{"ha":732,"x_min":21,"x_max":704,"o":"m 21 414 l 124 414 l 124 479 l 21 479 l 21 558 l 124 558 l 124 674 l 81 842 l 485 951 l 485 951 l 485 951 l 704 892 l 649 689 l 468 739 l 268 681 l 333 681 l 333 558 l 471 558 l 471 479 l 333 479 l 333 414 l 471 414 l 471 335 l 333 335 l 333 238 l 249 238 l 425 186 l 606 236 l 661 33 l 442 -26 l 442 -26 l 442 -26 l 38 83 l 89 283 l 124 274 l 124 335 l 21 335 l 21 414 z "},"¥":{"ha":789,"x_min":21,"x_max":768,"o":"m 167 160 l 285 160 l 285 211 l 167 211 l 167 290 l 285 290 l 285 340 l 21 413 l 67 579 l 67 985 l 21 997 l 75 1200 l 293 1140 l 276 1081 l 276 560 l 378 532 l 411 532 l 513 560 l 513 985 l 467 997 l 521 1200 l 765 1133 l 722 972 l 722 579 l 768 413 l 494 338 l 494 290 l 617 290 l 617 211 l 494 211 l 494 160 l 617 160 l 617 81 l 494 81 l 494 0 l 285 0 l 285 81 l 167 81 l 167 160 z "},"∕":{"ha":568,"x_min":-4,"x_max":561,"o":"m 219 -85 l -4 -85 l 338 851 l 561 851 l 219 -85 z "},"+":{"ha":833,"x_min":42,"x_max":604,"o":"m 242 71 l 242 271 l 42 271 l 42 433 l 242 433 l 242 633 l 404 633 l 404 433 l 604 433 l 604 271 l 404 271 l 404 71 l 242 71 z "},"−":{"ha":521,"x_min":42,"x_max":479,"o":"m 42 433 l 479 433 l 479 271 l 42 271 l 42 433 z "},"×":{"ha":578,"x_min":42,"x_max":536,"o":"m 160 82 l 43 192 l 182 347 l 42 506 l 163 613 l 289 469 l 415 613 l 536 506 l 396 347 l 535 192 l 418 82 l 289 226 l 160 82 z "},"÷":{"ha":576,"x_min":42,"x_max":535,"o":"m 229 667 l 349 667 l 349 547 l 229 547 l 229 667 m 42 433 l 535 433 l 535 271 l 42 271 l 42 433 m 229 38 l 229 157 l 349 157 l 349 38 l 229 38 z "},"=":{"ha":521,"x_min":42,"x_max":479,"o":"m 42 532 l 479 532 l 479 369 l 42 369 l 42 532 m 42 317 l 479 317 l 479 154 l 42 154 l 42 317 z "},"≠":{"ha":521,"x_min":42,"x_max":479,"o":"m 42 317 l 199 317 l 214 369 l 42 369 l 42 532 l 257 532 l 283 631 l 389 601 l 371 532 l 479 532 l 479 369 l 326 369 l 313 317 l 479 317 l 479 154 l 269 154 l 243 57 l 138 86 l 156 154 l 42 154 l 42 317 z "},">":{"ha":506,"x_min":42,"x_max":464,"o":"m 464 349 l 207 58 l 42 136 l 231 349 l 43 560 l 210 636 l 464 349 z "},"<":{"ha":506,"x_min":42,"x_max":464,"o":"m 42 349 l 296 636 l 463 560 l 275 349 l 464 136 l 299 58 l 42 349 z "},"≥":{"ha":521,"x_min":42,"x_max":479,"o":"m 472 511 l 215 221 l 50 299 l 239 511 l 51 722 l 218 799 l 472 511 m 42 164 l 479 164 l 479 1 l 42 1 l 42 164 z "},"≤":{"ha":521,"x_min":42,"x_max":479,"o":"m 49 511 l 303 799 l 469 722 l 282 511 l 471 299 l 306 221 l 49 511 m 479 164 l 479 1 l 42 1 l 42 164 l 479 164 z "},"±":{"ha":646,"x_min":42,"x_max":604,"o":"m 104 164 l 542 164 l 542 1 l 104 1 l 104 164 m 242 222 l 242 422 l 42 422 l 42 585 l 242 585 l 242 785 l 404 785 l 404 585 l 604 585 l 604 422 l 404 422 l 404 222 l 242 222 z "},"~":{"ha":804,"x_min":28,"x_max":776,"o":"m 321 474 l 494 426 l 726 489 l 776 294 l 485 211 l 485 211 l 485 211 l 304 261 l 79 196 l 28 394 l 321 474 l 321 474 l 321 474 z "},"¬":{"ha":794,"x_min":42,"x_max":753,"o":"m 42 433 l 753 433 l 753 107 l 590 107 l 590 271 l 42 271 l 42 433 z "},"^":{"ha":717,"x_min":69,"x_max":647,"o":"m 357 907 l 647 650 l 569 485 l 357 674 l 146 486 l 69 653 l 357 907 z "},"µ":{"ha":639,"x_min":21,"x_max":618,"o":"m 325 -17 l 21 67 l 67 239 l 67 479 l 21 492 l 75 694 l 319 628 l 276 467 l 276 214 l 353 193 l 365 239 l 365 479 l 319 492 l 374 694 l 618 628 l 575 467 l 575 214 l 618 203 l 564 0 l 346 60 l 325 -17 z "},"%":{"ha":1121,"x_min":43,"x_max":1079,"o":"m 338 515 l 43 596 l 68 690 l 68 851 l 44 857 l 76 972 l 346 897 l 346 636 l 368 629 l 338 515 m 479 -85 l 256 -85 l 597 851 l 821 851 l 479 -85 m 186 679 l 226 668 l 226 807 l 186 818 l 186 679 m 1049 -82 l 754 -1 l 779 93 l 779 254 l 756 260 l 788 375 l 1057 300 l 1057 39 l 1079 32 l 1049 -82 m 897 82 l 938 71 l 938 210 l 897 221 l 897 82 z "},"→":{"ha":728,"x_min":21,"x_max":707,"o":"m 21 283 l 21 408 l 425 403 l 286 560 l 453 636 l 707 349 l 450 58 l 285 136 l 425 294 l 21 283 z "},"←":{"ha":728,"x_min":21,"x_max":707,"o":"m 21 349 l 275 636 l 442 560 l 303 403 l 707 408 l 707 283 l 303 294 l 443 136 l 278 58 l 21 349 z "},"◊":{"ha":672,"x_min":47,"x_max":625,"o":"m 335 0 l 47 254 l 124 421 l 335 233 l 547 422 l 335 611 l 124 424 l 47 590 l 335 844 l 625 588 l 547 422 l 625 257 l 335 0 z "},"@":{"ha":1183,"x_min":21,"x_max":1163,"o":"m 301 68 l 317 125 l 317 544 l 426 544 l 468 708 l 881 600 l 828 396 l 800 403 l 800 264 l 953 306 l 953 678 l 592 776 l 231 678 l 231 -1 l 592 -100 l 1163 57 l 1163 -161 l 592 -318 l 592 -318 l 592 -318 l 592 -318 l 592 -318 l 21 -161 l 21 838 l 592 994 l 592 994 l 592 994 l 592 994 l 592 994 l 1163 838 l 1163 146 l 719 25 l 719 25 l 583 60 l 567 -4 l 301 68 m 526 225 l 590 208 l 590 460 l 526 476 l 526 225 z "},"&":{"ha":689,"x_min":21,"x_max":668,"o":"m 243 -24 l 21 106 l 21 460 l 131 490 l 21 521 l 21 800 l 21 800 l 21 800 l 390 901 l 446 699 l 231 640 l 231 518 l 335 546 l 367 428 l 367 560 l 668 547 l 647 374 l 576 376 l 576 285 l 576 285 l 632 82 l 243 -24 m 367 251 l 367 336 l 231 300 l 231 190 l 454 251 l 367 251 z "},"¶":{"ha":1031,"x_min":21,"x_max":964,"o":"m 282 233 l 72 356 l 72 660 l 21 853 l 365 947 l 385 874 l 615 936 l 669 733 l 626 722 l 626 228 l 669 67 l 425 0 l 371 203 l 417 215 l 417 271 l 282 233 m 754 0 l 754 925 l 964 925 l 964 0 l 754 0 m 394 483 l 417 400 l 417 697 l 406 740 l 282 707 l 282 451 l 394 483 z "},"§":{"ha":796,"x_min":21,"x_max":775,"o":"m 288 164 l 21 485 l 136 583 l 136 583 l 176 617 l 181 621 l 181 621 l 251 681 l 124 835 l 239 933 l 239 933 l 279 967 l 283 971 l 283 971 l 433 1097 l 767 1007 l 665 817 l 338 907 l 499 713 l 569 775 l 775 532 l 775 371 l 701 310 l 610 233 l 672 160 l 672 -1 l 599 -62 l 431 -204 l 97 -114 l 199 76 l 547 -19 l 350 215 l 288 164 m 390 514 l 390 514 l 235 557 l 331 440 l 650 353 l 553 469 l 392 514 l 390 514 z "},"©":{"ha":654,"x_min":42,"x_max":613,"o":"m 326 1099 l 326 1099 l 613 1021 l 613 522 l 326 444 l 326 444 l 42 522 l 42 1021 l 326 1099 m 326 990 l 146 940 l 146 603 l 326 553 l 507 601 l 507 940 l 326 990 m 343 629 l 229 660 l 235 682 l 235 818 l 283 818 l 242 829 l 261 906 l 415 865 l 396 788 l 313 810 l 313 718 l 332 714 l 379 740 l 418 672 l 344 629 l 343 629 z "},"®":{"ha":654,"x_min":42,"x_max":613,"o":"m 326 1099 l 326 1099 l 613 1021 l 613 522 l 326 444 l 326 444 l 42 522 l 42 1021 l 326 1099 m 326 990 l 146 940 l 146 603 l 326 553 l 507 601 l 507 940 l 326 990 m 304 629 l 231 649 l 244 700 l 244 829 l 279 829 l 236 833 l 242 896 l 410 879 l 403 817 l 403 817 l 403 785 l 376 768 l 403 761 l 403 694 l 419 690 l 403 629 l 340 646 l 340 646 l 331 649 l 340 685 l 340 726 l 360 726 l 307 742 l 307 694 l 321 690 l 304 629 m 340 821 l 363 821 l 307 826 l 307 788 l 340 778 l 340 821 z "},"™":{"ha":717,"x_min":42,"x_max":675,"o":"m 178 593 l 79 621 l 97 688 l 97 858 l 154 858 l 42 869 l 49 953 l 274 932 l 265 847 l 181 856 l 181 690 l 146 690 l 199 675 l 178 593 m 400 593 l 301 621 l 318 682 l 318 857 l 290 864 l 313 946 l 404 921 l 404 921 l 404 921 l 404 889 l 419 946 l 536 914 l 546 946 l 674 911 l 656 843 l 656 682 l 675 676 l 653 593 l 565 618 l 572 642 l 571 642 l 571 851 l 535 861 l 529 842 l 529 682 l 549 676 l 526 593 l 438 618 l 446 647 l 446 851 l 404 863 l 404 681 l 422 676 l 400 593 z "},"°":{"ha":213,"x_min":42,"x_max":171,"o":"m 42 824 l 171 824 l 171 694 l 42 694 l 42 824 m 69 722 l 143 722 l 143 796 l 69 796 l 69 722 z "},"|":{"ha":146,"x_min":21,"x_max":125,"o":"m 21 972 l 125 972 l 125 -131 l 21 -131 l 21 972 z "},"¦":{"ha":146,"x_min":21,"x_max":125,"o":"m 21 972 l 125 972 l 125 581 l 21 581 l 21 972 m 21 392 l 125 392 l 125 0 l 21 0 l 21 392 z "},"̈":{"ha":0,"x_min":0,"x_max":482,"o":"m 240 694 l 0 763 l 39 907 l 225 856 l 239 907 l 482 840 l 440 694 l 256 747 l 240 694 z "},"̇":{"ha":0,"x_min":0,"x_max":246,"o":"m 206 697 l 0 754 l 40 899 l 246 842 l 206 697 z "},"̀":{"ha":0,"x_min":0,"x_max":306,"o":"m 274 907 l 0 982 l 44 1149 l 306 1026 l 274 907 z "},"́":{"ha":0,"x_min":0,"x_max":306,"o":"m 32 907 l 0 1026 l 261 1149 l 306 982 l 32 907 z "},"̋":{"ha":0,"x_min":0,"x_max":415,"o":"m 253 693 l 183 742 l 306 1004 l 415 928 l 253 693 m 69 693 l 0 742 l 122 1004 l 232 928 l 69 693 z "},"̂":{"ha":0,"x_min":0,"x_max":447,"o":"m 19 950 l 0 1026 l 261 1149 l 447 1063 l 411 929 l 178 993 l 19 950 z "},"̌":{"ha":0,"x_min":0,"x_max":443,"o":"m 19 1128 l 228 1071 l 407 1143 l 443 1050 l 261 929 l 0 1051 l 19 1128 z "},"̆":{"ha":0,"x_min":0,"x_max":400,"o":"m 356 804 l 400 739 q 330 710 372 725 q 254 694 288 694 q 97 747 165 694 q 0 879 28 799 l 104 914 q 198 832 140 863 q 324 801 256 801 q 339 803 331 801 q 356 804 347 804 z "},"̊":{"ha":0,"x_min":53,"x_max":308,"o":"m 246 974 l 53 1026 l 53 1026 l 53 1246 l 101 1246 l 115 1296 l 308 1243 l 308 1243 l 308 1024 l 260 1024 l 246 974 m 143 1115 l 218 1081 l 218 1154 l 143 1189 l 143 1115 z "},"̃":{"ha":0,"x_min":0,"x_max":479,"o":"m 54 919 l 0 996 l 153 1149 l 315 1072 l 425 1151 l 479 1075 l 326 922 l 132 976 l 54 919 z "},"̄":{"ha":0,"x_min":0,"x_max":449,"o":"m 6 803 l 0 906 l 442 963 l 449 829 l 6 803 z "},"̒":{"ha":0,"x_min":0,"x_max":229,"o":"m 158 1006 l 228 958 l 167 822 l 229 822 l 229 694 l 53 694 l 53 733 l 0 768 l 158 1006 z "},"̦":{"ha":0,"x_min":283,"x_max":515,"o":"m 353 -369 l 283 -321 l 406 -58 l 515 -135 l 353 -369 z "},"̧":{"ha":0,"x_min":0,"x_max":256,"o":"m 256 -325 l 207 -325 l 193 -374 l 0 -321 l 32 -204 l 165 -267 l 165 -194 l 40 -136 l 40 -136 l 39 -136 l 39 0 l 88 0 l 88 -60 l 256 -106 l 256 -106 l 256 -325 z "},"̨":{"ha":0,"x_min":0,"x_max":313,"o":"m 292 -149 l 313 -211 q 210 -237 264 -237 q 80 -195 138 -237 q 0 -87 22 -153 l 0 -87 l 0 -87 l 78 36 l 126 4 l 86 -60 q 163 -125 117 -100 q 265 -150 210 -150 q 279 -150 272 -150 q 292 -149 286 -150 z "},"¨":{"ha":479,"x_min":0,"x_max":482,"o":"m 240 694 l 0 763 l 39 907 l 225 856 l 239 907 l 482 840 l 440 694 l 256 747 l 240 694 z "},"`":{"ha":306,"x_min":0,"x_max":306,"o":"m 274 907 l 0 982 l 44 1149 l 306 1026 l 274 907 z "},"´":{"ha":306,"x_min":0,"x_max":306,"o":"m 32 907 l 0 1026 l 261 1149 l 306 982 l 32 907 z "},"ˆ":{"ha":447,"x_min":0,"x_max":447,"o":"m 19 950 l 0 1026 l 261 1149 l 447 1063 l 411 929 l 178 993 l 19 950 z "},"˚":{"ha":361,"x_min":53,"x_max":308,"o":"m 246 974 l 53 1026 l 53 1026 l 53 1246 l 101 1246 l 115 1296 l 308 1243 l 308 1243 l 308 1024 l 260 1024 l 246 974 m 143 1115 l 218 1081 l 218 1154 l 143 1189 l 143 1115 z "},"˜":{"ha":479,"x_min":0,"x_max":479,"o":"m 54 919 l 0 996 l 153 1149 l 315 1072 l 425 1151 l 479 1075 l 326 922 l 132 976 l 54 919 z "},"¯":{"ha":449,"x_min":0,"x_max":449,"o":"m 6 803 l 0 906 l 442 963 l 449 829 l 6 803 z "},"¸":{"ha":256,"x_min":0,"x_max":256,"o":"m 256 -325 l 207 -325 l 193 -374 l 0 -321 l 32 -204 l 165 -267 l 165 -194 l 40 -136 l 40 -136 l 39 -136 l 39 0 l 88 0 l 88 -60 l 256 -106 l 256 -106 l 256 -325 z "},"ؕ":{"ha":0,"x_min":0,"x_max":242,"o":"m 35 694 l 0 767 l 14 771 l 14 963 l 90 963 l 90 908 l 225 871 l 211 819 l 242 750 l 35 694 m 90 826 l 90 790 l 158 807 l 90 826 z "},"ٔ":{"ha":0,"x_min":-4,"x_max":246,"o":"m 15 689 l -4 763 l 81 786 l 4 807 l 26 876 l 26 876 l 51 953 l 192 950 l 174 874 l 50 876 l 194 836 l 189 815 l 226 825 l 246 751 l 15 689 z "},"ٕ":{"ha":0,"x_min":-4,"x_max":246,"o":"m 15 -267 l -4 -193 l 81 -169 l 4 -149 l 26 -79 l 26 -79 l 51 -3 l 192 -6 l 174 -82 l 50 -79 l 194 -119 l 189 -140 l 226 -131 l 246 -204 l 15 -267 z "},"ً":{"ha":0,"x_min":0,"x_max":214,"o":"m 0 694 l 0 722 l 213 722 l 213 694 l 0 694 m 1 746 l 1 774 l 214 774 l 214 746 l 1 746 z "},"ٌ":{"ha":0,"x_min":0,"x_max":213,"o":"m 0 694 l 0 765 l 28 765 l 28 722 l 126 722 l 126 781 l 213 781 l 213 694 l 0 694 z "},"ٍ":{"ha":0,"x_min":0,"x_max":213,"o":"m 0 0 l 0 28 l 213 28 l 213 0 l 0 0 m 0 -51 l 0 -24 l 213 -24 l 213 -51 l 0 -51 z "},"َ":{"ha":0,"x_min":0,"x_max":213,"o":"m 0 694 l 0 722 l 213 722 l 213 694 l 0 694 z "},"ُ":{"ha":0,"x_min":0,"x_max":213,"o":"m 0 694 l 0 722 l 126 722 l 126 781 l 213 781 l 213 694 l 0 694 z "},"ِ":{"ha":0,"x_min":0,"x_max":213,"o":"m 0 0 l 0 28 l 213 28 l 213 0 l 0 0 z "},"ّ":{"ha":0,"x_min":0,"x_max":213,"o":"m 121 694 l 0 694 l 0 767 l 28 767 l 28 722 l 93 722 l 93 794 l 121 794 l 121 736 l 185 736 l 185 808 l 213 808 l 213 708 l 121 708 l 121 694 z "},"ْ":{"ha":0,"x_min":0,"x_max":129,"o":"m 0 824 l 129 824 l 129 694 l 0 694 l 0 824 m 28 722 l 101 722 l 101 796 l 28 796 l 28 722 z "},"ٓ":{"ha":0,"x_min":0,"x_max":274,"o":"m 164 714 l 163 715 l 88 736 l 75 694 l 0 719 l 35 832 l 35 832 l 35 832 l 79 819 l 110 811 l 110 811 l 149 800 l 229 835 l 274 765 l 164 714 z "},"\u0000":{"ha":0,"x_min":0,"x_max":0,"o":""}}}
